<?xml version="1.0" standalone="no"?>
 <!DOCTYPE svg PUBLIC "-//W3C//DTD SVG 1.1//EN" 
 "http://www.w3.org/Graphics/SVG/1.1/DTD/svg11.dtd"> 
<svg
  xmlns:svg="http://www.w3.org/2000/svg"
  xmlns="http://www.w3.org/2000/svg"
  xmlns:xlink="http://www.w3.org/1999/xlink"
  xmlns:inkscape="http://www.inkscape.org/namespaces/inkscape"
  version="1.1"
  width="297.0022mm" height="210.0072mm" viewBox="0.0000 0.0000 297.0022 210.0072">
<title>SVG Image created as usb_c_traffic_light_board.svg date 2026-05-25T23:27:12 </title>
  <desc>Image generated by PCBNEW </desc>
<g style="fill:#000000; fill-opacity:1.0000;stroke:#000000; stroke-opacity:1.0000;
stroke-linecap:round; stroke-linejoin:round;"
 transform="translate(0 0) scale(1 1)">
</g>
<g style="fill:none; 
stroke:#C872AB; stroke-width:0.1500; stroke-opacity:1; 
stroke-linecap:round; stroke-linejoin:round;">
<path d="M177.0022 166.0072
L285.0022 166.0072
L285.0022 198.0072
L177.0022 198.0072
L177.0022 166.0072
" />
<path d="M10.0000 10.0000
L287.0022 10.0000
L287.0022 200.0072
L10.0000 200.0072
L10.0000 10.0000
" />
<path d="M12.0000 12.0000
L285.0022 12.0000
L285.0022 198.0072
L12.0000 198.0072
L12.0000 12.0000
" />
<path d="M60.0000 12.0000
L60.0000 10.0000
" />
<path d="M110.0000 12.0000
L110.0000 10.0000
" />
<path d="M160.0000 12.0000
L160.0000 10.0000
" />
<path d="M210.0000 12.0000
L210.0000 10.0000
" />
<path d="M260.0000 12.0000
L260.0000 10.0000
" />
<text x="35.0000" y="11.6500"
textLength="1.4281" font-size="1.7333" lengthAdjust="spacingAndGlyphs"
text-anchor="start" opacity="0" stroke-opacity="0">1</text>
<g class="stroked-text"><desc>1</desc>
<path d="M36.0892 11.5936
L35.3463 11.5936
" />
<path d="M35.7177 11.5936
L35.7177 10.2936
" />
<path d="M35.7177 10.2936
L35.5939 10.4793
" />
<path d="M35.5939 10.4793
L35.4701 10.6031
" />
<path d="M35.4701 10.6031
L35.3463 10.6650
" />
</g><text x="85.0000" y="11.6500"
textLength="1.4281" font-size="1.7333" lengthAdjust="spacingAndGlyphs"
text-anchor="start" opacity="0" stroke-opacity="0">2</text>
<g class="stroked-text"><desc>2</desc>
<path d="M85.3463 10.4174
L85.4082 10.3555
" />
<path d="M85.4082 10.3555
L85.5320 10.2936
" />
<path d="M85.5320 10.2936
L85.8415 10.2936
" />
<path d="M85.8415 10.2936
L85.9654 10.3555
" />
<path d="M85.9654 10.3555
L86.0273 10.4174
" />
<path d="M86.0273 10.4174
L86.0892 10.5412
" />
<path d="M86.0892 10.5412
L86.0892 10.6650
" />
<path d="M86.0892 10.6650
L86.0273 10.8507
" />
<path d="M86.0273 10.8507
L85.2844 11.5936
" />
<path d="M85.2844 11.5936
L86.0892 11.5936
" />
</g><text x="135.0000" y="11.6500"
textLength="1.4281" font-size="1.7333" lengthAdjust="spacingAndGlyphs"
text-anchor="start" opacity="0" stroke-opacity="0">3</text>
<g class="stroked-text"><desc>3</desc>
<path d="M135.2844 10.2936
L136.0892 10.2936
" />
<path d="M136.0892 10.2936
L135.6558 10.7888
" />
<path d="M135.6558 10.7888
L135.8415 10.7888
" />
<path d="M135.8415 10.7888
L135.9654 10.8507
" />
<path d="M135.9654 10.8507
L136.0273 10.9127
" />
<path d="M136.0273 10.9127
L136.0892 11.0365
" />
<path d="M136.0892 11.0365
L136.0892 11.3460
" />
<path d="M136.0892 11.3460
L136.0273 11.4698
" />
<path d="M136.0273 11.4698
L135.9654 11.5317
" />
<path d="M135.9654 11.5317
L135.8415 11.5936
" />
<path d="M135.8415 11.5936
L135.4701 11.5936
" />
<path d="M135.4701 11.5936
L135.3463 11.5317
" />
<path d="M135.3463 11.5317
L135.2844 11.4698
" />
</g><text x="185.0000" y="11.6500"
textLength="1.4281" font-size="1.7333" lengthAdjust="spacingAndGlyphs"
text-anchor="start" opacity="0" stroke-opacity="0">4</text>
<g class="stroked-text"><desc>4</desc>
<path d="M185.9654 10.7269
L185.9654 11.5936
" />
<path d="M185.6558 10.2317
L185.3463 11.1603
" />
<path d="M185.3463 11.1603
L186.1511 11.1603
" />
</g><text x="235.0000" y="11.6500"
textLength="1.4281" font-size="1.7333" lengthAdjust="spacingAndGlyphs"
text-anchor="start" opacity="0" stroke-opacity="0">5</text>
<g class="stroked-text"><desc>5</desc>
<path d="M236.0273 10.2936
L235.4082 10.2936
" />
<path d="M235.4082 10.2936
L235.3463 10.9127
" />
<path d="M235.3463 10.9127
L235.4082 10.8507
" />
<path d="M235.4082 10.8507
L235.5320 10.7888
" />
<path d="M235.5320 10.7888
L235.8415 10.7888
" />
<path d="M235.8415 10.7888
L235.9654 10.8507
" />
<path d="M235.9654 10.8507
L236.0273 10.9127
" />
<path d="M236.0273 10.9127
L236.0892 11.0365
" />
<path d="M236.0892 11.0365
L236.0892 11.3460
" />
<path d="M236.0892 11.3460
L236.0273 11.4698
" />
<path d="M236.0273 11.4698
L235.9654 11.5317
" />
<path d="M235.9654 11.5317
L235.8415 11.5936
" />
<path d="M235.8415 11.5936
L235.5320 11.5936
" />
<path d="M235.5320 11.5936
L235.4082 11.5317
" />
<path d="M235.4082 11.5317
L235.3463 11.4698
" />
</g><text x="285.0000" y="11.6500"
textLength="1.4281" font-size="1.7333" lengthAdjust="spacingAndGlyphs"
text-anchor="start" opacity="0" stroke-opacity="0">6</text>
<g class="stroked-text"><desc>6</desc>
<path d="M285.9654 10.2936
L285.7177 10.2936
" />
<path d="M285.7177 10.2936
L285.5939 10.3555
" />
<path d="M285.5939 10.3555
L285.5320 10.4174
" />
<path d="M285.5320 10.4174
L285.4082 10.6031
" />
<path d="M285.4082 10.6031
L285.3463 10.8507
" />
<path d="M285.3463 10.8507
L285.3463 11.3460
" />
<path d="M285.3463 11.3460
L285.4082 11.4698
" />
<path d="M285.4082 11.4698
L285.4701 11.5317
" />
<path d="M285.4701 11.5317
L285.5939 11.5936
" />
<path d="M285.5939 11.5936
L285.8415 11.5936
" />
<path d="M285.8415 11.5936
L285.9654 11.5317
" />
<path d="M285.9654 11.5317
L286.0273 11.4698
" />
<path d="M286.0273 11.4698
L286.0892 11.3460
" />
<path d="M286.0892 11.3460
L286.0892 11.0365
" />
<path d="M286.0892 11.0365
L286.0273 10.9127
" />
<path d="M286.0273 10.9127
L285.9654 10.8507
" />
<path d="M285.9654 10.8507
L285.8415 10.7888
" />
<path d="M285.8415 10.7888
L285.5939 10.7888
" />
<path d="M285.5939 10.7888
L285.4701 10.8507
" />
<path d="M285.4701 10.8507
L285.4082 10.9127
" />
<path d="M285.4082 10.9127
L285.3463 11.0365
" />
</g><path d="M60.0000 198.0072
L60.0000 200.0072
" />
<path d="M110.0000 198.0072
L110.0000 200.0072
" />
<path d="M160.0000 198.0072
L160.0000 200.0072
" />
<path d="M210.0000 198.0072
L210.0000 200.0072
" />
<path d="M260.0000 198.0072
L260.0000 200.0072
" />
<text x="35.0000" y="199.6572"
textLength="1.4281" font-size="1.7333" lengthAdjust="spacingAndGlyphs"
text-anchor="start" opacity="0" stroke-opacity="0">1</text>
<g class="stroked-text"><desc>1</desc>
<path d="M36.0892 199.6008
L35.3463 199.6008
" />
<path d="M35.7177 199.6008
L35.7177 198.3008
" />
<path d="M35.7177 198.3008
L35.5939 198.4865
" />
<path d="M35.5939 198.4865
L35.4701 198.6103
" />
<path d="M35.4701 198.6103
L35.3463 198.6722
" />
</g><text x="85.0000" y="199.6572"
textLength="1.4281" font-size="1.7333" lengthAdjust="spacingAndGlyphs"
text-anchor="start" opacity="0" stroke-opacity="0">2</text>
<g class="stroked-text"><desc>2</desc>
<path d="M85.3463 198.4246
L85.4082 198.3627
" />
<path d="M85.4082 198.3627
L85.5320 198.3008
" />
<path d="M85.5320 198.3008
L85.8415 198.3008
" />
<path d="M85.8415 198.3008
L85.9654 198.3627
" />
<path d="M85.9654 198.3627
L86.0273 198.4246
" />
<path d="M86.0273 198.4246
L86.0892 198.5484
" />
<path d="M86.0892 198.5484
L86.0892 198.6722
" />
<path d="M86.0892 198.6722
L86.0273 198.8579
" />
<path d="M86.0273 198.8579
L85.2844 199.6008
" />
<path d="M85.2844 199.6008
L86.0892 199.6008
" />
</g><text x="135.0000" y="199.6572"
textLength="1.4281" font-size="1.7333" lengthAdjust="spacingAndGlyphs"
text-anchor="start" opacity="0" stroke-opacity="0">3</text>
<g class="stroked-text"><desc>3</desc>
<path d="M135.2844 198.3008
L136.0892 198.3008
" />
<path d="M136.0892 198.3008
L135.6558 198.7960
" />
<path d="M135.6558 198.7960
L135.8415 198.7960
" />
<path d="M135.8415 198.7960
L135.9654 198.8579
" />
<path d="M135.9654 198.8579
L136.0273 198.9199
" />
<path d="M136.0273 198.9199
L136.0892 199.0437
" />
<path d="M136.0892 199.0437
L136.0892 199.3532
" />
<path d="M136.0892 199.3532
L136.0273 199.4770
" />
<path d="M136.0273 199.4770
L135.9654 199.5389
" />
<path d="M135.9654 199.5389
L135.8415 199.6008
" />
<path d="M135.8415 199.6008
L135.4701 199.6008
" />
<path d="M135.4701 199.6008
L135.3463 199.5389
" />
<path d="M135.3463 199.5389
L135.2844 199.4770
" />
</g><text x="185.0000" y="199.6572"
textLength="1.4281" font-size="1.7333" lengthAdjust="spacingAndGlyphs"
text-anchor="start" opacity="0" stroke-opacity="0">4</text>
<g class="stroked-text"><desc>4</desc>
<path d="M185.9654 198.7341
L185.9654 199.6008
" />
<path d="M185.6558 198.2389
L185.3463 199.1675
" />
<path d="M185.3463 199.1675
L186.1511 199.1675
" />
</g><text x="235.0000" y="199.6572"
textLength="1.4281" font-size="1.7333" lengthAdjust="spacingAndGlyphs"
text-anchor="start" opacity="0" stroke-opacity="0">5</text>
<g class="stroked-text"><desc>5</desc>
<path d="M236.0273 198.3008
L235.4082 198.3008
" />
<path d="M235.4082 198.3008
L235.3463 198.9199
" />
<path d="M235.3463 198.9199
L235.4082 198.8579
" />
<path d="M235.4082 198.8579
L235.5320 198.7960
" />
<path d="M235.5320 198.7960
L235.8415 198.7960
" />
<path d="M235.8415 198.7960
L235.9654 198.8579
" />
<path d="M235.9654 198.8579
L236.0273 198.9199
" />
<path d="M236.0273 198.9199
L236.0892 199.0437
" />
<path d="M236.0892 199.0437
L236.0892 199.3532
" />
<path d="M236.0892 199.3532
L236.0273 199.4770
" />
<path d="M236.0273 199.4770
L235.9654 199.5389
" />
<path d="M235.9654 199.5389
L235.8415 199.6008
" />
<path d="M235.8415 199.6008
L235.5320 199.6008
" />
<path d="M235.5320 199.6008
L235.4082 199.5389
" />
<path d="M235.4082 199.5389
L235.3463 199.4770
" />
</g><text x="285.0000" y="199.6572"
textLength="1.4281" font-size="1.7333" lengthAdjust="spacingAndGlyphs"
text-anchor="start" opacity="0" stroke-opacity="0">6</text>
<g class="stroked-text"><desc>6</desc>
<path d="M285.9654 198.3008
L285.7177 198.3008
" />
<path d="M285.7177 198.3008
L285.5939 198.3627
" />
<path d="M285.5939 198.3627
L285.5320 198.4246
" />
<path d="M285.5320 198.4246
L285.4082 198.6103
" />
<path d="M285.4082 198.6103
L285.3463 198.8579
" />
<path d="M285.3463 198.8579
L285.3463 199.3532
" />
<path d="M285.3463 199.3532
L285.4082 199.4770
" />
<path d="M285.4082 199.4770
L285.4701 199.5389
" />
<path d="M285.4701 199.5389
L285.5939 199.6008
" />
<path d="M285.5939 199.6008
L285.8415 199.6008
" />
<path d="M285.8415 199.6008
L285.9654 199.5389
" />
<path d="M285.9654 199.5389
L286.0273 199.4770
" />
<path d="M286.0273 199.4770
L286.0892 199.3532
" />
<path d="M286.0892 199.3532
L286.0892 199.0437
" />
<path d="M286.0892 199.0437
L286.0273 198.9199
" />
<path d="M286.0273 198.9199
L285.9654 198.8579
" />
<path d="M285.9654 198.8579
L285.8415 198.7960
" />
<path d="M285.8415 198.7960
L285.5939 198.7960
" />
<path d="M285.5939 198.7960
L285.4701 198.8579
" />
<path d="M285.4701 198.8579
L285.4082 198.9199
" />
<path d="M285.4082 198.9199
L285.3463 199.0437
" />
</g><path d="M10.0000 60.0000
L12.0000 60.0000
" />
<path d="M10.0000 110.0000
L12.0000 110.0000
" />
<path d="M10.0000 160.0000
L12.0000 160.0000
" />
<text x="11.0000" y="35.6500"
textLength="1.3043" font-size="1.7333" lengthAdjust="spacingAndGlyphs"
text-anchor="middle" opacity="0" stroke-opacity="0">A</text>
<g class="stroked-text"><desc>A</desc>
<path d="M10.6905 35.2222
L11.3095 35.2222
" />
<path d="M10.5667 35.5936
L11.0000 34.2936
" />
<path d="M11.0000 34.2936
L11.4333 35.5936
" />
</g><text x="11.0000" y="85.6500"
textLength="1.4900" font-size="1.7333" lengthAdjust="spacingAndGlyphs"
text-anchor="middle" opacity="0" stroke-opacity="0">B</text>
<g class="stroked-text"><desc>B</desc>
<path d="M11.0929 84.9127
L11.2786 84.9746
" />
<path d="M11.2786 84.9746
L11.3405 85.0365
" />
<path d="M11.3405 85.0365
L11.4024 85.1603
" />
<path d="M11.4024 85.1603
L11.4024 85.3460
" />
<path d="M11.4024 85.3460
L11.3405 85.4698
" />
<path d="M11.3405 85.4698
L11.2786 85.5317
" />
<path d="M11.2786 85.5317
L11.1548 85.5936
" />
<path d="M11.1548 85.5936
L10.6595 85.5936
" />
<path d="M10.6595 85.5936
L10.6595 84.2936
" />
<path d="M10.6595 84.2936
L11.0929 84.2936
" />
<path d="M11.0929 84.2936
L11.2167 84.3555
" />
<path d="M11.2167 84.3555
L11.2786 84.4174
" />
<path d="M11.2786 84.4174
L11.3405 84.5412
" />
<path d="M11.3405 84.5412
L11.3405 84.6650
" />
<path d="M11.3405 84.6650
L11.2786 84.7888
" />
<path d="M11.2786 84.7888
L11.2167 84.8507
" />
<path d="M11.2167 84.8507
L11.0929 84.9127
" />
<path d="M11.0929 84.9127
L10.6595 84.9127
" />
</g><text x="11.0000" y="135.6500"
textLength="1.4900" font-size="1.7333" lengthAdjust="spacingAndGlyphs"
text-anchor="middle" opacity="0" stroke-opacity="0">C</text>
<g class="stroked-text"><desc>C</desc>
<path d="M11.4024 135.4698
L11.3405 135.5317
" />
<path d="M11.3405 135.5317
L11.1548 135.5936
" />
<path d="M11.1548 135.5936
L11.0310 135.5936
" />
<path d="M11.0310 135.5936
L10.8452 135.5317
" />
<path d="M10.8452 135.5317
L10.7214 135.4079
" />
<path d="M10.7214 135.4079
L10.6595 135.2841
" />
<path d="M10.6595 135.2841
L10.5976 135.0365
" />
<path d="M10.5976 135.0365
L10.5976 134.8507
" />
<path d="M10.5976 134.8507
L10.6595 134.6031
" />
<path d="M10.6595 134.6031
L10.7214 134.4793
" />
<path d="M10.7214 134.4793
L10.8452 134.3555
" />
<path d="M10.8452 134.3555
L11.0310 134.2936
" />
<path d="M11.0310 134.2936
L11.1548 134.2936
" />
<path d="M11.1548 134.2936
L11.3405 134.3555
" />
<path d="M11.3405 134.3555
L11.4024 134.4174
" />
</g><text x="11.0000" y="185.6500"
textLength="1.4900" font-size="1.7333" lengthAdjust="spacingAndGlyphs"
text-anchor="middle" opacity="0" stroke-opacity="0">D</text>
<g class="stroked-text"><desc>D</desc>
<path d="M10.6595 185.5936
L10.6595 184.2936
" />
<path d="M10.6595 184.2936
L10.9690 184.2936
" />
<path d="M10.9690 184.2936
L11.1548 184.3555
" />
<path d="M11.1548 184.3555
L11.2786 184.4793
" />
<path d="M11.2786 184.4793
L11.3405 184.6031
" />
<path d="M11.3405 184.6031
L11.4024 184.8507
" />
<path d="M11.4024 184.8507
L11.4024 185.0365
" />
<path d="M11.4024 185.0365
L11.3405 185.2841
" />
<path d="M11.3405 185.2841
L11.2786 185.4079
" />
<path d="M11.2786 185.4079
L11.1548 185.5317
" />
<path d="M11.1548 185.5317
L10.9690 185.5936
" />
<path d="M10.9690 185.5936
L10.6595 185.5936
" />
</g><path d="M287.0022 60.0000
L285.0022 60.0000
" />
<path d="M287.0022 110.0000
L285.0022 110.0000
" />
<path d="M287.0022 160.0000
L285.0022 160.0000
" />
<text x="286.0022" y="35.6500"
textLength="1.3043" font-size="1.7333" lengthAdjust="spacingAndGlyphs"
text-anchor="middle" opacity="0" stroke-opacity="0">A</text>
<g class="stroked-text"><desc>A</desc>
<path d="M285.6927 35.2222
L286.3117 35.2222
" />
<path d="M285.5689 35.5936
L286.0022 34.2936
" />
<path d="M286.0022 34.2936
L286.4355 35.5936
" />
</g><text x="286.0022" y="85.6500"
textLength="1.4900" font-size="1.7333" lengthAdjust="spacingAndGlyphs"
text-anchor="middle" opacity="0" stroke-opacity="0">B</text>
<g class="stroked-text"><desc>B</desc>
<path d="M286.0951 84.9127
L286.2808 84.9746
" />
<path d="M286.2808 84.9746
L286.3427 85.0365
" />
<path d="M286.3427 85.0365
L286.4046 85.1603
" />
<path d="M286.4046 85.1603
L286.4046 85.3460
" />
<path d="M286.4046 85.3460
L286.3427 85.4698
" />
<path d="M286.3427 85.4698
L286.2808 85.5317
" />
<path d="M286.2808 85.5317
L286.1570 85.5936
" />
<path d="M286.1570 85.5936
L285.6617 85.5936
" />
<path d="M285.6617 85.5936
L285.6617 84.2936
" />
<path d="M285.6617 84.2936
L286.0951 84.2936
" />
<path d="M286.0951 84.2936
L286.2189 84.3555
" />
<path d="M286.2189 84.3555
L286.2808 84.4174
" />
<path d="M286.2808 84.4174
L286.3427 84.5412
" />
<path d="M286.3427 84.5412
L286.3427 84.6650
" />
<path d="M286.3427 84.6650
L286.2808 84.7888
" />
<path d="M286.2808 84.7888
L286.2189 84.8507
" />
<path d="M286.2189 84.8507
L286.0951 84.9127
" />
<path d="M286.0951 84.9127
L285.6617 84.9127
" />
</g><text x="286.0022" y="135.6500"
textLength="1.4900" font-size="1.7333" lengthAdjust="spacingAndGlyphs"
text-anchor="middle" opacity="0" stroke-opacity="0">C</text>
<g class="stroked-text"><desc>C</desc>
<path d="M286.4046 135.4698
L286.3427 135.5317
" />
<path d="M286.3427 135.5317
L286.1570 135.5936
" />
<path d="M286.1570 135.5936
L286.0332 135.5936
" />
<path d="M286.0332 135.5936
L285.8474 135.5317
" />
<path d="M285.8474 135.5317
L285.7236 135.4079
" />
<path d="M285.7236 135.4079
L285.6617 135.2841
" />
<path d="M285.6617 135.2841
L285.5998 135.0365
" />
<path d="M285.5998 135.0365
L285.5998 134.8507
" />
<path d="M285.5998 134.8507
L285.6617 134.6031
" />
<path d="M285.6617 134.6031
L285.7236 134.4793
" />
<path d="M285.7236 134.4793
L285.8474 134.3555
" />
<path d="M285.8474 134.3555
L286.0332 134.2936
" />
<path d="M286.0332 134.2936
L286.1570 134.2936
" />
<path d="M286.1570 134.2936
L286.3427 134.3555
" />
<path d="M286.3427 134.3555
L286.4046 134.4174
" />
</g><text x="286.0022" y="185.6500"
textLength="1.4900" font-size="1.7333" lengthAdjust="spacingAndGlyphs"
text-anchor="middle" opacity="0" stroke-opacity="0">D</text>
<g class="stroked-text"><desc>D</desc>
<path d="M285.6617 185.5936
L285.6617 184.2936
" />
<path d="M285.6617 184.2936
L285.9712 184.2936
" />
<path d="M285.9712 184.2936
L286.1570 184.3555
" />
<path d="M286.1570 184.3555
L286.2808 184.4793
" />
<path d="M286.2808 184.4793
L286.3427 184.6031
" />
<path d="M286.3427 184.6031
L286.4046 184.8507
" />
<path d="M286.4046 184.8507
L286.4046 185.0365
" />
<path d="M286.4046 185.0365
L286.3427 185.2841
" />
<path d="M286.3427 185.2841
L286.2808 185.4079
" />
<path d="M286.2808 185.4079
L286.1570 185.5317
" />
<path d="M286.1570 185.5317
L285.9712 185.5936
" />
<path d="M285.9712 185.5936
L285.6617 185.5936
" />
</g><text x="200.0022" y="193.8572"
textLength="7.0071" font-size="2.0000" lengthAdjust="spacingAndGlyphs"
text-anchor="start" opacity="0" stroke-opacity="0">Date: </text>
<g class="stroked-text"><desc>Date: </desc>
<path d="M200.4580 193.7933
L200.4580 192.2933
" />
<path d="M200.4580 192.2933
L200.8152 192.2933
" />
<path d="M200.8152 192.2933
L201.0295 192.3648
" />
<path d="M201.0295 192.3648
L201.1723 192.5076
" />
<path d="M201.1723 192.5076
L201.2437 192.6505
" />
<path d="M201.2437 192.6505
L201.3152 192.9362
" />
<path d="M201.3152 192.9362
L201.3152 193.1505
" />
<path d="M201.3152 193.1505
L201.2437 193.4362
" />
<path d="M201.2437 193.4362
L201.1723 193.5790
" />
<path d="M201.1723 193.5790
L201.0295 193.7219
" />
<path d="M201.0295 193.7219
L200.8152 193.7933
" />
<path d="M200.8152 193.7933
L200.4580 193.7933
" />
<path d="M202.6009 193.7933
L202.6009 193.0076
" />
<path d="M202.6009 193.0076
L202.5295 192.8648
" />
<path d="M202.5295 192.8648
L202.3866 192.7933
" />
<path d="M202.3866 192.7933
L202.1009 192.7933
" />
<path d="M202.1009 192.7933
L201.9580 192.8648
" />
<path d="M202.6009 193.7219
L202.4580 193.7933
" />
<path d="M202.4580 193.7933
L202.1009 193.7933
" />
<path d="M202.1009 193.7933
L201.9580 193.7219
" />
<path d="M201.9580 193.7219
L201.8866 193.5790
" />
<path d="M201.8866 193.5790
L201.8866 193.4362
" />
<path d="M201.8866 193.4362
L201.9580 193.2933
" />
<path d="M201.9580 193.2933
L202.1009 193.2219
" />
<path d="M202.1009 193.2219
L202.4580 193.2219
" />
<path d="M202.4580 193.2219
L202.6009 193.1505
" />
<path d="M203.1009 192.7933
L203.6723 192.7933
" />
<path d="M203.3152 192.2933
L203.3152 193.5790
" />
<path d="M203.3152 193.5790
L203.3866 193.7219
" />
<path d="M203.3866 193.7219
L203.5295 193.7933
" />
<path d="M203.5295 193.7933
L203.6723 193.7933
" />
<path d="M204.7437 193.7219
L204.6009 193.7933
" />
<path d="M204.6009 193.7933
L204.3152 193.7933
" />
<path d="M204.3152 193.7933
L204.1723 193.7219
" />
<path d="M204.1723 193.7219
L204.1009 193.5790
" />
<path d="M204.1009 193.5790
L204.1009 193.0076
" />
<path d="M204.1009 193.0076
L204.1723 192.8648
" />
<path d="M204.1723 192.8648
L204.3152 192.7933
" />
<path d="M204.3152 192.7933
L204.6009 192.7933
" />
<path d="M204.6009 192.7933
L204.7437 192.8648
" />
<path d="M204.7437 192.8648
L204.8152 193.0076
" />
<path d="M204.8152 193.0076
L204.8152 193.1505
" />
<path d="M204.8152 193.1505
L204.1009 193.2933
" />
<path d="M205.4580 193.6505
L205.5295 193.7219
" />
<path d="M205.5295 193.7219
L205.4580 193.7933
" />
<path d="M205.4580 193.7933
L205.3866 193.7219
" />
<path d="M205.3866 193.7219
L205.4580 193.6505
" />
<path d="M205.4580 193.6505
L205.4580 193.7933
" />
<path d="M205.4580 192.8648
L205.5295 192.9362
" />
<path d="M205.5295 192.9362
L205.4580 193.0076
" />
<path d="M205.4580 193.0076
L205.3866 192.9362
" />
<path d="M205.3866 192.9362
L205.4580 192.8648
" />
<path d="M205.4580 192.8648
L205.4580 193.0076
" />
</g><path d="M177.0022 194.5072
L285.0022 194.5072
" />
<text x="178.0022" y="196.6572"
textLength="22.2929" font-size="2.0000" lengthAdjust="spacingAndGlyphs"
text-anchor="start" opacity="0" stroke-opacity="0">KiCad E.D.A. 10.0.3</text>
<g class="stroked-text"><desc>KiCad E.D.A. 10.0.3</desc>
<path d="M178.4580 196.5933
L178.4580 195.0933
" />
<path d="M179.3152 196.5933
L178.6723 195.7362
" />
<path d="M179.3152 195.0933
L178.4580 195.9505
" />
<path d="M179.9580 196.5933
L179.9580 195.5933
" />
<path d="M179.9580 195.0933
L179.8866 195.1648
" />
<path d="M179.8866 195.1648
L179.9580 195.2362
" />
<path d="M179.9580 195.2362
L180.0295 195.1648
" />
<path d="M180.0295 195.1648
L179.9580 195.0933
" />
<path d="M179.9580 195.0933
L179.9580 195.2362
" />
<path d="M181.5295 196.4505
L181.4580 196.5219
" />
<path d="M181.4580 196.5219
L181.2437 196.5933
" />
<path d="M181.2437 196.5933
L181.1009 196.5933
" />
<path d="M181.1009 196.5933
L180.8866 196.5219
" />
<path d="M180.8866 196.5219
L180.7437 196.3790
" />
<path d="M180.7437 196.3790
L180.6723 196.2362
" />
<path d="M180.6723 196.2362
L180.6009 195.9505
" />
<path d="M180.6009 195.9505
L180.6009 195.7362
" />
<path d="M180.6009 195.7362
L180.6723 195.4505
" />
<path d="M180.6723 195.4505
L180.7437 195.3076
" />
<path d="M180.7437 195.3076
L180.8866 195.1648
" />
<path d="M180.8866 195.1648
L181.1009 195.0933
" />
<path d="M181.1009 195.0933
L181.2437 195.0933
" />
<path d="M181.2437 195.0933
L181.4580 195.1648
" />
<path d="M181.4580 195.1648
L181.5295 195.2362
" />
<path d="M182.8152 196.5933
L182.8152 195.8076
" />
<path d="M182.8152 195.8076
L182.7437 195.6648
" />
<path d="M182.7437 195.6648
L182.6009 195.5933
" />
<path d="M182.6009 195.5933
L182.3152 195.5933
" />
<path d="M182.3152 195.5933
L182.1723 195.6648
" />
<path d="M182.8152 196.5219
L182.6723 196.5933
" />
<path d="M182.6723 196.5933
L182.3152 196.5933
" />
<path d="M182.3152 196.5933
L182.1723 196.5219
" />
<path d="M182.1723 196.5219
L182.1009 196.3790
" />
<path d="M182.1009 196.3790
L182.1009 196.2362
" />
<path d="M182.1009 196.2362
L182.1723 196.0933
" />
<path d="M182.1723 196.0933
L182.3152 196.0219
" />
<path d="M182.3152 196.0219
L182.6723 196.0219
" />
<path d="M182.6723 196.0219
L182.8152 195.9505
" />
<path d="M184.1723 196.5933
L184.1723 195.0933
" />
<path d="M184.1723 196.5219
L184.0295 196.5933
" />
<path d="M184.0295 196.5933
L183.7437 196.5933
" />
<path d="M183.7437 196.5933
L183.6009 196.5219
" />
<path d="M183.6009 196.5219
L183.5295 196.4505
" />
<path d="M183.5295 196.4505
L183.4580 196.3076
" />
<path d="M183.4580 196.3076
L183.4580 195.8790
" />
<path d="M183.4580 195.8790
L183.5295 195.7362
" />
<path d="M183.5295 195.7362
L183.6009 195.6648
" />
<path d="M183.6009 195.6648
L183.7437 195.5933
" />
<path d="M183.7437 195.5933
L184.0295 195.5933
" />
<path d="M184.0295 195.5933
L184.1723 195.6648
" />
<path d="M186.0295 195.8076
L186.5295 195.8076
" />
<path d="M186.7437 196.5933
L186.0295 196.5933
" />
<path d="M186.0295 196.5933
L186.0295 195.0933
" />
<path d="M186.0295 195.0933
L186.7437 195.0933
" />
<path d="M187.3866 196.4505
L187.4580 196.5219
" />
<path d="M187.4580 196.5219
L187.3866 196.5933
" />
<path d="M187.3866 196.5933
L187.3152 196.5219
" />
<path d="M187.3152 196.5219
L187.3866 196.4505
" />
<path d="M187.3866 196.4505
L187.3866 196.5933
" />
<path d="M188.1009 196.5933
L188.1009 195.0933
" />
<path d="M188.1009 195.0933
L188.4580 195.0933
" />
<path d="M188.4580 195.0933
L188.6723 195.1648
" />
<path d="M188.6723 195.1648
L188.8152 195.3076
" />
<path d="M188.8152 195.3076
L188.8866 195.4505
" />
<path d="M188.8866 195.4505
L188.9580 195.7362
" />
<path d="M188.9580 195.7362
L188.9580 195.9505
" />
<path d="M188.9580 195.9505
L188.8866 196.2362
" />
<path d="M188.8866 196.2362
L188.8152 196.3790
" />
<path d="M188.8152 196.3790
L188.6723 196.5219
" />
<path d="M188.6723 196.5219
L188.4580 196.5933
" />
<path d="M188.4580 196.5933
L188.1009 196.5933
" />
<path d="M189.6009 196.4505
L189.6723 196.5219
" />
<path d="M189.6723 196.5219
L189.6009 196.5933
" />
<path d="M189.6009 196.5933
L189.5295 196.5219
" />
<path d="M189.5295 196.5219
L189.6009 196.4505
" />
<path d="M189.6009 196.4505
L189.6009 196.5933
" />
<path d="M190.2437 196.1648
L190.9580 196.1648
" />
<path d="M190.1009 196.5933
L190.6009 195.0933
" />
<path d="M190.6009 195.0933
L191.1009 196.5933
" />
<path d="M191.6009 196.4505
L191.6723 196.5219
" />
<path d="M191.6723 196.5219
L191.6009 196.5933
" />
<path d="M191.6009 196.5933
L191.5295 196.5219
" />
<path d="M191.5295 196.5219
L191.6009 196.4505
" />
<path d="M191.6009 196.4505
L191.6009 196.5933
" />
<path d="M194.2437 196.5933
L193.3866 196.5933
" />
<path d="M193.8152 196.5933
L193.8152 195.0933
" />
<path d="M193.8152 195.0933
L193.6723 195.3076
" />
<path d="M193.6723 195.3076
L193.5295 195.4505
" />
<path d="M193.5295 195.4505
L193.3866 195.5219
" />
<path d="M195.1723 195.0933
L195.3152 195.0933
" />
<path d="M195.3152 195.0933
L195.4580 195.1648
" />
<path d="M195.4580 195.1648
L195.5295 195.2362
" />
<path d="M195.5295 195.2362
L195.6009 195.3790
" />
<path d="M195.6009 195.3790
L195.6723 195.6648
" />
<path d="M195.6723 195.6648
L195.6723 196.0219
" />
<path d="M195.6723 196.0219
L195.6009 196.3076
" />
<path d="M195.6009 196.3076
L195.5295 196.4505
" />
<path d="M195.5295 196.4505
L195.4580 196.5219
" />
<path d="M195.4580 196.5219
L195.3152 196.5933
" />
<path d="M195.3152 196.5933
L195.1723 196.5933
" />
<path d="M195.1723 196.5933
L195.0295 196.5219
" />
<path d="M195.0295 196.5219
L194.9580 196.4505
" />
<path d="M194.9580 196.4505
L194.8866 196.3076
" />
<path d="M194.8866 196.3076
L194.8152 196.0219
" />
<path d="M194.8152 196.0219
L194.8152 195.6648
" />
<path d="M194.8152 195.6648
L194.8866 195.3790
" />
<path d="M194.8866 195.3790
L194.9580 195.2362
" />
<path d="M194.9580 195.2362
L195.0295 195.1648
" />
<path d="M195.0295 195.1648
L195.1723 195.0933
" />
<path d="M196.3152 196.4505
L196.3866 196.5219
" />
<path d="M196.3866 196.5219
L196.3152 196.5933
" />
<path d="M196.3152 196.5933
L196.2437 196.5219
" />
<path d="M196.2437 196.5219
L196.3152 196.4505
" />
<path d="M196.3152 196.4505
L196.3152 196.5933
" />
<path d="M197.3152 195.0933
L197.4580 195.0933
" />
<path d="M197.4580 195.0933
L197.6009 195.1648
" />
<path d="M197.6009 195.1648
L197.6723 195.2362
" />
<path d="M197.6723 195.2362
L197.7437 195.3790
" />
<path d="M197.7437 195.3790
L197.8152 195.6648
" />
<path d="M197.8152 195.6648
L197.8152 196.0219
" />
<path d="M197.8152 196.0219
L197.7437 196.3076
" />
<path d="M197.7437 196.3076
L197.6723 196.4505
" />
<path d="M197.6723 196.4505
L197.6009 196.5219
" />
<path d="M197.6009 196.5219
L197.4580 196.5933
" />
<path d="M197.4580 196.5933
L197.3152 196.5933
" />
<path d="M197.3152 196.5933
L197.1723 196.5219
" />
<path d="M197.1723 196.5219
L197.1009 196.4505
" />
<path d="M197.1009 196.4505
L197.0295 196.3076
" />
<path d="M197.0295 196.3076
L196.9580 196.0219
" />
<path d="M196.9580 196.0219
L196.9580 195.6648
" />
<path d="M196.9580 195.6648
L197.0295 195.3790
" />
<path d="M197.0295 195.3790
L197.1009 195.2362
" />
<path d="M197.1009 195.2362
L197.1723 195.1648
" />
<path d="M197.1723 195.1648
L197.3152 195.0933
" />
<path d="M198.4580 196.4505
L198.5295 196.5219
" />
<path d="M198.5295 196.5219
L198.4580 196.5933
" />
<path d="M198.4580 196.5933
L198.3866 196.5219
" />
<path d="M198.3866 196.5219
L198.4580 196.4505
" />
<path d="M198.4580 196.4505
L198.4580 196.5933
" />
<path d="M199.0295 195.0933
L199.9580 195.0933
" />
<path d="M199.9580 195.0933
L199.4580 195.6648
" />
<path d="M199.4580 195.6648
L199.6723 195.6648
" />
<path d="M199.6723 195.6648
L199.8152 195.7362
" />
<path d="M199.8152 195.7362
L199.8866 195.8076
" />
<path d="M199.8866 195.8076
L199.9580 195.9505
" />
<path d="M199.9580 195.9505
L199.9580 196.3076
" />
<path d="M199.9580 196.3076
L199.8866 196.4505
" />
<path d="M199.8866 196.4505
L199.8152 196.5219
" />
<path d="M199.8152 196.5219
L199.6723 196.5933
" />
<path d="M199.6723 196.5933
L199.2437 196.5933
" />
<path d="M199.2437 196.5933
L199.1009 196.5219
" />
<path d="M199.1009 196.5219
L199.0295 196.4505
" />
</g><path d="M177.0022 191.5072
L285.0022 191.5072
" />
</g>
<g style="fill:none; 
stroke:#C872AB; stroke-width:0.3000; stroke-opacity:1; 
stroke-linecap:round; stroke-linejoin:round;">
<text x="263.0022" y="193.8572"
textLength="6.3857" font-size="2.0000" lengthAdjust="spacingAndGlyphs"
text-anchor="start" opacity="0" stroke-opacity="0">Rev: </text>
<g class="stroked-text"><desc>Rev: </desc>
<path d="M264.4139 193.7855
L263.9139 193.0712
" />
<path d="M263.5567 193.7855
L263.5567 192.2855
" />
<path d="M263.5567 192.2855
L264.1281 192.2855
" />
<path d="M264.1281 192.2855
L264.2710 192.3570
" />
<path d="M264.2710 192.3570
L264.3424 192.4284
" />
<path d="M264.3424 192.4284
L264.4139 192.5712
" />
<path d="M264.4139 192.5712
L264.4139 192.7855
" />
<path d="M264.4139 192.7855
L264.3424 192.9284
" />
<path d="M264.3424 192.9284
L264.2710 192.9998
" />
<path d="M264.2710 192.9998
L264.1281 193.0712
" />
<path d="M264.1281 193.0712
L263.5567 193.0712
" />
<path d="M265.6281 193.7141
L265.4853 193.7855
" />
<path d="M265.4853 193.7855
L265.1996 193.7855
" />
<path d="M265.1996 193.7855
L265.0567 193.7141
" />
<path d="M265.0567 193.7141
L264.9853 193.5712
" />
<path d="M264.9853 193.5712
L264.9853 192.9998
" />
<path d="M264.9853 192.9998
L265.0567 192.8570
" />
<path d="M265.0567 192.8570
L265.1996 192.7855
" />
<path d="M265.1996 192.7855
L265.4853 192.7855
" />
<path d="M265.4853 192.7855
L265.6281 192.8570
" />
<path d="M265.6281 192.8570
L265.6996 192.9998
" />
<path d="M265.6996 192.9998
L265.6996 193.1427
" />
<path d="M265.6996 193.1427
L264.9853 193.2855
" />
<path d="M266.1996 192.7855
L266.5567 193.7855
" />
<path d="M266.5567 193.7855
L266.9139 192.7855
" />
<path d="M267.4853 193.6427
L267.5567 193.7141
" />
<path d="M267.5567 193.7141
L267.4853 193.7855
" />
<path d="M267.4853 193.7855
L267.4139 193.7141
" />
<path d="M267.4139 193.7141
L267.4853 193.6427
" />
<path d="M267.4853 193.6427
L267.4853 193.7855
" />
<path d="M267.4853 192.8570
L267.5567 192.9284
" />
<path d="M267.5567 192.9284
L267.4853 192.9998
" />
<path d="M267.4853 192.9998
L267.4139 192.9284
" />
<path d="M267.4139 192.9284
L267.4853 192.8570
" />
<path d="M267.4853 192.8570
L267.4853 192.9998
" />
</g></g>
<g style="fill:none; 
stroke:#C872AB; stroke-width:0.1500; stroke-opacity:1; 
stroke-linecap:round; stroke-linejoin:round;">
<text x="178.0022" y="193.8572"
textLength="9.3643" font-size="2.0000" lengthAdjust="spacingAndGlyphs"
text-anchor="start" opacity="0" stroke-opacity="0">Size: A4</text>
<g class="stroked-text"><desc>Size: A4</desc>
<path d="M178.3866 193.7219
L178.6009 193.7933
" />
<path d="M178.6009 193.7933
L178.9580 193.7933
" />
<path d="M178.9580 193.7933
L179.1009 193.7219
" />
<path d="M179.1009 193.7219
L179.1723 193.6505
" />
<path d="M179.1723 193.6505
L179.2437 193.5076
" />
<path d="M179.2437 193.5076
L179.2437 193.3648
" />
<path d="M179.2437 193.3648
L179.1723 193.2219
" />
<path d="M179.1723 193.2219
L179.1009 193.1505
" />
<path d="M179.1009 193.1505
L178.9580 193.0790
" />
<path d="M178.9580 193.0790
L178.6723 193.0076
" />
<path d="M178.6723 193.0076
L178.5295 192.9362
" />
<path d="M178.5295 192.9362
L178.4580 192.8648
" />
<path d="M178.4580 192.8648
L178.3866 192.7219
" />
<path d="M178.3866 192.7219
L178.3866 192.5790
" />
<path d="M178.3866 192.5790
L178.4580 192.4362
" />
<path d="M178.4580 192.4362
L178.5295 192.3648
" />
<path d="M178.5295 192.3648
L178.6723 192.2933
" />
<path d="M178.6723 192.2933
L179.0295 192.2933
" />
<path d="M179.0295 192.2933
L179.2437 192.3648
" />
<path d="M179.8866 193.7933
L179.8866 192.7933
" />
<path d="M179.8866 192.2933
L179.8152 192.3648
" />
<path d="M179.8152 192.3648
L179.8866 192.4362
" />
<path d="M179.8866 192.4362
L179.9580 192.3648
" />
<path d="M179.9580 192.3648
L179.8866 192.2933
" />
<path d="M179.8866 192.2933
L179.8866 192.4362
" />
<path d="M180.4580 192.7933
L181.2437 192.7933
" />
<path d="M181.2437 192.7933
L180.4580 193.7933
" />
<path d="M180.4580 193.7933
L181.2437 193.7933
" />
<path d="M182.3866 193.7219
L182.2437 193.7933
" />
<path d="M182.2437 193.7933
L181.9580 193.7933
" />
<path d="M181.9580 193.7933
L181.8152 193.7219
" />
<path d="M181.8152 193.7219
L181.7437 193.5790
" />
<path d="M181.7437 193.5790
L181.7437 193.0076
" />
<path d="M181.7437 193.0076
L181.8152 192.8648
" />
<path d="M181.8152 192.8648
L181.9580 192.7933
" />
<path d="M181.9580 192.7933
L182.2437 192.7933
" />
<path d="M182.2437 192.7933
L182.3866 192.8648
" />
<path d="M182.3866 192.8648
L182.4580 193.0076
" />
<path d="M182.4580 193.0076
L182.4580 193.1505
" />
<path d="M182.4580 193.1505
L181.7437 193.2933
" />
<path d="M183.1009 193.6505
L183.1723 193.7219
" />
<path d="M183.1723 193.7219
L183.1009 193.7933
" />
<path d="M183.1009 193.7933
L183.0295 193.7219
" />
<path d="M183.0295 193.7219
L183.1009 193.6505
" />
<path d="M183.1009 193.6505
L183.1009 193.7933
" />
<path d="M183.1009 192.8648
L183.1723 192.9362
" />
<path d="M183.1723 192.9362
L183.1009 193.0076
" />
<path d="M183.1009 193.0076
L183.0295 192.9362
" />
<path d="M183.0295 192.9362
L183.1009 192.8648
" />
<path d="M183.1009 192.8648
L183.1009 193.0076
" />
<path d="M184.8866 193.3648
L185.6009 193.3648
" />
<path d="M184.7437 193.7933
L185.2437 192.2933
" />
<path d="M185.2437 192.2933
L185.7437 193.7933
" />
<path d="M186.8866 192.7933
L186.8866 193.7933
" />
<path d="M186.5295 192.2219
L186.1723 193.2933
" />
<path d="M186.1723 193.2933
L187.1009 193.2933
" />
</g><text x="263.0022" y="196.6572"
textLength="8.5071" font-size="2.0000" lengthAdjust="spacingAndGlyphs"
text-anchor="start" opacity="0" stroke-opacity="0">Id: 1/1</text>
<g class="stroked-text"><desc>Id: 1/1</desc>
<path d="M263.4580 196.5933
L263.4580 195.0933
" />
<path d="M264.8152 196.5933
L264.8152 195.0933
" />
<path d="M264.8152 196.5219
L264.6723 196.5933
" />
<path d="M264.6723 196.5933
L264.3866 196.5933
" />
<path d="M264.3866 196.5933
L264.2437 196.5219
" />
<path d="M264.2437 196.5219
L264.1723 196.4505
" />
<path d="M264.1723 196.4505
L264.1009 196.3076
" />
<path d="M264.1009 196.3076
L264.1009 195.8790
" />
<path d="M264.1009 195.8790
L264.1723 195.7362
" />
<path d="M264.1723 195.7362
L264.2437 195.6648
" />
<path d="M264.2437 195.6648
L264.3866 195.5933
" />
<path d="M264.3866 195.5933
L264.6723 195.5933
" />
<path d="M264.6723 195.5933
L264.8152 195.6648
" />
<path d="M265.5295 196.4505
L265.6009 196.5219
" />
<path d="M265.6009 196.5219
L265.5295 196.5933
" />
<path d="M265.5295 196.5933
L265.4580 196.5219
" />
<path d="M265.4580 196.5219
L265.5295 196.4505
" />
<path d="M265.5295 196.4505
L265.5295 196.5933
" />
<path d="M265.5295 195.6648
L265.6009 195.7362
" />
<path d="M265.6009 195.7362
L265.5295 195.8076
" />
<path d="M265.5295 195.8076
L265.4580 195.7362
" />
<path d="M265.4580 195.7362
L265.5295 195.6648
" />
<path d="M265.5295 195.6648
L265.5295 195.8076
" />
<path d="M268.1723 196.5933
L267.3152 196.5933
" />
<path d="M267.7437 196.5933
L267.7437 195.0933
" />
<path d="M267.7437 195.0933
L267.6009 195.3076
" />
<path d="M267.6009 195.3076
L267.4580 195.4505
" />
<path d="M267.4580 195.4505
L267.3152 195.5219
" />
<path d="M269.8866 195.0219
L268.6009 196.9505
" />
<path d="M271.1723 196.5933
L270.3152 196.5933
" />
<path d="M270.7437 196.5933
L270.7437 195.0933
" />
<path d="M270.7437 195.0933
L270.6009 195.3076
" />
<path d="M270.6009 195.3076
L270.4580 195.4505
" />
<path d="M270.4580 195.4505
L270.3152 195.5219
" />
</g><path d="M177.0022 187.5072
L285.0022 187.5072
" />
</g>
<g style="fill:none; 
stroke:#C872AB; stroke-width:0.4000; stroke-opacity:1; 
stroke-linecap:round; stroke-linejoin:round;">
<text x="178.0022" y="190.3072"
textLength="9.6571" font-size="2.6667" lengthAdjust="spacingAndGlyphs"
text-anchor="start" opacity="0" stroke-opacity="0">Title: </text>
<g class="stroked-text"><desc>Title: </desc>
<path d="M178.6939 188.2116
L179.8368 188.2116
" />
<path d="M179.0154 190.2116
L179.2654 188.2116
" />
<path d="M180.2535 190.2116
L180.4201 188.8783
" />
<path d="M180.5035 188.2116
L180.3963 188.3069
" />
<path d="M180.3963 188.3069
L180.4796 188.4021
" />
<path d="M180.4796 188.4021
L180.5868 188.3069
" />
<path d="M180.5868 188.3069
L180.5035 188.2116
" />
<path d="M180.5035 188.2116
L180.4796 188.4021
" />
<path d="M181.0868 188.8783
L181.8487 188.8783
" />
<path d="M181.4558 188.2116
L181.2415 189.9259
" />
<path d="M181.2415 189.9259
L181.3130 190.1164
" />
<path d="M181.3130 190.1164
L181.4915 190.2116
" />
<path d="M181.4915 190.2116
L181.6820 190.2116
" />
<path d="M182.6344 190.2116
L182.4558 190.1164
" />
<path d="M182.4558 190.1164
L182.3844 189.9259
" />
<path d="M182.3844 189.9259
L182.5987 188.2116
" />
<path d="M184.1701 190.1164
L183.9677 190.2116
" />
<path d="M183.9677 190.2116
L183.5868 190.2116
" />
<path d="M183.5868 190.2116
L183.4082 190.1164
" />
<path d="M183.4082 190.1164
L183.3368 189.9259
" />
<path d="M183.3368 189.9259
L183.4320 189.1640
" />
<path d="M183.4320 189.1640
L183.5511 188.9735
" />
<path d="M183.5511 188.9735
L183.7535 188.8783
" />
<path d="M183.7535 188.8783
L184.1344 188.8783
" />
<path d="M184.1344 188.8783
L184.3130 188.9735
" />
<path d="M184.3130 188.9735
L184.3844 189.1640
" />
<path d="M184.3844 189.1640
L184.3606 189.3545
" />
<path d="M184.3606 189.3545
L183.3844 189.5450
" />
<path d="M185.1344 190.0212
L185.2177 190.1164
" />
<path d="M185.2177 190.1164
L185.1106 190.2116
" />
<path d="M185.1106 190.2116
L185.0273 190.1164
" />
<path d="M185.0273 190.1164
L185.1344 190.0212
" />
<path d="M185.1344 190.0212
L185.1106 190.2116
" />
<path d="M185.2654 188.9735
L185.3487 189.0688
" />
<path d="M185.3487 189.0688
L185.2415 189.1640
" />
<path d="M185.2415 189.1640
L185.1582 189.0688
" />
<path d="M185.1582 189.0688
L185.2654 188.9735
" />
<path d="M185.2654 188.9735
L185.2415 189.1640
" />
</g></g>
<g style="fill:none; 
stroke:#C872AB; stroke-width:0.1500; stroke-opacity:1; 
stroke-linecap:round; stroke-linejoin:round;">
<text x="178.0022" y="186.4572"
textLength="45.9357" font-size="2.0000" lengthAdjust="spacingAndGlyphs"
text-anchor="start" opacity="0" stroke-opacity="0">File: usb_c_traffic_light_board.kicad_pcb</text>
<g class="stroked-text"><desc>File: usb_c_traffic_light_board.kicad_pcb</desc>
<path d="M178.9580 185.6076
L178.4580 185.6076
" />
<path d="M178.4580 186.3933
L178.4580 184.8933
" />
<path d="M178.4580 184.8933
L179.1723 184.8933
" />
<path d="M179.7437 186.3933
L179.7437 185.3933
" />
<path d="M179.7437 184.8933
L179.6723 184.9648
" />
<path d="M179.6723 184.9648
L179.7437 185.0362
" />
<path d="M179.7437 185.0362
L179.8152 184.9648
" />
<path d="M179.8152 184.9648
L179.7437 184.8933
" />
<path d="M179.7437 184.8933
L179.7437 185.0362
" />
<path d="M180.6723 186.3933
L180.5295 186.3219
" />
<path d="M180.5295 186.3219
L180.4580 186.1790
" />
<path d="M180.4580 186.1790
L180.4580 184.8933
" />
<path d="M181.8152 186.3219
L181.6723 186.3933
" />
<path d="M181.6723 186.3933
L181.3866 186.3933
" />
<path d="M181.3866 186.3933
L181.2437 186.3219
" />
<path d="M181.2437 186.3219
L181.1723 186.1790
" />
<path d="M181.1723 186.1790
L181.1723 185.6076
" />
<path d="M181.1723 185.6076
L181.2437 185.4648
" />
<path d="M181.2437 185.4648
L181.3866 185.3933
" />
<path d="M181.3866 185.3933
L181.6723 185.3933
" />
<path d="M181.6723 185.3933
L181.8152 185.4648
" />
<path d="M181.8152 185.4648
L181.8866 185.6076
" />
<path d="M181.8866 185.6076
L181.8866 185.7505
" />
<path d="M181.8866 185.7505
L181.1723 185.8933
" />
<path d="M182.5295 186.2505
L182.6009 186.3219
" />
<path d="M182.6009 186.3219
L182.5295 186.3933
" />
<path d="M182.5295 186.3933
L182.4580 186.3219
" />
<path d="M182.4580 186.3219
L182.5295 186.2505
" />
<path d="M182.5295 186.2505
L182.5295 186.3933
" />
<path d="M182.5295 185.4648
L182.6009 185.5362
" />
<path d="M182.6009 185.5362
L182.5295 185.6076
" />
<path d="M182.5295 185.6076
L182.4580 185.5362
" />
<path d="M182.4580 185.5362
L182.5295 185.4648
" />
<path d="M182.5295 185.4648
L182.5295 185.6076
" />
<path d="M185.0295 185.3933
L185.0295 186.3933
" />
<path d="M184.3866 185.3933
L184.3866 186.1790
" />
<path d="M184.3866 186.1790
L184.4580 186.3219
" />
<path d="M184.4580 186.3219
L184.6009 186.3933
" />
<path d="M184.6009 186.3933
L184.8152 186.3933
" />
<path d="M184.8152 186.3933
L184.9580 186.3219
" />
<path d="M184.9580 186.3219
L185.0295 186.2505
" />
<path d="M185.6723 186.3219
L185.8152 186.3933
" />
<path d="M185.8152 186.3933
L186.1009 186.3933
" />
<path d="M186.1009 186.3933
L186.2437 186.3219
" />
<path d="M186.2437 186.3219
L186.3152 186.1790
" />
<path d="M186.3152 186.1790
L186.3152 186.1076
" />
<path d="M186.3152 186.1076
L186.2437 185.9648
" />
<path d="M186.2437 185.9648
L186.1009 185.8933
" />
<path d="M186.1009 185.8933
L185.8866 185.8933
" />
<path d="M185.8866 185.8933
L185.7437 185.8219
" />
<path d="M185.7437 185.8219
L185.6723 185.6790
" />
<path d="M185.6723 185.6790
L185.6723 185.6076
" />
<path d="M185.6723 185.6076
L185.7437 185.4648
" />
<path d="M185.7437 185.4648
L185.8866 185.3933
" />
<path d="M185.8866 185.3933
L186.1009 185.3933
" />
<path d="M186.1009 185.3933
L186.2437 185.4648
" />
<path d="M186.9580 186.3933
L186.9580 184.8933
" />
<path d="M186.9580 185.4648
L187.1009 185.3933
" />
<path d="M187.1009 185.3933
L187.3866 185.3933
" />
<path d="M187.3866 185.3933
L187.5295 185.4648
" />
<path d="M187.5295 185.4648
L187.6009 185.5362
" />
<path d="M187.6009 185.5362
L187.6723 185.6790
" />
<path d="M187.6723 185.6790
L187.6723 186.1076
" />
<path d="M187.6723 186.1076
L187.6009 186.2505
" />
<path d="M187.6009 186.2505
L187.5295 186.3219
" />
<path d="M187.5295 186.3219
L187.3866 186.3933
" />
<path d="M187.3866 186.3933
L187.1009 186.3933
" />
<path d="M187.1009 186.3933
L186.9580 186.3219
" />
<path d="M187.9580 186.5362
L189.1009 186.5362
" />
<path d="M190.1009 186.3219
L189.9580 186.3933
" />
<path d="M189.9580 186.3933
L189.6723 186.3933
" />
<path d="M189.6723 186.3933
L189.5295 186.3219
" />
<path d="M189.5295 186.3219
L189.4580 186.2505
" />
<path d="M189.4580 186.2505
L189.3866 186.1076
" />
<path d="M189.3866 186.1076
L189.3866 185.6790
" />
<path d="M189.3866 185.6790
L189.4580 185.5362
" />
<path d="M189.4580 185.5362
L189.5295 185.4648
" />
<path d="M189.5295 185.4648
L189.6723 185.3933
" />
<path d="M189.6723 185.3933
L189.9580 185.3933
" />
<path d="M189.9580 185.3933
L190.1009 185.4648
" />
<path d="M190.3866 186.5362
L191.5295 186.5362
" />
<path d="M191.6723 185.3933
L192.2437 185.3933
" />
<path d="M191.8866 184.8933
L191.8866 186.1790
" />
<path d="M191.8866 186.1790
L191.9580 186.3219
" />
<path d="M191.9580 186.3219
L192.1009 186.3933
" />
<path d="M192.1009 186.3933
L192.2437 186.3933
" />
<path d="M192.7437 186.3933
L192.7437 185.3933
" />
<path d="M192.7437 185.6790
L192.8152 185.5362
" />
<path d="M192.8152 185.5362
L192.8866 185.4648
" />
<path d="M192.8866 185.4648
L193.0295 185.3933
" />
<path d="M193.0295 185.3933
L193.1723 185.3933
" />
<path d="M194.3152 186.3933
L194.3152 185.6076
" />
<path d="M194.3152 185.6076
L194.2437 185.4648
" />
<path d="M194.2437 185.4648
L194.1009 185.3933
" />
<path d="M194.1009 185.3933
L193.8152 185.3933
" />
<path d="M193.8152 185.3933
L193.6723 185.4648
" />
<path d="M194.3152 186.3219
L194.1723 186.3933
" />
<path d="M194.1723 186.3933
L193.8152 186.3933
" />
<path d="M193.8152 186.3933
L193.6723 186.3219
" />
<path d="M193.6723 186.3219
L193.6009 186.1790
" />
<path d="M193.6009 186.1790
L193.6009 186.0362
" />
<path d="M193.6009 186.0362
L193.6723 185.8933
" />
<path d="M193.6723 185.8933
L193.8152 185.8219
" />
<path d="M193.8152 185.8219
L194.1723 185.8219
" />
<path d="M194.1723 185.8219
L194.3152 185.7505
" />
<path d="M194.8152 185.3933
L195.3866 185.3933
" />
<path d="M195.0295 186.3933
L195.0295 185.1076
" />
<path d="M195.0295 185.1076
L195.1009 184.9648
" />
<path d="M195.1009 184.9648
L195.2437 184.8933
" />
<path d="M195.2437 184.8933
L195.3866 184.8933
" />
<path d="M195.6723 185.3933
L196.2437 185.3933
" />
<path d="M195.8866 186.3933
L195.8866 185.1076
" />
<path d="M195.8866 185.1076
L195.9580 184.9648
" />
<path d="M195.9580 184.9648
L196.1009 184.8933
" />
<path d="M196.1009 184.8933
L196.2437 184.8933
" />
<path d="M196.7437 186.3933
L196.7437 185.3933
" />
<path d="M196.7437 184.8933
L196.6723 184.9648
" />
<path d="M196.6723 184.9648
L196.7437 185.0362
" />
<path d="M196.7437 185.0362
L196.8152 184.9648
" />
<path d="M196.8152 184.9648
L196.7437 184.8933
" />
<path d="M196.7437 184.8933
L196.7437 185.0362
" />
<path d="M198.1009 186.3219
L197.9580 186.3933
" />
<path d="M197.9580 186.3933
L197.6723 186.3933
" />
<path d="M197.6723 186.3933
L197.5295 186.3219
" />
<path d="M197.5295 186.3219
L197.4580 186.2505
" />
<path d="M197.4580 186.2505
L197.3866 186.1076
" />
<path d="M197.3866 186.1076
L197.3866 185.6790
" />
<path d="M197.3866 185.6790
L197.4580 185.5362
" />
<path d="M197.4580 185.5362
L197.5295 185.4648
" />
<path d="M197.5295 185.4648
L197.6723 185.3933
" />
<path d="M197.6723 185.3933
L197.9580 185.3933
" />
<path d="M197.9580 185.3933
L198.1009 185.4648
" />
<path d="M198.3866 186.5362
L199.5295 186.5362
" />
<path d="M200.1009 186.3933
L199.9580 186.3219
" />
<path d="M199.9580 186.3219
L199.8866 186.1790
" />
<path d="M199.8866 186.1790
L199.8866 184.8933
" />
<path d="M200.6723 186.3933
L200.6723 185.3933
" />
<path d="M200.6723 184.8933
L200.6009 184.9648
" />
<path d="M200.6009 184.9648
L200.6723 185.0362
" />
<path d="M200.6723 185.0362
L200.7437 184.9648
" />
<path d="M200.7437 184.9648
L200.6723 184.8933
" />
<path d="M200.6723 184.8933
L200.6723 185.0362
" />
<path d="M202.0295 185.3933
L202.0295 186.6076
" />
<path d="M202.0295 186.6076
L201.9580 186.7505
" />
<path d="M201.9580 186.7505
L201.8866 186.8219
" />
<path d="M201.8866 186.8219
L201.7437 186.8933
" />
<path d="M201.7437 186.8933
L201.5295 186.8933
" />
<path d="M201.5295 186.8933
L201.3866 186.8219
" />
<path d="M202.0295 186.3219
L201.8866 186.3933
" />
<path d="M201.8866 186.3933
L201.6009 186.3933
" />
<path d="M201.6009 186.3933
L201.4580 186.3219
" />
<path d="M201.4580 186.3219
L201.3866 186.2505
" />
<path d="M201.3866 186.2505
L201.3152 186.1076
" />
<path d="M201.3152 186.1076
L201.3152 185.6790
" />
<path d="M201.3152 185.6790
L201.3866 185.5362
" />
<path d="M201.3866 185.5362
L201.4580 185.4648
" />
<path d="M201.4580 185.4648
L201.6009 185.3933
" />
<path d="M201.6009 185.3933
L201.8866 185.3933
" />
<path d="M201.8866 185.3933
L202.0295 185.4648
" />
<path d="M202.7437 186.3933
L202.7437 184.8933
" />
<path d="M203.3866 186.3933
L203.3866 185.6076
" />
<path d="M203.3866 185.6076
L203.3152 185.4648
" />
<path d="M203.3152 185.4648
L203.1723 185.3933
" />
<path d="M203.1723 185.3933
L202.9580 185.3933
" />
<path d="M202.9580 185.3933
L202.8152 185.4648
" />
<path d="M202.8152 185.4648
L202.7437 185.5362
" />
<path d="M203.8866 185.3933
L204.4580 185.3933
" />
<path d="M204.1009 184.8933
L204.1009 186.1790
" />
<path d="M204.1009 186.1790
L204.1723 186.3219
" />
<path d="M204.1723 186.3219
L204.3152 186.3933
" />
<path d="M204.3152 186.3933
L204.4580 186.3933
" />
<path d="M204.6009 186.5362
L205.7437 186.5362
" />
<path d="M206.1009 186.3933
L206.1009 184.8933
" />
<path d="M206.1009 185.4648
L206.2437 185.3933
" />
<path d="M206.2437 185.3933
L206.5295 185.3933
" />
<path d="M206.5295 185.3933
L206.6723 185.4648
" />
<path d="M206.6723 185.4648
L206.7437 185.5362
" />
<path d="M206.7437 185.5362
L206.8152 185.6790
" />
<path d="M206.8152 185.6790
L206.8152 186.1076
" />
<path d="M206.8152 186.1076
L206.7437 186.2505
" />
<path d="M206.7437 186.2505
L206.6723 186.3219
" />
<path d="M206.6723 186.3219
L206.5295 186.3933
" />
<path d="M206.5295 186.3933
L206.2437 186.3933
" />
<path d="M206.2437 186.3933
L206.1009 186.3219
" />
<path d="M207.6723 186.3933
L207.5295 186.3219
" />
<path d="M207.5295 186.3219
L207.4580 186.2505
" />
<path d="M207.4580 186.2505
L207.3866 186.1076
" />
<path d="M207.3866 186.1076
L207.3866 185.6790
" />
<path d="M207.3866 185.6790
L207.4580 185.5362
" />
<path d="M207.4580 185.5362
L207.5295 185.4648
" />
<path d="M207.5295 185.4648
L207.6723 185.3933
" />
<path d="M207.6723 185.3933
L207.8866 185.3933
" />
<path d="M207.8866 185.3933
L208.0295 185.4648
" />
<path d="M208.0295 185.4648
L208.1009 185.5362
" />
<path d="M208.1009 185.5362
L208.1723 185.6790
" />
<path d="M208.1723 185.6790
L208.1723 186.1076
" />
<path d="M208.1723 186.1076
L208.1009 186.2505
" />
<path d="M208.1009 186.2505
L208.0295 186.3219
" />
<path d="M208.0295 186.3219
L207.8866 186.3933
" />
<path d="M207.8866 186.3933
L207.6723 186.3933
" />
<path d="M209.4580 186.3933
L209.4580 185.6076
" />
<path d="M209.4580 185.6076
L209.3866 185.4648
" />
<path d="M209.3866 185.4648
L209.2437 185.3933
" />
<path d="M209.2437 185.3933
L208.9580 185.3933
" />
<path d="M208.9580 185.3933
L208.8152 185.4648
" />
<path d="M209.4580 186.3219
L209.3152 186.3933
" />
<path d="M209.3152 186.3933
L208.9580 186.3933
" />
<path d="M208.9580 186.3933
L208.8152 186.3219
" />
<path d="M208.8152 186.3219
L208.7437 186.1790
" />
<path d="M208.7437 186.1790
L208.7437 186.0362
" />
<path d="M208.7437 186.0362
L208.8152 185.8933
" />
<path d="M208.8152 185.8933
L208.9580 185.8219
" />
<path d="M208.9580 185.8219
L209.3152 185.8219
" />
<path d="M209.3152 185.8219
L209.4580 185.7505
" />
<path d="M210.1723 186.3933
L210.1723 185.3933
" />
<path d="M210.1723 185.6790
L210.2437 185.5362
" />
<path d="M210.2437 185.5362
L210.3152 185.4648
" />
<path d="M210.3152 185.4648
L210.4580 185.3933
" />
<path d="M210.4580 185.3933
L210.6009 185.3933
" />
<path d="M211.7437 186.3933
L211.7437 184.8933
" />
<path d="M211.7437 186.3219
L211.6009 186.3933
" />
<path d="M211.6009 186.3933
L211.3152 186.3933
" />
<path d="M211.3152 186.3933
L211.1723 186.3219
" />
<path d="M211.1723 186.3219
L211.1009 186.2505
" />
<path d="M211.1009 186.2505
L211.0295 186.1076
" />
<path d="M211.0295 186.1076
L211.0295 185.6790
" />
<path d="M211.0295 185.6790
L211.1009 185.5362
" />
<path d="M211.1009 185.5362
L211.1723 185.4648
" />
<path d="M211.1723 185.4648
L211.3152 185.3933
" />
<path d="M211.3152 185.3933
L211.6009 185.3933
" />
<path d="M211.6009 185.3933
L211.7437 185.4648
" />
<path d="M212.4580 186.2505
L212.5295 186.3219
" />
<path d="M212.5295 186.3219
L212.4580 186.3933
" />
<path d="M212.4580 186.3933
L212.3866 186.3219
" />
<path d="M212.3866 186.3219
L212.4580 186.2505
" />
<path d="M212.4580 186.2505
L212.4580 186.3933
" />
<path d="M213.1723 186.3933
L213.1723 184.8933
" />
<path d="M213.3152 185.8219
L213.7437 186.3933
" />
<path d="M213.7437 185.3933
L213.1723 185.9648
" />
<path d="M214.3866 186.3933
L214.3866 185.3933
" />
<path d="M214.3866 184.8933
L214.3152 184.9648
" />
<path d="M214.3152 184.9648
L214.3866 185.0362
" />
<path d="M214.3866 185.0362
L214.4580 184.9648
" />
<path d="M214.4580 184.9648
L214.3866 184.8933
" />
<path d="M214.3866 184.8933
L214.3866 185.0362
" />
<path d="M215.7437 186.3219
L215.6009 186.3933
" />
<path d="M215.6009 186.3933
L215.3152 186.3933
" />
<path d="M215.3152 186.3933
L215.1723 186.3219
" />
<path d="M215.1723 186.3219
L215.1009 186.2505
" />
<path d="M215.1009 186.2505
L215.0295 186.1076
" />
<path d="M215.0295 186.1076
L215.0295 185.6790
" />
<path d="M215.0295 185.6790
L215.1009 185.5362
" />
<path d="M215.1009 185.5362
L215.1723 185.4648
" />
<path d="M215.1723 185.4648
L215.3152 185.3933
" />
<path d="M215.3152 185.3933
L215.6009 185.3933
" />
<path d="M215.6009 185.3933
L215.7437 185.4648
" />
<path d="M217.0295 186.3933
L217.0295 185.6076
" />
<path d="M217.0295 185.6076
L216.9580 185.4648
" />
<path d="M216.9580 185.4648
L216.8152 185.3933
" />
<path d="M216.8152 185.3933
L216.5295 185.3933
" />
<path d="M216.5295 185.3933
L216.3866 185.4648
" />
<path d="M217.0295 186.3219
L216.8866 186.3933
" />
<path d="M216.8866 186.3933
L216.5295 186.3933
" />
<path d="M216.5295 186.3933
L216.3866 186.3219
" />
<path d="M216.3866 186.3219
L216.3152 186.1790
" />
<path d="M216.3152 186.1790
L216.3152 186.0362
" />
<path d="M216.3152 186.0362
L216.3866 185.8933
" />
<path d="M216.3866 185.8933
L216.5295 185.8219
" />
<path d="M216.5295 185.8219
L216.8866 185.8219
" />
<path d="M216.8866 185.8219
L217.0295 185.7505
" />
<path d="M218.3866 186.3933
L218.3866 184.8933
" />
<path d="M218.3866 186.3219
L218.2437 186.3933
" />
<path d="M218.2437 186.3933
L217.9580 186.3933
" />
<path d="M217.9580 186.3933
L217.8152 186.3219
" />
<path d="M217.8152 186.3219
L217.7437 186.2505
" />
<path d="M217.7437 186.2505
L217.6723 186.1076
" />
<path d="M217.6723 186.1076
L217.6723 185.6790
" />
<path d="M217.6723 185.6790
L217.7437 185.5362
" />
<path d="M217.7437 185.5362
L217.8152 185.4648
" />
<path d="M217.8152 185.4648
L217.9580 185.3933
" />
<path d="M217.9580 185.3933
L218.2437 185.3933
" />
<path d="M218.2437 185.3933
L218.3866 185.4648
" />
<path d="M218.7437 186.5362
L219.8866 186.5362
" />
<path d="M220.2437 185.3933
L220.2437 186.8933
" />
<path d="M220.2437 185.4648
L220.3866 185.3933
" />
<path d="M220.3866 185.3933
L220.6723 185.3933
" />
<path d="M220.6723 185.3933
L220.8152 185.4648
" />
<path d="M220.8152 185.4648
L220.8866 185.5362
" />
<path d="M220.8866 185.5362
L220.9580 185.6790
" />
<path d="M220.9580 185.6790
L220.9580 186.1076
" />
<path d="M220.9580 186.1076
L220.8866 186.2505
" />
<path d="M220.8866 186.2505
L220.8152 186.3219
" />
<path d="M220.8152 186.3219
L220.6723 186.3933
" />
<path d="M220.6723 186.3933
L220.3866 186.3933
" />
<path d="M220.3866 186.3933
L220.2437 186.3219
" />
<path d="M222.2437 186.3219
L222.1009 186.3933
" />
<path d="M222.1009 186.3933
L221.8152 186.3933
" />
<path d="M221.8152 186.3933
L221.6723 186.3219
" />
<path d="M221.6723 186.3219
L221.6009 186.2505
" />
<path d="M221.6009 186.2505
L221.5295 186.1076
" />
<path d="M221.5295 186.1076
L221.5295 185.6790
" />
<path d="M221.5295 185.6790
L221.6009 185.5362
" />
<path d="M221.6009 185.5362
L221.6723 185.4648
" />
<path d="M221.6723 185.4648
L221.8152 185.3933
" />
<path d="M221.8152 185.3933
L222.1009 185.3933
" />
<path d="M222.1009 185.3933
L222.2437 185.4648
" />
<path d="M222.8866 186.3933
L222.8866 184.8933
" />
<path d="M222.8866 185.4648
L223.0295 185.3933
" />
<path d="M223.0295 185.3933
L223.3152 185.3933
" />
<path d="M223.3152 185.3933
L223.4580 185.4648
" />
<path d="M223.4580 185.4648
L223.5295 185.5362
" />
<path d="M223.5295 185.5362
L223.6009 185.6790
" />
<path d="M223.6009 185.6790
L223.6009 186.1076
" />
<path d="M223.6009 186.1076
L223.5295 186.2505
" />
<path d="M223.5295 186.2505
L223.4580 186.3219
" />
<path d="M223.4580 186.3219
L223.3152 186.3933
" />
<path d="M223.3152 186.3933
L223.0295 186.3933
" />
<path d="M223.0295 186.3933
L222.8866 186.3219
" />
</g><path d="M177.0022 181.5072
L285.0022 181.5072
" />
<text x="178.0022" y="183.7572"
textLength="8.2214" font-size="2.0000" lengthAdjust="spacingAndGlyphs"
text-anchor="start" opacity="0" stroke-opacity="0">Sheet: </text>
<g class="stroked-text"><desc>Sheet: </desc>
<path d="M178.3866 183.6219
L178.6009 183.6933
" />
<path d="M178.6009 183.6933
L178.9580 183.6933
" />
<path d="M178.9580 183.6933
L179.1009 183.6219
" />
<path d="M179.1009 183.6219
L179.1723 183.5505
" />
<path d="M179.1723 183.5505
L179.2437 183.4076
" />
<path d="M179.2437 183.4076
L179.2437 183.2648
" />
<path d="M179.2437 183.2648
L179.1723 183.1219
" />
<path d="M179.1723 183.1219
L179.1009 183.0505
" />
<path d="M179.1009 183.0505
L178.9580 182.9790
" />
<path d="M178.9580 182.9790
L178.6723 182.9076
" />
<path d="M178.6723 182.9076
L178.5295 182.8362
" />
<path d="M178.5295 182.8362
L178.4580 182.7648
" />
<path d="M178.4580 182.7648
L178.3866 182.6219
" />
<path d="M178.3866 182.6219
L178.3866 182.4790
" />
<path d="M178.3866 182.4790
L178.4580 182.3362
" />
<path d="M178.4580 182.3362
L178.5295 182.2648
" />
<path d="M178.5295 182.2648
L178.6723 182.1933
" />
<path d="M178.6723 182.1933
L179.0295 182.1933
" />
<path d="M179.0295 182.1933
L179.2437 182.2648
" />
<path d="M179.8866 183.6933
L179.8866 182.1933
" />
<path d="M180.5295 183.6933
L180.5295 182.9076
" />
<path d="M180.5295 182.9076
L180.4580 182.7648
" />
<path d="M180.4580 182.7648
L180.3152 182.6933
" />
<path d="M180.3152 182.6933
L180.1009 182.6933
" />
<path d="M180.1009 182.6933
L179.9580 182.7648
" />
<path d="M179.9580 182.7648
L179.8866 182.8362
" />
<path d="M181.8152 183.6219
L181.6723 183.6933
" />
<path d="M181.6723 183.6933
L181.3866 183.6933
" />
<path d="M181.3866 183.6933
L181.2437 183.6219
" />
<path d="M181.2437 183.6219
L181.1723 183.4790
" />
<path d="M181.1723 183.4790
L181.1723 182.9076
" />
<path d="M181.1723 182.9076
L181.2437 182.7648
" />
<path d="M181.2437 182.7648
L181.3866 182.6933
" />
<path d="M181.3866 182.6933
L181.6723 182.6933
" />
<path d="M181.6723 182.6933
L181.8152 182.7648
" />
<path d="M181.8152 182.7648
L181.8866 182.9076
" />
<path d="M181.8866 182.9076
L181.8866 183.0505
" />
<path d="M181.8866 183.0505
L181.1723 183.1933
" />
<path d="M183.1009 183.6219
L182.9580 183.6933
" />
<path d="M182.9580 183.6933
L182.6723 183.6933
" />
<path d="M182.6723 183.6933
L182.5295 183.6219
" />
<path d="M182.5295 183.6219
L182.4580 183.4790
" />
<path d="M182.4580 183.4790
L182.4580 182.9076
" />
<path d="M182.4580 182.9076
L182.5295 182.7648
" />
<path d="M182.5295 182.7648
L182.6723 182.6933
" />
<path d="M182.6723 182.6933
L182.9580 182.6933
" />
<path d="M182.9580 182.6933
L183.1009 182.7648
" />
<path d="M183.1009 182.7648
L183.1723 182.9076
" />
<path d="M183.1723 182.9076
L183.1723 183.0505
" />
<path d="M183.1723 183.0505
L182.4580 183.1933
" />
<path d="M183.6009 182.6933
L184.1723 182.6933
" />
<path d="M183.8152 182.1933
L183.8152 183.4790
" />
<path d="M183.8152 183.4790
L183.8866 183.6219
" />
<path d="M183.8866 183.6219
L184.0295 183.6933
" />
<path d="M184.0295 183.6933
L184.1723 183.6933
" />
<path d="M184.6723 183.5505
L184.7437 183.6219
" />
<path d="M184.7437 183.6219
L184.6723 183.6933
" />
<path d="M184.6723 183.6933
L184.6009 183.6219
" />
<path d="M184.6009 183.6219
L184.6723 183.5505
" />
<path d="M184.6723 183.5505
L184.6723 183.6933
" />
<path d="M184.6723 182.7648
L184.7437 182.8362
" />
<path d="M184.7437 182.8362
L184.6723 182.9076
" />
<path d="M184.6723 182.9076
L184.6009 182.8362
" />
<path d="M184.6009 182.8362
L184.6723 182.7648
" />
<path d="M184.6723 182.7648
L184.6723 182.9076
" />
</g></g>
<g style="fill:none; 
stroke:#C872AB; stroke-width:0.3000; stroke-opacity:1; 
stroke-linecap:round; stroke-linejoin:round;">
<text x="178.0022" y="180.7572"
textLength="0.9000" font-size="2.0000" lengthAdjust="spacingAndGlyphs"
text-anchor="start" opacity="0" stroke-opacity="0"></text>
<g class="stroked-text"><desc></desc>
</g></g>
<g style="fill:none; 
stroke:#C872AB; stroke-width:0.1500; stroke-opacity:1; 
stroke-linecap:round; stroke-linejoin:round;">
<text x="178.0022" y="177.7572"
textLength="0.4500" font-size="2.0000" lengthAdjust="spacingAndGlyphs"
text-anchor="start" opacity="0" stroke-opacity="0"></text>
<g class="stroked-text"><desc></desc>
</g><text x="178.0022" y="174.7572"
textLength="0.4500" font-size="2.0000" lengthAdjust="spacingAndGlyphs"
text-anchor="start" opacity="0" stroke-opacity="0"></text>
<g class="stroked-text"><desc></desc>
</g><text x="178.0022" y="171.7572"
textLength="0.4500" font-size="2.0000" lengthAdjust="spacingAndGlyphs"
text-anchor="start" opacity="0" stroke-opacity="0"></text>
<g class="stroked-text"><desc></desc>
</g><text x="178.0022" y="168.7572"
textLength="0.4500" font-size="2.0000" lengthAdjust="spacingAndGlyphs"
text-anchor="start" opacity="0" stroke-opacity="0"></text>
<g class="stroked-text"><desc></desc>
</g><path d="M197.0022 191.5072
L197.0022 194.5072
" />
<path d="M261.0022 191.5072
L261.0022 198.0072
" />
<path style="fill:#C83434; fill-opacity:1.0000; stroke:none;fill-rule:evenodd;"
d="M 152.2250,106.7250
152.1485,106.7098
152.0836,106.6664
152.0402,106.6015
152.0250,106.5250
152.0250,106.1250
152.0402,106.0485
152.0836,105.9836
152.1485,105.9402
152.2250,105.9250
152.7750,105.9250
152.8515,105.9402
152.9164,105.9836
152.9598,106.0485
152.9750,106.1250
152.9750,106.5250
152.9598,106.6015
152.9164,106.6664
152.8515,106.7098
152.7750,106.7250
Z" /> 
<path style="fill:#C83434; fill-opacity:1.0000; stroke:none;fill-rule:evenodd;"
d="M 152.2250,105.0750
152.1485,105.0598
152.0836,105.0164
152.0402,104.9515
152.0250,104.8750
152.0250,104.4750
152.0402,104.3985
152.0836,104.3336
152.1485,104.2902
152.2250,104.2750
152.7750,104.2750
152.8515,104.2902
152.9164,104.3336
152.9598,104.3985
152.9750,104.4750
152.9750,104.8750
152.9598,104.9515
152.9164,105.0164
152.8515,105.0598
152.7750,105.0750
Z" /> 
<path style="fill:#C83434; fill-opacity:1.0000; stroke:none;fill-rule:evenodd;"
d="M 143.7500,120.2250
143.6639,120.2079
143.5909,120.1591
143.5421,120.0861
143.5250,120.0000
143.5250,119.5500
143.5421,119.4639
143.5909,119.3909
143.6639,119.3421
143.7500,119.3250
144.2500,119.3250
144.3361,119.3421
144.4091,119.3909
144.4579,119.4639
144.4750,119.5500
144.4750,120.0000
144.4579,120.0861
144.4091,120.1591
144.3361,120.2079
144.2500,120.2250
Z" /> 
<path style="fill:#C83434; fill-opacity:1.0000; stroke:none;fill-rule:evenodd;"
d="M 143.7500,118.6750
143.6639,118.6579
143.5909,118.6091
143.5421,118.5361
143.5250,118.4500
143.5250,118.0000
143.5421,117.9139
143.5909,117.8409
143.6639,117.7921
143.7500,117.7750
144.2500,117.7750
144.3361,117.7921
144.4091,117.8409
144.4579,117.9139
144.4750,118.0000
144.4750,118.4500
144.4579,118.5361
144.4091,118.6091
144.3361,118.6579
144.2500,118.6750
Z" /> 
<path style="fill:#C83434; fill-opacity:1.0000; stroke:none;fill-rule:evenodd;"
d="M 152.2250,127.7250
152.1485,127.7098
152.0836,127.6664
152.0402,127.6015
152.0250,127.5250
152.0250,127.1250
152.0402,127.0485
152.0836,126.9836
152.1485,126.9402
152.2250,126.9250
152.7750,126.9250
152.8515,126.9402
152.9164,126.9836
152.9598,127.0485
152.9750,127.1250
152.9750,127.5250
152.9598,127.6015
152.9164,127.6664
152.8515,127.7098
152.7750,127.7250
Z" /> 
<path style="fill:#C83434; fill-opacity:1.0000; stroke:none;fill-rule:evenodd;"
d="M 152.2250,126.0750
152.1485,126.0598
152.0836,126.0164
152.0402,125.9515
152.0250,125.8750
152.0250,125.4750
152.0402,125.3985
152.0836,125.3336
152.1485,125.2902
152.2250,125.2750
152.7750,125.2750
152.8515,125.2902
152.9164,125.3336
152.9598,125.3985
152.9750,125.4750
152.9750,125.8750
152.9598,125.9515
152.9164,126.0164
152.8515,126.0598
152.7750,126.0750
Z" /> 
<path style="fill:#C83434; fill-opacity:1.0000; stroke:none;fill-rule:evenodd;"
d="M 152.2250,84.7250
152.1485,84.7098
152.0836,84.6664
152.0402,84.6015
152.0250,84.5250
152.0250,84.1250
152.0402,84.0485
152.0836,83.9836
152.1485,83.9402
152.2250,83.9250
152.7750,83.9250
152.8515,83.9402
152.9164,83.9836
152.9598,84.0485
152.9750,84.1250
152.9750,84.5250
152.9598,84.6015
152.9164,84.6664
152.8515,84.7098
152.7750,84.7250
Z" /> 
<path style="fill:#C83434; fill-opacity:1.0000; stroke:none;fill-rule:evenodd;"
d="M 152.2250,83.0750
152.1485,83.0598
152.0836,83.0164
152.0402,82.9515
152.0250,82.8750
152.0250,82.4750
152.0402,82.3985
152.0836,82.3336
152.1485,82.2902
152.2250,82.2750
152.7750,82.2750
152.8515,82.2902
152.9164,82.3336
152.9598,82.3985
152.9750,82.4750
152.9750,82.8750
152.9598,82.9515
152.9164,83.0164
152.8515,83.0598
152.7750,83.0750
Z" /> 
<path style="fill:#C83434; fill-opacity:1.0000; stroke:none;fill-rule:evenodd;"
d="M 151.4250,112.2250
151.3485,112.2098
151.2836,112.1664
151.2402,112.1015
151.2250,112.0250
151.2250,111.6250
151.2402,111.5485
151.2836,111.4836
151.3485,111.4402
151.4250,111.4250
151.9750,111.4250
152.0515,111.4402
152.1164,111.4836
152.1598,111.5485
152.1750,111.6250
152.1750,112.0250
152.1598,112.1015
152.1164,112.1664
152.0515,112.2098
151.9750,112.2250
Z" /> 
<path style="fill:#C83434; fill-opacity:1.0000; stroke:none;fill-rule:evenodd;"
d="M 151.4250,110.5750
151.3485,110.5598
151.2836,110.5164
151.2402,110.4515
151.2250,110.3750
151.2250,109.9750
151.2402,109.8985
151.2836,109.8336
151.3485,109.7902
151.4250,109.7750
151.9750,109.7750
152.0515,109.7902
152.1164,109.8336
152.1598,109.8985
152.1750,109.9750
152.1750,110.3750
152.1598,110.4515
152.1164,110.5164
152.0515,110.5598
151.9750,110.5750
Z" /> 
<path style="fill:#C83434; fill-opacity:1.0000; stroke:none;fill-rule:evenodd;"
d="M 147.8750,85.5250
147.7793,85.5060
147.6982,85.4518
147.6440,85.3707
147.6250,85.2750
147.6250,84.5250
147.6440,84.4293
147.6982,84.3482
147.7793,84.2940
147.8750,84.2750
149.1250,84.2750
149.2207,84.2940
149.3018,84.3482
149.3560,84.4293
149.3750,84.5250
149.3750,85.2750
149.3560,85.3707
149.3018,85.4518
149.2207,85.5060
149.1250,85.5250
Z" /> 
<path style="fill:#C83434; fill-opacity:1.0000; stroke:none;fill-rule:evenodd;"
d="M 147.8750,82.7250
147.7793,82.7060
147.6982,82.6518
147.6440,82.5707
147.6250,82.4750
147.6250,81.7250
147.6440,81.6293
147.6982,81.5482
147.7793,81.4940
147.8750,81.4750
149.1250,81.4750
149.2207,81.4940
149.3018,81.5482
149.3560,81.6293
149.3750,81.7250
149.3750,82.4750
149.3560,82.5707
149.3018,82.6518
149.2207,82.7060
149.1250,82.7250
Z" /> 
<path style="fill:#C83434; fill-opacity:1.0000; stroke:none;fill-rule:evenodd;"
d="M 152.5250,123.9500
152.4293,123.9310
152.3482,123.8768
152.2940,123.7957
152.2750,123.7000
152.2750,123.2000
152.2940,123.1043
152.3482,123.0232
152.4293,122.9690
152.5250,122.9500
153.4750,122.9500
153.5707,122.9690
153.6518,123.0232
153.7060,123.1043
153.7250,123.2000
153.7250,123.7000
153.7060,123.7957
153.6518,123.8768
153.5707,123.9310
153.4750,123.9500
Z" /> 
<path style="fill:#C83434; fill-opacity:1.0000; stroke:none;fill-rule:evenodd;"
d="M 152.5250,122.0500
152.4293,122.0310
152.3482,121.9768
152.2940,121.8957
152.2750,121.8000
152.2750,121.3000
152.2940,121.2043
152.3482,121.1232
152.4293,121.0690
152.5250,121.0500
153.4750,121.0500
153.5707,121.0690
153.6518,121.1232
153.7060,121.2043
153.7250,121.3000
153.7250,121.8000
153.7060,121.8957
153.6518,121.9768
153.5707,122.0310
153.4750,122.0500
Z" /> 
<path style="fill:#C83434; fill-opacity:1.0000; stroke:none;fill-rule:evenodd;"
d="M 147.8750,128.5250
147.7793,128.5060
147.6982,128.4518
147.6440,128.3707
147.6250,128.2750
147.6250,127.5250
147.6440,127.4293
147.6982,127.3482
147.7793,127.2940
147.8750,127.2750
149.1250,127.2750
149.2207,127.2940
149.3018,127.3482
149.3560,127.4293
149.3750,127.5250
149.3750,128.2750
149.3560,128.3707
149.3018,128.4518
149.2207,128.5060
149.1250,128.5250
Z" /> 
<path style="fill:#C83434; fill-opacity:1.0000; stroke:none;fill-rule:evenodd;"
d="M 147.8750,125.7250
147.7793,125.7060
147.6982,125.6518
147.6440,125.5707
147.6250,125.4750
147.6250,124.7250
147.6440,124.6293
147.6982,124.5482
147.7793,124.4940
147.8750,124.4750
149.1250,124.4750
149.2207,124.4940
149.3018,124.5482
149.3560,124.6293
149.3750,124.7250
149.3750,125.4750
149.3560,125.5707
149.3018,125.6518
149.2207,125.7060
149.1250,125.7250
Z" /> 
<path style="fill:#C83434; fill-opacity:1.0000; stroke:none;fill-rule:evenodd;"
d="M 153.0250,112.2250
152.9485,112.2098
152.8836,112.1664
152.8402,112.1015
152.8250,112.0250
152.8250,111.6250
152.8402,111.5485
152.8836,111.4836
152.9485,111.4402
153.0250,111.4250
153.5750,111.4250
153.6515,111.4402
153.7164,111.4836
153.7598,111.5485
153.7750,111.6250
153.7750,112.0250
153.7598,112.1015
153.7164,112.1664
153.6515,112.2098
153.5750,112.2250
Z" /> 
<path style="fill:#C83434; fill-opacity:1.0000; stroke:none;fill-rule:evenodd;"
d="M 153.0250,110.5750
152.9485,110.5598
152.8836,110.5164
152.8402,110.4515
152.8250,110.3750
152.8250,109.9750
152.8402,109.8985
152.8836,109.8336
152.9485,109.7902
153.0250,109.7750
153.5750,109.7750
153.6515,109.7902
153.7164,109.8336
153.7598,109.8985
153.7750,109.9750
153.7750,110.3750
153.7598,110.4515
153.7164,110.5164
153.6515,110.5598
153.5750,110.5750
Z" /> 
<path style="fill:#C83434; fill-opacity:1.0000; stroke:none;fill-rule:evenodd;"
d="M 145.1250,112.2250
145.0485,112.2098
144.9836,112.1664
144.9402,112.1015
144.9250,112.0250
144.9250,111.6250
144.9402,111.5485
144.9836,111.4836
145.0485,111.4402
145.1250,111.4250
145.6750,111.4250
145.7515,111.4402
145.8164,111.4836
145.8598,111.5485
145.8750,111.6250
145.8750,112.0250
145.8598,112.1015
145.8164,112.1664
145.7515,112.2098
145.6750,112.2250
Z" /> 
<path style="fill:#C83434; fill-opacity:1.0000; stroke:none;fill-rule:evenodd;"
d="M 145.1250,110.5750
145.0485,110.5598
144.9836,110.5164
144.9402,110.4515
144.9250,110.3750
144.9250,109.9750
144.9402,109.8985
144.9836,109.8336
145.0485,109.7902
145.1250,109.7750
145.6750,109.7750
145.7515,109.7902
145.8164,109.8336
145.8598,109.8985
145.8750,109.9750
145.8750,110.3750
145.8598,110.4515
145.8164,110.5164
145.7515,110.5598
145.6750,110.5750
Z" /> 
<path style="fill:#C83434; fill-opacity:1.0000; stroke:none;fill-rule:evenodd;"
d="M 152.7500,120.2250
152.6639,120.2079
152.5909,120.1591
152.5421,120.0861
152.5250,120.0000
152.5250,119.5500
152.5421,119.4639
152.5909,119.3909
152.6639,119.3421
152.7500,119.3250
153.2500,119.3250
153.3361,119.3421
153.4091,119.3909
153.4579,119.4639
153.4750,119.5500
153.4750,120.0000
153.4579,120.0861
153.4091,120.1591
153.3361,120.2079
153.2500,120.2250
Z" /> 
<path style="fill:#C83434; fill-opacity:1.0000; stroke:none;fill-rule:evenodd;"
d="M 152.7500,118.6750
152.6639,118.6579
152.5909,118.6091
152.5421,118.5361
152.5250,118.4500
152.5250,118.0000
152.5421,117.9139
152.5909,117.8409
152.6639,117.7921
152.7500,117.7750
153.2500,117.7750
153.3361,117.7921
153.4091,117.8409
153.4579,117.9139
153.4750,118.0000
153.4750,118.4500
153.4579,118.5361
153.4091,118.6091
153.3361,118.6579
153.2500,118.6750
Z" /> 
<path style="fill:#C83434; fill-opacity:1.0000; stroke:none;fill-rule:evenodd;"
d="M 147.8750,107.5250
147.7793,107.5060
147.6982,107.4518
147.6440,107.3707
147.6250,107.2750
147.6250,106.5250
147.6440,106.4293
147.6982,106.3482
147.7793,106.2940
147.8750,106.2750
149.1250,106.2750
149.2207,106.2940
149.3018,106.3482
149.3560,106.4293
149.3750,106.5250
149.3750,107.2750
149.3560,107.3707
149.3018,107.4518
149.2207,107.5060
149.1250,107.5250
Z" /> 
<path style="fill:#C83434; fill-opacity:1.0000; stroke:none;fill-rule:evenodd;"
d="M 147.8750,104.7250
147.7793,104.7060
147.6982,104.6518
147.6440,104.5707
147.6250,104.4750
147.6250,103.7250
147.6440,103.6293
147.6982,103.5482
147.7793,103.4940
147.8750,103.4750
149.1250,103.4750
149.2207,103.4940
149.3018,103.5482
149.3560,103.6293
149.3750,103.7250
149.3750,104.4750
149.3560,104.5707
149.3018,104.6518
149.2207,104.7060
149.1250,104.7250
Z" /> 
<path style="fill:#C83434; fill-opacity:1.0000; stroke:none;fill-rule:evenodd;"
d="M 143.6250,112.2250
143.5485,112.2098
143.4836,112.1664
143.4402,112.1015
143.4250,112.0250
143.4250,111.6250
143.4402,111.5485
143.4836,111.4836
143.5485,111.4402
143.6250,111.4250
144.1750,111.4250
144.2515,111.4402
144.3164,111.4836
144.3598,111.5485
144.3750,111.6250
144.3750,112.0250
144.3598,112.1015
144.3164,112.1664
144.2515,112.2098
144.1750,112.2250
Z" /> 
<path style="fill:#C83434; fill-opacity:1.0000; stroke:none;fill-rule:evenodd;"
d="M 143.6250,110.5750
143.5485,110.5598
143.4836,110.5164
143.4402,110.4515
143.4250,110.3750
143.4250,109.9750
143.4402,109.8985
143.4836,109.8336
143.5485,109.7902
143.6250,109.7750
144.1750,109.7750
144.2515,109.7902
144.3164,109.8336
144.3598,109.8985
144.3750,109.9750
144.3750,110.3750
144.3598,110.4515
144.3164,110.5164
144.2515,110.5598
144.1750,110.5750
Z" /> 
<path style="fill:#C83434; fill-opacity:1.0000; stroke:none;fill-rule:evenodd;"
d="M 145.0500,110.9050
145.0614,110.8476
145.0939,110.7989
145.1426,110.7664
145.2000,110.7550
146.8500,110.7550
146.9074,110.7664
146.9561,110.7989
146.9886,110.8476
147.0000,110.9050
147.0000,111.2050
146.9886,111.2624
146.9561,111.3111
146.9074,111.3436
146.8500,111.3550
145.2000,111.3550
145.1426,111.3436
145.0939,111.3111
145.0614,111.2624
145.0500,111.2050
Z" /> 
<path style="fill:#C83434; fill-opacity:1.0000; stroke:none;fill-rule:evenodd;"
d="M 145.0500,112.1750
145.0614,112.1176
145.0939,112.0689
145.1426,112.0364
145.2000,112.0250
146.8500,112.0250
146.9074,112.0364
146.9561,112.0689
146.9886,112.1176
147.0000,112.1750
147.0000,112.4750
146.9886,112.5324
146.9561,112.5811
146.9074,112.6136
146.8500,112.6250
145.2000,112.6250
145.1426,112.6136
145.0939,112.5811
145.0614,112.5324
145.0500,112.4750
Z" /> 
<path style="fill:#C83434; fill-opacity:1.0000; stroke:none;fill-rule:evenodd;"
d="M 145.0500,113.4450
145.0614,113.3876
145.0939,113.3389
145.1426,113.3064
145.2000,113.2950
146.8500,113.2950
146.9074,113.3064
146.9561,113.3389
146.9886,113.3876
147.0000,113.4450
147.0000,113.7450
146.9886,113.8024
146.9561,113.8511
146.9074,113.8836
146.8500,113.8950
145.2000,113.8950
145.1426,113.8836
145.0939,113.8511
145.0614,113.8024
145.0500,113.7450
Z" /> 
<path style="fill:#C83434; fill-opacity:1.0000; stroke:none;fill-rule:evenodd;"
d="M 145.0500,114.7150
145.0614,114.6576
145.0939,114.6089
145.1426,114.5764
145.2000,114.5650
146.8500,114.5650
146.9074,114.5764
146.9561,114.6089
146.9886,114.6576
147.0000,114.7150
147.0000,115.0150
146.9886,115.0724
146.9561,115.1211
146.9074,115.1536
146.8500,115.1650
145.2000,115.1650
145.1426,115.1536
145.0939,115.1211
145.0614,115.0724
145.0500,115.0150
Z" /> 
<path style="fill:#C83434; fill-opacity:1.0000; stroke:none;fill-rule:evenodd;"
d="M 145.0500,115.9850
145.0614,115.9276
145.0939,115.8789
145.1426,115.8464
145.2000,115.8350
146.8500,115.8350
146.9074,115.8464
146.9561,115.8789
146.9886,115.9276
147.0000,115.9850
147.0000,116.2850
146.9886,116.3424
146.9561,116.3911
146.9074,116.4236
146.8500,116.4350
145.2000,116.4350
145.1426,116.4236
145.0939,116.3911
145.0614,116.3424
145.0500,116.2850
Z" /> 
<path style="fill:#C83434; fill-opacity:1.0000; stroke:none;fill-rule:evenodd;"
d="M 145.0500,117.2550
145.0614,117.1976
145.0939,117.1489
145.1426,117.1164
145.2000,117.1050
146.8500,117.1050
146.9074,117.1164
146.9561,117.1489
146.9886,117.1976
147.0000,117.2550
147.0000,117.5550
146.9886,117.6124
146.9561,117.6611
146.9074,117.6936
146.8500,117.7050
145.2000,117.7050
145.1426,117.6936
145.0939,117.6611
145.0614,117.6124
145.0500,117.5550
Z" /> 
<path style="fill:#C83434; fill-opacity:1.0000; stroke:none;fill-rule:evenodd;"
d="M 145.0500,118.5250
145.0614,118.4676
145.0939,118.4189
145.1426,118.3864
145.2000,118.3750
146.8500,118.3750
146.9074,118.3864
146.9561,118.4189
146.9886,118.4676
147.0000,118.5250
147.0000,118.8250
146.9886,118.8824
146.9561,118.9311
146.9074,118.9636
146.8500,118.9750
145.2000,118.9750
145.1426,118.9636
145.0939,118.9311
145.0614,118.8824
145.0500,118.8250
Z" /> 
<path style="fill:#C83434; fill-opacity:1.0000; stroke:none;fill-rule:evenodd;"
d="M 145.0500,119.7950
145.0614,119.7376
145.0939,119.6889
145.1426,119.6564
145.2000,119.6450
146.8500,119.6450
146.9074,119.6564
146.9561,119.6889
146.9886,119.7376
147.0000,119.7950
147.0000,120.0950
146.9886,120.1524
146.9561,120.2011
146.9074,120.2336
146.8500,120.2450
145.2000,120.2450
145.1426,120.2336
145.0939,120.2011
145.0614,120.1524
145.0500,120.0950
Z" /> 
<path style="fill:#C83434; fill-opacity:1.0000; stroke:none;fill-rule:evenodd;"
d="M 150.0000,119.7950
150.0114,119.7376
150.0439,119.6889
150.0926,119.6564
150.1500,119.6450
151.8000,119.6450
151.8574,119.6564
151.9061,119.6889
151.9386,119.7376
151.9500,119.7950
151.9500,120.0950
151.9386,120.1524
151.9061,120.2011
151.8574,120.2336
151.8000,120.2450
150.1500,120.2450
150.0926,120.2336
150.0439,120.2011
150.0114,120.1524
150.0000,120.0950
Z" /> 
<path style="fill:#C83434; fill-opacity:1.0000; stroke:none;fill-rule:evenodd;"
d="M 150.0000,118.5250
150.0114,118.4676
150.0439,118.4189
150.0926,118.3864
150.1500,118.3750
151.8000,118.3750
151.8574,118.3864
151.9061,118.4189
151.9386,118.4676
151.9500,118.5250
151.9500,118.8250
151.9386,118.8824
151.9061,118.9311
151.8574,118.9636
151.8000,118.9750
150.1500,118.9750
150.0926,118.9636
150.0439,118.9311
150.0114,118.8824
150.0000,118.8250
Z" /> 
<path style="fill:#C83434; fill-opacity:1.0000; stroke:none;fill-rule:evenodd;"
d="M 150.0000,117.2550
150.0114,117.1976
150.0439,117.1489
150.0926,117.1164
150.1500,117.1050
151.8000,117.1050
151.8574,117.1164
151.9061,117.1489
151.9386,117.1976
151.9500,117.2550
151.9500,117.5550
151.9386,117.6124
151.9061,117.6611
151.8574,117.6936
151.8000,117.7050
150.1500,117.7050
150.0926,117.6936
150.0439,117.6611
150.0114,117.6124
150.0000,117.5550
Z" /> 
<path style="fill:#C83434; fill-opacity:1.0000; stroke:none;fill-rule:evenodd;"
d="M 150.0000,115.9850
150.0114,115.9276
150.0439,115.8789
150.0926,115.8464
150.1500,115.8350
151.8000,115.8350
151.8574,115.8464
151.9061,115.8789
151.9386,115.9276
151.9500,115.9850
151.9500,116.2850
151.9386,116.3424
151.9061,116.3911
151.8574,116.4236
151.8000,116.4350
150.1500,116.4350
150.0926,116.4236
150.0439,116.3911
150.0114,116.3424
150.0000,116.2850
Z" /> 
<path style="fill:#C83434; fill-opacity:1.0000; stroke:none;fill-rule:evenodd;"
d="M 150.0000,114.7150
150.0114,114.6576
150.0439,114.6089
150.0926,114.5764
150.1500,114.5650
151.8000,114.5650
151.8574,114.5764
151.9061,114.6089
151.9386,114.6576
151.9500,114.7150
151.9500,115.0150
151.9386,115.0724
151.9061,115.1211
151.8574,115.1536
151.8000,115.1650
150.1500,115.1650
150.0926,115.1536
150.0439,115.1211
150.0114,115.0724
150.0000,115.0150
Z" /> 
<path style="fill:#C83434; fill-opacity:1.0000; stroke:none;fill-rule:evenodd;"
d="M 150.0000,113.4450
150.0114,113.3876
150.0439,113.3389
150.0926,113.3064
150.1500,113.2950
151.8000,113.2950
151.8574,113.3064
151.9061,113.3389
151.9386,113.3876
151.9500,113.4450
151.9500,113.7450
151.9386,113.8024
151.9061,113.8511
151.8574,113.8836
151.8000,113.8950
150.1500,113.8950
150.0926,113.8836
150.0439,113.8511
150.0114,113.8024
150.0000,113.7450
Z" /> 
<path style="fill:#C83434; fill-opacity:1.0000; stroke:none;fill-rule:evenodd;"
d="M 150.0000,112.1750
150.0114,112.1176
150.0439,112.0689
150.0926,112.0364
150.1500,112.0250
151.8000,112.0250
151.8574,112.0364
151.9061,112.0689
151.9386,112.1176
151.9500,112.1750
151.9500,112.4750
151.9386,112.5324
151.9061,112.5811
151.8574,112.6136
151.8000,112.6250
150.1500,112.6250
150.0926,112.6136
150.0439,112.5811
150.0114,112.5324
150.0000,112.4750
Z" /> 
<path style="fill:#C83434; fill-opacity:1.0000; stroke:none;fill-rule:evenodd;"
d="M 150.0000,110.9050
150.0114,110.8476
150.0439,110.7989
150.0926,110.7664
150.1500,110.7550
151.8000,110.7550
151.8574,110.7664
151.9061,110.7989
151.9386,110.8476
151.9500,110.9050
151.9500,111.2050
151.9386,111.2624
151.9061,111.3111
151.8574,111.3436
151.8000,111.3550
150.1500,111.3550
150.0926,111.3436
150.0439,111.3111
150.0114,111.2624
150.0000,111.2050
Z" /> 
<path style="fill:#C83434; fill-opacity:1.0000; stroke:none;fill-rule:evenodd;"
d="M 145.5700,96.3150
145.5757,96.2863
145.5920,96.2620
145.6163,96.2457
145.6450,96.2400
145.7950,96.2400
145.8237,96.2457
145.8480,96.2620
145.8643,96.2863
145.8700,96.3150
145.8700,97.1650
145.8643,97.1937
145.8480,97.2180
145.8237,97.2343
145.7950,97.2400
145.6450,97.2400
145.6163,97.2343
145.5920,97.2180
145.5757,97.1937
145.5700,97.1650
Z" /> 
<path style="fill:#C83434; fill-opacity:1.0000; stroke:none;fill-rule:evenodd;"
d="M 146.3600,96.3150
146.3657,96.2863
146.3820,96.2620
146.4063,96.2457
146.4350,96.2400
146.5850,96.2400
146.6137,96.2457
146.6380,96.2620
146.6543,96.2863
146.6600,96.3150
146.6600,97.1650
146.6543,97.1937
146.6380,97.2180
146.6137,97.2343
146.5850,97.2400
146.4350,97.2400
146.4063,97.2343
146.3820,97.2180
146.3657,97.1937
146.3600,97.1650
Z" /> 
<path style="fill:#C83434; fill-opacity:1.0000; stroke:none;fill-rule:evenodd;"
d="M 147.1500,96.3150
147.1557,96.2863
147.1720,96.2620
147.1963,96.2457
147.2250,96.2400
147.3750,96.2400
147.4037,96.2457
147.4280,96.2620
147.4443,96.2863
147.4500,96.3150
147.4500,97.1650
147.4443,97.1937
147.4280,97.2180
147.4037,97.2343
147.3750,97.2400
147.2250,97.2400
147.1963,97.2343
147.1720,97.2180
147.1557,97.1937
147.1500,97.1650
Z" /> 
<path style="fill:#C83434; fill-opacity:1.0000; stroke:none;fill-rule:evenodd;"
d="M 147.9400,96.3150
147.9457,96.2863
147.9620,96.2620
147.9863,96.2457
148.0150,96.2400
148.1650,96.2400
148.1937,96.2457
148.2180,96.2620
148.2343,96.2863
148.2400,96.3150
148.2400,97.1650
148.2343,97.1937
148.2180,97.2180
148.1937,97.2343
148.1650,97.2400
148.0150,97.2400
147.9863,97.2343
147.9620,97.2180
147.9457,97.1937
147.9400,97.1650
Z" /> 
<path style="fill:#C83434; fill-opacity:1.0000; stroke:none;fill-rule:evenodd;"
d="M 148.7300,96.3150
148.7357,96.2863
148.7520,96.2620
148.7763,96.2457
148.8050,96.2400
148.9550,96.2400
148.9837,96.2457
149.0080,96.2620
149.0243,96.2863
149.0300,96.3150
149.0300,97.1650
149.0243,97.1937
149.0080,97.2180
148.9837,97.2343
148.9550,97.2400
148.8050,97.2400
148.7763,97.2343
148.7520,97.2180
148.7357,97.1937
148.7300,97.1650
Z" /> 
<path style="fill:#C83434; fill-opacity:1.0000; stroke:none;fill-rule:evenodd;"
d="M 149.5200,96.3150
149.5257,96.2863
149.5420,96.2620
149.5663,96.2457
149.5950,96.2400
149.7450,96.2400
149.7737,96.2457
149.7980,96.2620
149.8143,96.2863
149.8200,96.3150
149.8200,97.1650
149.8143,97.1937
149.7980,97.2180
149.7737,97.2343
149.7450,97.2400
149.5950,97.2400
149.5663,97.2343
149.5420,97.2180
149.5257,97.1937
149.5200,97.1650
Z" /> 
<path style="fill:#C83434; fill-opacity:1.0000; stroke:none;fill-rule:evenodd;"
d="M 150.3100,96.3150
150.3157,96.2863
150.3320,96.2620
150.3563,96.2457
150.3850,96.2400
150.5350,96.2400
150.5637,96.2457
150.5880,96.2620
150.6043,96.2863
150.6100,96.3150
150.6100,97.1650
150.6043,97.1937
150.5880,97.2180
150.5637,97.2343
150.5350,97.2400
150.3850,97.2400
150.3563,97.2343
150.3320,97.2180
150.3157,97.1937
150.3100,97.1650
Z" /> 
<path style="fill:#C83434; fill-opacity:1.0000; stroke:none;fill-rule:evenodd;"
d="M 151.1000,96.3150
151.1057,96.2863
151.1220,96.2620
151.1463,96.2457
151.1750,96.2400
151.3250,96.2400
151.3537,96.2457
151.3780,96.2620
151.3943,96.2863
151.4000,96.3150
151.4000,97.1650
151.3943,97.1937
151.3780,97.2180
151.3537,97.2343
151.3250,97.2400
151.1750,97.2400
151.1463,97.2343
151.1220,97.2180
151.1057,97.1937
151.1000,97.1650
Z" /> 
<path style="fill:#C83434; fill-opacity:1.0000; stroke:none;fill-rule:evenodd;"
d="M 151.1000,97.8350
151.1057,97.8063
151.1220,97.7820
151.1463,97.7657
151.1750,97.7600
151.3250,97.7600
151.3537,97.7657
151.3780,97.7820
151.3943,97.8063
151.4000,97.8350
151.4000,98.6850
151.3943,98.7137
151.3780,98.7380
151.3537,98.7543
151.3250,98.7600
151.1750,98.7600
151.1463,98.7543
151.1220,98.7380
151.1057,98.7137
151.1000,98.6850
Z" /> 
<path style="fill:#C83434; fill-opacity:1.0000; stroke:none;fill-rule:evenodd;"
d="M 150.3100,97.8350
150.3157,97.8063
150.3320,97.7820
150.3563,97.7657
150.3850,97.7600
150.5350,97.7600
150.5637,97.7657
150.5880,97.7820
150.6043,97.8063
150.6100,97.8350
150.6100,98.6850
150.6043,98.7137
150.5880,98.7380
150.5637,98.7543
150.5350,98.7600
150.3850,98.7600
150.3563,98.7543
150.3320,98.7380
150.3157,98.7137
150.3100,98.6850
Z" /> 
<path style="fill:#C83434; fill-opacity:1.0000; stroke:none;fill-rule:evenodd;"
d="M 149.5200,97.8350
149.5257,97.8063
149.5420,97.7820
149.5663,97.7657
149.5950,97.7600
149.7450,97.7600
149.7737,97.7657
149.7980,97.7820
149.8143,97.8063
149.8200,97.8350
149.8200,98.6850
149.8143,98.7137
149.7980,98.7380
149.7737,98.7543
149.7450,98.7600
149.5950,98.7600
149.5663,98.7543
149.5420,98.7380
149.5257,98.7137
149.5200,98.6850
Z" /> 
<path style="fill:#C83434; fill-opacity:1.0000; stroke:none;fill-rule:evenodd;"
d="M 148.7300,97.8350
148.7357,97.8063
148.7520,97.7820
148.7763,97.7657
148.8050,97.7600
148.9550,97.7600
148.9837,97.7657
149.0080,97.7820
149.0243,97.8063
149.0300,97.8350
149.0300,98.6850
149.0243,98.7137
149.0080,98.7380
148.9837,98.7543
148.9550,98.7600
148.8050,98.7600
148.7763,98.7543
148.7520,98.7380
148.7357,98.7137
148.7300,98.6850
Z" /> 
<path style="fill:#C83434; fill-opacity:1.0000; stroke:none;fill-rule:evenodd;"
d="M 147.9400,97.8350
147.9457,97.8063
147.9620,97.7820
147.9863,97.7657
148.0150,97.7600
148.1650,97.7600
148.1937,97.7657
148.2180,97.7820
148.2343,97.8063
148.2400,97.8350
148.2400,98.6850
148.2343,98.7137
148.2180,98.7380
148.1937,98.7543
148.1650,98.7600
148.0150,98.7600
147.9863,98.7543
147.9620,98.7380
147.9457,98.7137
147.9400,98.6850
Z" /> 
<path style="fill:#C83434; fill-opacity:1.0000; stroke:none;fill-rule:evenodd;"
d="M 147.1500,97.8350
147.1557,97.8063
147.1720,97.7820
147.1963,97.7657
147.2250,97.7600
147.3750,97.7600
147.4037,97.7657
147.4280,97.7820
147.4443,97.8063
147.4500,97.8350
147.4500,98.6850
147.4443,98.7137
147.4280,98.7380
147.4037,98.7543
147.3750,98.7600
147.2250,98.7600
147.1963,98.7543
147.1720,98.7380
147.1557,98.7137
147.1500,98.6850
Z" /> 
<path style="fill:#C83434; fill-opacity:1.0000; stroke:none;fill-rule:evenodd;"
d="M 146.3600,97.8350
146.3657,97.8063
146.3820,97.7820
146.4063,97.7657
146.4350,97.7600
146.5850,97.7600
146.6137,97.7657
146.6380,97.7820
146.6543,97.8063
146.6600,97.8350
146.6600,98.6850
146.6543,98.7137
146.6380,98.7380
146.6137,98.7543
146.5850,98.7600
146.4350,98.7600
146.4063,98.7543
146.3820,98.7380
146.3657,98.7137
146.3600,98.6850
Z" /> 
<path style="fill:#C83434; fill-opacity:1.0000; stroke:none;fill-rule:evenodd;"
d="M 145.5700,97.8350
145.5757,97.8063
145.5920,97.7820
145.6163,97.7657
145.6450,97.7600
145.7950,97.7600
145.8237,97.7657
145.8480,97.7820
145.8643,97.8063
145.8700,97.8350
145.8700,98.6850
145.8643,98.7137
145.8480,98.7380
145.8237,98.7543
145.7950,98.7600
145.6450,98.7600
145.6163,98.7543
145.5920,98.7380
145.5757,98.7137
145.5700,98.6850
Z" /> 
</g>
<g style="fill:#C83434; fill-opacity:1.0000; stroke:none;">
<circle cx="146.1000" cy="95.3500" r="0.5500" /> 
<circle cx="146.1000" cy="99.6500" r="0.5500" /> 
<circle cx="150.9000" cy="95.3500" r="0.5500" /> 
<circle cx="150.9000" cy="99.6500" r="0.5500" /> 
</g>
<g style="fill:#4D7FC4; fill-opacity:1.0000; stroke:none;">
<circle cx="146.1000" cy="95.3500" r="0.5500" /> 
<circle cx="146.1000" cy="99.6500" r="0.5500" /> 
<circle cx="150.9000" cy="95.3500" r="0.5500" /> 
<circle cx="150.9000" cy="99.6500" r="0.5500" /> 
</g>
<g style="fill:none; 
stroke:#F2EDA1; stroke-width:0.0960; stroke-opacity:1; 
stroke-linecap:round; stroke-linejoin:round;">
<text x="142.5000" y="131.9000"
textLength="1.5375" font-size="1.0667" lengthAdjust="spacingAndGlyphs"
text-anchor="middle" opacity="0" stroke-opacity="0">TP</text>
<g class="stroked-text"><desc>TP</desc>
<path d="M141.8714 131.0651
L142.3286 131.0651
" />
<path d="M142.1000 131.8651
L142.1000 131.0651
" />
<path d="M142.5952 131.8651
L142.5952 131.0651
" />
<path d="M142.5952 131.0651
L142.9000 131.0651
" />
<path d="M142.9000 131.0651
L142.9762 131.1032
" />
<path d="M142.9762 131.1032
L143.0143 131.1413
" />
<path d="M143.0143 131.1413
L143.0524 131.2175
" />
<path d="M143.0524 131.2175
L143.0524 131.3318
" />
<path d="M143.0524 131.3318
L143.0143 131.4080
" />
<path d="M143.0143 131.4080
L142.9762 131.4461
" />
<path d="M142.9762 131.4461
L142.9000 131.4841
" />
<path d="M142.9000 131.4841
L142.5952 131.4841
" />
</g><text x="142.7000" y="78.7000"
textLength="1.5756" font-size="1.0667" lengthAdjust="spacingAndGlyphs"
text-anchor="middle" opacity="0" stroke-opacity="0">A2</text>
<g class="stroked-text"><desc>A2</desc>
<path d="M142.1286 78.4365
L142.5095 78.4365
" />
<path d="M142.0524 78.6651
L142.3190 77.8651
" />
<path d="M142.3190 77.8651
L142.5857 78.6651
" />
<path d="M142.8143 77.9413
L142.8524 77.9032
" />
<path d="M142.8524 77.9032
L142.9286 77.8651
" />
<path d="M142.9286 77.8651
L143.1190 77.8651
" />
<path d="M143.1190 77.8651
L143.1952 77.9032
" />
<path d="M143.1952 77.9032
L143.2333 77.9413
" />
<path d="M143.2333 77.9413
L143.2714 78.0175
" />
<path d="M143.2714 78.0175
L143.2714 78.0937
" />
<path d="M143.2714 78.0937
L143.2333 78.2080
" />
<path d="M143.2333 78.2080
L142.7762 78.6651
" />
<path d="M142.7762 78.6651
L143.2714 78.6651
" />
</g></g>
<g style="fill:none; 
stroke:#F2EDA1; stroke-width:0.1200; stroke-opacity:1; 
stroke-linecap:round; stroke-linejoin:round;">
<path d="M151.9775 105.7373
L151.9775 105.2627
" />
<path d="M153.0225 105.7373
L153.0225 105.2627
" />
<path d="M143.4900 119.1406
L143.4900 118.8594
" />
<path d="M144.5100 119.1406
L144.5100 118.8594
" />
<path d="M151.9775 126.7373
L151.9775 126.2627
" />
<path d="M153.0225 126.7373
L153.0225 126.2627
" />
<path d="M151.9775 83.7373
L151.9775 83.2627
" />
<path d="M153.0225 83.7373
L153.0225 83.2627
" />
<path d="M151.1775 111.2373
L151.1775 110.7627
" />
<path d="M152.2225 111.2373
L152.2225 110.7627
" />
<path d="M147.3650 81.9000
L147.3650 85.7850
" />
<path d="M147.3650 85.7850
L149.6350 85.7850
" />
<path d="M149.6350 85.7850
L149.6350 81.9000
" />
<path d="M152.2650 122.7613
L152.2650 122.2387
" />
<path d="M153.7350 122.7613
L153.7350 122.2387
" />
<path d="M147.3650 124.9000
L147.3650 128.7850
" />
<path d="M147.3650 128.7850
L149.6350 128.7850
" />
<path d="M149.6350 128.7850
L149.6350 124.9000
" />
<path d="M152.7775 111.2373
L152.7775 110.7627
" />
<path d="M153.8225 111.2373
L153.8225 110.7627
" />
<path d="M144.8775 111.2373
L144.8775 110.7627
" />
<path d="M145.9225 111.2373
L145.9225 110.7627
" />
<path d="M152.4900 119.1406
L152.4900 118.8594
" />
<path d="M153.5100 119.1406
L153.5100 118.8594
" />
<path d="M147.3650 103.9000
L147.3650 107.7850
" />
<path d="M147.3650 107.7850
L149.6350 107.7850
" />
<path d="M149.6350 107.7850
L149.6350 103.9000
" />
<path d="M143.3775 111.2373
L143.3775 110.7627
" />
<path d="M144.4225 111.2373
L144.4225 110.7627
" />
<path d="M146.4400 110.4400
L150.5600 110.4400
" />
<path d="M146.4400 110.4950
L146.4400 110.4400
" />
<path d="M146.4400 120.5600
L146.4400 120.5050
" />
<path d="M150.5600 110.4400
L150.5600 110.4950
" />
<path d="M150.5600 120.5050
L150.5600 120.5600
" />
<path d="M150.5600 120.5600
L146.4400 120.5600
" />
<path style="fill:none; 
stroke:#F2EDA1; stroke-width:0.1200; stroke-opacity:1; 
stroke-linecap:round; stroke-linejoin:round;fill:none"
d="M 145.9000,110.4900
145.6600,110.1600
146.1400,110.1600
Z" /> 
<path style="fill:#F2EDA1; fill-opacity:1.0000; stroke:none;fill-rule:evenodd;"
d="M 145.9000,110.4900
145.6600,110.1600
146.1400,110.1600
Z" /> 
</g>
<g style="fill:none; 
stroke:#F2EDA1; stroke-width:0.1200; stroke-opacity:1; 
stroke-linecap:round; stroke-linejoin:round;">
<path d="M144.0800 95.3300
L144.0800 95.8300
" />
<path d="M144.0800 95.3300
L144.5800 95.3300
" />
<path d="M144.2300 95.4800
L144.2300 96.3800
" />
<path d="M144.2300 95.4800
L145.0300 95.4800
" />
<path d="M144.2300 99.5200
L144.2300 98.6200
" />
<path d="M144.2300 99.5200
L145.0300 99.5200
" />
<path d="M152.7700 95.4800
L151.9700 95.4800
" />
<path d="M152.7700 95.4800
L152.7700 96.3800
" />
<path d="M152.7700 99.5200
L151.9700 99.5200
" />
<path d="M152.7700 99.5200
L152.7700 98.6200
" />
</g>
<g style="fill:none; 
stroke:#D0D2CD; stroke-width:0.1000; stroke-opacity:1; 
stroke-linecap:round; stroke-linejoin:round;">
<path d="M141.5000 76.5000
L155.5000 76.5000
" />
<path d="M141.5000 133.5000
L141.5000 76.5000
" />
<path d="M155.5000 76.5000
L155.5000 133.5000
" />
<path d="M155.5000 133.5000
L141.5000 133.5000
" />
</g>
<g style="fill:#000000; fill-opacity:1.0000; stroke:none;">
<circle cx="144.7500" cy="97.5000" r="0.3300" /> 
</g>
<g style="fill:none; 
stroke:#000000; stroke-width:0.5800; stroke-opacity:1; 
stroke-linecap:round; stroke-linejoin:round;">
<path d="M152.0400 97.5000
L152.4600 97.5000
" />
</g>
<g style="fill:#FFFFFF; fill-opacity:1.0000; stroke:none;">
<circle cx="146.1000" cy="95.3500" r="0.3500" /> 
</g>
<g style="fill:#FFFFFF; fill-opacity:1.0000; stroke:none;">
<circle cx="146.1000" cy="99.6500" r="0.3500" /> 
</g>
<g style="fill:#FFFFFF; fill-opacity:1.0000; stroke:none;">
<circle cx="150.9000" cy="95.3500" r="0.3500" /> 
</g>
<g style="fill:#FFFFFF; fill-opacity:1.0000; stroke:none;">
<circle cx="150.9000" cy="99.6500" r="0.3500" /> 
</g> 
</svg>
