<?xml version="1.0" standalone="no"?>
 <!DOCTYPE svg PUBLIC "-//W3C//DTD SVG 1.1//EN" 
 "http://www.w3.org/Graphics/SVG/1.1/DTD/svg11.dtd"> 
<svg
  xmlns:svg="http://www.w3.org/2000/svg"
  xmlns="http://www.w3.org/2000/svg"
  xmlns:xlink="http://www.w3.org/1999/xlink"
  xmlns:inkscape="http://www.inkscape.org/namespaces/inkscape"
  version="1.1"
  width="297.0022mm" height="210.0072mm" viewBox="0.0000 0.0000 297.0022 210.0072">
<title>SVG Image created as usb_c_traffic_light_board.svg date 2026-05-26T04:20:24 </title>
  <desc>Image generated by PCBNEW </desc>
<g style="fill:#000000; fill-opacity:1.0000;stroke:#000000; stroke-opacity:1.0000;
stroke-linecap:round; stroke-linejoin:round;"
 transform="translate(0 0) scale(1 1)">
</g>
<g style="fill:none; 
stroke:#C872AB; stroke-width:0.1500; stroke-opacity:1; 
stroke-linecap:round; stroke-linejoin:round;">
<path d="M177.0022 166.0072
L285.0022 166.0072
L285.0022 198.0072
L177.0022 198.0072
L177.0022 166.0072
" />
<path d="M10.0000 10.0000
L287.0022 10.0000
L287.0022 200.0072
L10.0000 200.0072
L10.0000 10.0000
" />
<path d="M12.0000 12.0000
L285.0022 12.0000
L285.0022 198.0072
L12.0000 198.0072
L12.0000 12.0000
" />
<path d="M60.0000 12.0000
L60.0000 10.0000
" />
<path d="M110.0000 12.0000
L110.0000 10.0000
" />
<path d="M160.0000 12.0000
L160.0000 10.0000
" />
<path d="M210.0000 12.0000
L210.0000 10.0000
" />
<path d="M260.0000 12.0000
L260.0000 10.0000
" />
<text x="35.0000" y="11.6500"
textLength="1.4281" font-size="1.7333" lengthAdjust="spacingAndGlyphs"
text-anchor="start" opacity="0" stroke-opacity="0">1</text>
<g class="stroked-text"><desc>1</desc>
<path d="M36.0892 11.5936
L35.3463 11.5936
" />
<path d="M35.7177 11.5936
L35.7177 10.2936
" />
<path d="M35.7177 10.2936
L35.5939 10.4793
" />
<path d="M35.5939 10.4793
L35.4701 10.6031
" />
<path d="M35.4701 10.6031
L35.3463 10.6650
" />
</g><text x="85.0000" y="11.6500"
textLength="1.4281" font-size="1.7333" lengthAdjust="spacingAndGlyphs"
text-anchor="start" opacity="0" stroke-opacity="0">2</text>
<g class="stroked-text"><desc>2</desc>
<path d="M85.3463 10.4174
L85.4082 10.3555
" />
<path d="M85.4082 10.3555
L85.5320 10.2936
" />
<path d="M85.5320 10.2936
L85.8415 10.2936
" />
<path d="M85.8415 10.2936
L85.9654 10.3555
" />
<path d="M85.9654 10.3555
L86.0273 10.4174
" />
<path d="M86.0273 10.4174
L86.0892 10.5412
" />
<path d="M86.0892 10.5412
L86.0892 10.6650
" />
<path d="M86.0892 10.6650
L86.0273 10.8507
" />
<path d="M86.0273 10.8507
L85.2844 11.5936
" />
<path d="M85.2844 11.5936
L86.0892 11.5936
" />
</g><text x="135.0000" y="11.6500"
textLength="1.4281" font-size="1.7333" lengthAdjust="spacingAndGlyphs"
text-anchor="start" opacity="0" stroke-opacity="0">3</text>
<g class="stroked-text"><desc>3</desc>
<path d="M135.2844 10.2936
L136.0892 10.2936
" />
<path d="M136.0892 10.2936
L135.6558 10.7888
" />
<path d="M135.6558 10.7888
L135.8415 10.7888
" />
<path d="M135.8415 10.7888
L135.9654 10.8507
" />
<path d="M135.9654 10.8507
L136.0273 10.9127
" />
<path d="M136.0273 10.9127
L136.0892 11.0365
" />
<path d="M136.0892 11.0365
L136.0892 11.3460
" />
<path d="M136.0892 11.3460
L136.0273 11.4698
" />
<path d="M136.0273 11.4698
L135.9654 11.5317
" />
<path d="M135.9654 11.5317
L135.8415 11.5936
" />
<path d="M135.8415 11.5936
L135.4701 11.5936
" />
<path d="M135.4701 11.5936
L135.3463 11.5317
" />
<path d="M135.3463 11.5317
L135.2844 11.4698
" />
</g><text x="185.0000" y="11.6500"
textLength="1.4281" font-size="1.7333" lengthAdjust="spacingAndGlyphs"
text-anchor="start" opacity="0" stroke-opacity="0">4</text>
<g class="stroked-text"><desc>4</desc>
<path d="M185.9654 10.7269
L185.9654 11.5936
" />
<path d="M185.6558 10.2317
L185.3463 11.1603
" />
<path d="M185.3463 11.1603
L186.1511 11.1603
" />
</g><text x="235.0000" y="11.6500"
textLength="1.4281" font-size="1.7333" lengthAdjust="spacingAndGlyphs"
text-anchor="start" opacity="0" stroke-opacity="0">5</text>
<g class="stroked-text"><desc>5</desc>
<path d="M236.0273 10.2936
L235.4082 10.2936
" />
<path d="M235.4082 10.2936
L235.3463 10.9127
" />
<path d="M235.3463 10.9127
L235.4082 10.8507
" />
<path d="M235.4082 10.8507
L235.5320 10.7888
" />
<path d="M235.5320 10.7888
L235.8415 10.7888
" />
<path d="M235.8415 10.7888
L235.9654 10.8507
" />
<path d="M235.9654 10.8507
L236.0273 10.9127
" />
<path d="M236.0273 10.9127
L236.0892 11.0365
" />
<path d="M236.0892 11.0365
L236.0892 11.3460
" />
<path d="M236.0892 11.3460
L236.0273 11.4698
" />
<path d="M236.0273 11.4698
L235.9654 11.5317
" />
<path d="M235.9654 11.5317
L235.8415 11.5936
" />
<path d="M235.8415 11.5936
L235.5320 11.5936
" />
<path d="M235.5320 11.5936
L235.4082 11.5317
" />
<path d="M235.4082 11.5317
L235.3463 11.4698
" />
</g><text x="285.0000" y="11.6500"
textLength="1.4281" font-size="1.7333" lengthAdjust="spacingAndGlyphs"
text-anchor="start" opacity="0" stroke-opacity="0">6</text>
<g class="stroked-text"><desc>6</desc>
<path d="M285.9654 10.2936
L285.7177 10.2936
" />
<path d="M285.7177 10.2936
L285.5939 10.3555
" />
<path d="M285.5939 10.3555
L285.5320 10.4174
" />
<path d="M285.5320 10.4174
L285.4082 10.6031
" />
<path d="M285.4082 10.6031
L285.3463 10.8507
" />
<path d="M285.3463 10.8507
L285.3463 11.3460
" />
<path d="M285.3463 11.3460
L285.4082 11.4698
" />
<path d="M285.4082 11.4698
L285.4701 11.5317
" />
<path d="M285.4701 11.5317
L285.5939 11.5936
" />
<path d="M285.5939 11.5936
L285.8415 11.5936
" />
<path d="M285.8415 11.5936
L285.9654 11.5317
" />
<path d="M285.9654 11.5317
L286.0273 11.4698
" />
<path d="M286.0273 11.4698
L286.0892 11.3460
" />
<path d="M286.0892 11.3460
L286.0892 11.0365
" />
<path d="M286.0892 11.0365
L286.0273 10.9127
" />
<path d="M286.0273 10.9127
L285.9654 10.8507
" />
<path d="M285.9654 10.8507
L285.8415 10.7888
" />
<path d="M285.8415 10.7888
L285.5939 10.7888
" />
<path d="M285.5939 10.7888
L285.4701 10.8507
" />
<path d="M285.4701 10.8507
L285.4082 10.9127
" />
<path d="M285.4082 10.9127
L285.3463 11.0365
" />
</g><path d="M60.0000 198.0072
L60.0000 200.0072
" />
<path d="M110.0000 198.0072
L110.0000 200.0072
" />
<path d="M160.0000 198.0072
L160.0000 200.0072
" />
<path d="M210.0000 198.0072
L210.0000 200.0072
" />
<path d="M260.0000 198.0072
L260.0000 200.0072
" />
<text x="35.0000" y="199.6572"
textLength="1.4281" font-size="1.7333" lengthAdjust="spacingAndGlyphs"
text-anchor="start" opacity="0" stroke-opacity="0">1</text>
<g class="stroked-text"><desc>1</desc>
<path d="M36.0892 199.6008
L35.3463 199.6008
" />
<path d="M35.7177 199.6008
L35.7177 198.3008
" />
<path d="M35.7177 198.3008
L35.5939 198.4865
" />
<path d="M35.5939 198.4865
L35.4701 198.6103
" />
<path d="M35.4701 198.6103
L35.3463 198.6722
" />
</g><text x="85.0000" y="199.6572"
textLength="1.4281" font-size="1.7333" lengthAdjust="spacingAndGlyphs"
text-anchor="start" opacity="0" stroke-opacity="0">2</text>
<g class="stroked-text"><desc>2</desc>
<path d="M85.3463 198.4246
L85.4082 198.3627
" />
<path d="M85.4082 198.3627
L85.5320 198.3008
" />
<path d="M85.5320 198.3008
L85.8415 198.3008
" />
<path d="M85.8415 198.3008
L85.9654 198.3627
" />
<path d="M85.9654 198.3627
L86.0273 198.4246
" />
<path d="M86.0273 198.4246
L86.0892 198.5484
" />
<path d="M86.0892 198.5484
L86.0892 198.6722
" />
<path d="M86.0892 198.6722
L86.0273 198.8579
" />
<path d="M86.0273 198.8579
L85.2844 199.6008
" />
<path d="M85.2844 199.6008
L86.0892 199.6008
" />
</g><text x="135.0000" y="199.6572"
textLength="1.4281" font-size="1.7333" lengthAdjust="spacingAndGlyphs"
text-anchor="start" opacity="0" stroke-opacity="0">3</text>
<g class="stroked-text"><desc>3</desc>
<path d="M135.2844 198.3008
L136.0892 198.3008
" />
<path d="M136.0892 198.3008
L135.6558 198.7960
" />
<path d="M135.6558 198.7960
L135.8415 198.7960
" />
<path d="M135.8415 198.7960
L135.9654 198.8579
" />
<path d="M135.9654 198.8579
L136.0273 198.9199
" />
<path d="M136.0273 198.9199
L136.0892 199.0437
" />
<path d="M136.0892 199.0437
L136.0892 199.3532
" />
<path d="M136.0892 199.3532
L136.0273 199.4770
" />
<path d="M136.0273 199.4770
L135.9654 199.5389
" />
<path d="M135.9654 199.5389
L135.8415 199.6008
" />
<path d="M135.8415 199.6008
L135.4701 199.6008
" />
<path d="M135.4701 199.6008
L135.3463 199.5389
" />
<path d="M135.3463 199.5389
L135.2844 199.4770
" />
</g><text x="185.0000" y="199.6572"
textLength="1.4281" font-size="1.7333" lengthAdjust="spacingAndGlyphs"
text-anchor="start" opacity="0" stroke-opacity="0">4</text>
<g class="stroked-text"><desc>4</desc>
<path d="M185.9654 198.7341
L185.9654 199.6008
" />
<path d="M185.6558 198.2389
L185.3463 199.1675
" />
<path d="M185.3463 199.1675
L186.1511 199.1675
" />
</g><text x="235.0000" y="199.6572"
textLength="1.4281" font-size="1.7333" lengthAdjust="spacingAndGlyphs"
text-anchor="start" opacity="0" stroke-opacity="0">5</text>
<g class="stroked-text"><desc>5</desc>
<path d="M236.0273 198.3008
L235.4082 198.3008
" />
<path d="M235.4082 198.3008
L235.3463 198.9199
" />
<path d="M235.3463 198.9199
L235.4082 198.8579
" />
<path d="M235.4082 198.8579
L235.5320 198.7960
" />
<path d="M235.5320 198.7960
L235.8415 198.7960
" />
<path d="M235.8415 198.7960
L235.9654 198.8579
" />
<path d="M235.9654 198.8579
L236.0273 198.9199
" />
<path d="M236.0273 198.9199
L236.0892 199.0437
" />
<path d="M236.0892 199.0437
L236.0892 199.3532
" />
<path d="M236.0892 199.3532
L236.0273 199.4770
" />
<path d="M236.0273 199.4770
L235.9654 199.5389
" />
<path d="M235.9654 199.5389
L235.8415 199.6008
" />
<path d="M235.8415 199.6008
L235.5320 199.6008
" />
<path d="M235.5320 199.6008
L235.4082 199.5389
" />
<path d="M235.4082 199.5389
L235.3463 199.4770
" />
</g><text x="285.0000" y="199.6572"
textLength="1.4281" font-size="1.7333" lengthAdjust="spacingAndGlyphs"
text-anchor="start" opacity="0" stroke-opacity="0">6</text>
<g class="stroked-text"><desc>6</desc>
<path d="M285.9654 198.3008
L285.7177 198.3008
" />
<path d="M285.7177 198.3008
L285.5939 198.3627
" />
<path d="M285.5939 198.3627
L285.5320 198.4246
" />
<path d="M285.5320 198.4246
L285.4082 198.6103
" />
<path d="M285.4082 198.6103
L285.3463 198.8579
" />
<path d="M285.3463 198.8579
L285.3463 199.3532
" />
<path d="M285.3463 199.3532
L285.4082 199.4770
" />
<path d="M285.4082 199.4770
L285.4701 199.5389
" />
<path d="M285.4701 199.5389
L285.5939 199.6008
" />
<path d="M285.5939 199.6008
L285.8415 199.6008
" />
<path d="M285.8415 199.6008
L285.9654 199.5389
" />
<path d="M285.9654 199.5389
L286.0273 199.4770
" />
<path d="M286.0273 199.4770
L286.0892 199.3532
" />
<path d="M286.0892 199.3532
L286.0892 199.0437
" />
<path d="M286.0892 199.0437
L286.0273 198.9199
" />
<path d="M286.0273 198.9199
L285.9654 198.8579
" />
<path d="M285.9654 198.8579
L285.8415 198.7960
" />
<path d="M285.8415 198.7960
L285.5939 198.7960
" />
<path d="M285.5939 198.7960
L285.4701 198.8579
" />
<path d="M285.4701 198.8579
L285.4082 198.9199
" />
<path d="M285.4082 198.9199
L285.3463 199.0437
" />
</g><path d="M10.0000 60.0000
L12.0000 60.0000
" />
<path d="M10.0000 110.0000
L12.0000 110.0000
" />
<path d="M10.0000 160.0000
L12.0000 160.0000
" />
<text x="11.0000" y="35.6500"
textLength="1.3043" font-size="1.7333" lengthAdjust="spacingAndGlyphs"
text-anchor="middle" opacity="0" stroke-opacity="0">A</text>
<g class="stroked-text"><desc>A</desc>
<path d="M10.6905 35.2222
L11.3095 35.2222
" />
<path d="M10.5667 35.5936
L11.0000 34.2936
" />
<path d="M11.0000 34.2936
L11.4333 35.5936
" />
</g><text x="11.0000" y="85.6500"
textLength="1.4900" font-size="1.7333" lengthAdjust="spacingAndGlyphs"
text-anchor="middle" opacity="0" stroke-opacity="0">B</text>
<g class="stroked-text"><desc>B</desc>
<path d="M11.0929 84.9127
L11.2786 84.9746
" />
<path d="M11.2786 84.9746
L11.3405 85.0365
" />
<path d="M11.3405 85.0365
L11.4024 85.1603
" />
<path d="M11.4024 85.1603
L11.4024 85.3460
" />
<path d="M11.4024 85.3460
L11.3405 85.4698
" />
<path d="M11.3405 85.4698
L11.2786 85.5317
" />
<path d="M11.2786 85.5317
L11.1548 85.5936
" />
<path d="M11.1548 85.5936
L10.6595 85.5936
" />
<path d="M10.6595 85.5936
L10.6595 84.2936
" />
<path d="M10.6595 84.2936
L11.0929 84.2936
" />
<path d="M11.0929 84.2936
L11.2167 84.3555
" />
<path d="M11.2167 84.3555
L11.2786 84.4174
" />
<path d="M11.2786 84.4174
L11.3405 84.5412
" />
<path d="M11.3405 84.5412
L11.3405 84.6650
" />
<path d="M11.3405 84.6650
L11.2786 84.7888
" />
<path d="M11.2786 84.7888
L11.2167 84.8507
" />
<path d="M11.2167 84.8507
L11.0929 84.9127
" />
<path d="M11.0929 84.9127
L10.6595 84.9127
" />
</g><text x="11.0000" y="135.6500"
textLength="1.4900" font-size="1.7333" lengthAdjust="spacingAndGlyphs"
text-anchor="middle" opacity="0" stroke-opacity="0">C</text>
<g class="stroked-text"><desc>C</desc>
<path d="M11.4024 135.4698
L11.3405 135.5317
" />
<path d="M11.3405 135.5317
L11.1548 135.5936
" />
<path d="M11.1548 135.5936
L11.0310 135.5936
" />
<path d="M11.0310 135.5936
L10.8452 135.5317
" />
<path d="M10.8452 135.5317
L10.7214 135.4079
" />
<path d="M10.7214 135.4079
L10.6595 135.2841
" />
<path d="M10.6595 135.2841
L10.5976 135.0365
" />
<path d="M10.5976 135.0365
L10.5976 134.8507
" />
<path d="M10.5976 134.8507
L10.6595 134.6031
" />
<path d="M10.6595 134.6031
L10.7214 134.4793
" />
<path d="M10.7214 134.4793
L10.8452 134.3555
" />
<path d="M10.8452 134.3555
L11.0310 134.2936
" />
<path d="M11.0310 134.2936
L11.1548 134.2936
" />
<path d="M11.1548 134.2936
L11.3405 134.3555
" />
<path d="M11.3405 134.3555
L11.4024 134.4174
" />
</g><text x="11.0000" y="185.6500"
textLength="1.4900" font-size="1.7333" lengthAdjust="spacingAndGlyphs"
text-anchor="middle" opacity="0" stroke-opacity="0">D</text>
<g class="stroked-text"><desc>D</desc>
<path d="M10.6595 185.5936
L10.6595 184.2936
" />
<path d="M10.6595 184.2936
L10.9690 184.2936
" />
<path d="M10.9690 184.2936
L11.1548 184.3555
" />
<path d="M11.1548 184.3555
L11.2786 184.4793
" />
<path d="M11.2786 184.4793
L11.3405 184.6031
" />
<path d="M11.3405 184.6031
L11.4024 184.8507
" />
<path d="M11.4024 184.8507
L11.4024 185.0365
" />
<path d="M11.4024 185.0365
L11.3405 185.2841
" />
<path d="M11.3405 185.2841
L11.2786 185.4079
" />
<path d="M11.2786 185.4079
L11.1548 185.5317
" />
<path d="M11.1548 185.5317
L10.9690 185.5936
" />
<path d="M10.9690 185.5936
L10.6595 185.5936
" />
</g><path d="M287.0022 60.0000
L285.0022 60.0000
" />
<path d="M287.0022 110.0000
L285.0022 110.0000
" />
<path d="M287.0022 160.0000
L285.0022 160.0000
" />
<text x="286.0022" y="35.6500"
textLength="1.3043" font-size="1.7333" lengthAdjust="spacingAndGlyphs"
text-anchor="middle" opacity="0" stroke-opacity="0">A</text>
<g class="stroked-text"><desc>A</desc>
<path d="M285.6927 35.2222
L286.3117 35.2222
" />
<path d="M285.5689 35.5936
L286.0022 34.2936
" />
<path d="M286.0022 34.2936
L286.4355 35.5936
" />
</g><text x="286.0022" y="85.6500"
textLength="1.4900" font-size="1.7333" lengthAdjust="spacingAndGlyphs"
text-anchor="middle" opacity="0" stroke-opacity="0">B</text>
<g class="stroked-text"><desc>B</desc>
<path d="M286.0951 84.9127
L286.2808 84.9746
" />
<path d="M286.2808 84.9746
L286.3427 85.0365
" />
<path d="M286.3427 85.0365
L286.4046 85.1603
" />
<path d="M286.4046 85.1603
L286.4046 85.3460
" />
<path d="M286.4046 85.3460
L286.3427 85.4698
" />
<path d="M286.3427 85.4698
L286.2808 85.5317
" />
<path d="M286.2808 85.5317
L286.1570 85.5936
" />
<path d="M286.1570 85.5936
L285.6617 85.5936
" />
<path d="M285.6617 85.5936
L285.6617 84.2936
" />
<path d="M285.6617 84.2936
L286.0951 84.2936
" />
<path d="M286.0951 84.2936
L286.2189 84.3555
" />
<path d="M286.2189 84.3555
L286.2808 84.4174
" />
<path d="M286.2808 84.4174
L286.3427 84.5412
" />
<path d="M286.3427 84.5412
L286.3427 84.6650
" />
<path d="M286.3427 84.6650
L286.2808 84.7888
" />
<path d="M286.2808 84.7888
L286.2189 84.8507
" />
<path d="M286.2189 84.8507
L286.0951 84.9127
" />
<path d="M286.0951 84.9127
L285.6617 84.9127
" />
</g><text x="286.0022" y="135.6500"
textLength="1.4900" font-size="1.7333" lengthAdjust="spacingAndGlyphs"
text-anchor="middle" opacity="0" stroke-opacity="0">C</text>
<g class="stroked-text"><desc>C</desc>
<path d="M286.4046 135.4698
L286.3427 135.5317
" />
<path d="M286.3427 135.5317
L286.1570 135.5936
" />
<path d="M286.1570 135.5936
L286.0332 135.5936
" />
<path d="M286.0332 135.5936
L285.8474 135.5317
" />
<path d="M285.8474 135.5317
L285.7236 135.4079
" />
<path d="M285.7236 135.4079
L285.6617 135.2841
" />
<path d="M285.6617 135.2841
L285.5998 135.0365
" />
<path d="M285.5998 135.0365
L285.5998 134.8507
" />
<path d="M285.5998 134.8507
L285.6617 134.6031
" />
<path d="M285.6617 134.6031
L285.7236 134.4793
" />
<path d="M285.7236 134.4793
L285.8474 134.3555
" />
<path d="M285.8474 134.3555
L286.0332 134.2936
" />
<path d="M286.0332 134.2936
L286.1570 134.2936
" />
<path d="M286.1570 134.2936
L286.3427 134.3555
" />
<path d="M286.3427 134.3555
L286.4046 134.4174
" />
</g><text x="286.0022" y="185.6500"
textLength="1.4900" font-size="1.7333" lengthAdjust="spacingAndGlyphs"
text-anchor="middle" opacity="0" stroke-opacity="0">D</text>
<g class="stroked-text"><desc>D</desc>
<path d="M285.6617 185.5936
L285.6617 184.2936
" />
<path d="M285.6617 184.2936
L285.9712 184.2936
" />
<path d="M285.9712 184.2936
L286.1570 184.3555
" />
<path d="M286.1570 184.3555
L286.2808 184.4793
" />
<path d="M286.2808 184.4793
L286.3427 184.6031
" />
<path d="M286.3427 184.6031
L286.4046 184.8507
" />
<path d="M286.4046 184.8507
L286.4046 185.0365
" />
<path d="M286.4046 185.0365
L286.3427 185.2841
" />
<path d="M286.3427 185.2841
L286.2808 185.4079
" />
<path d="M286.2808 185.4079
L286.1570 185.5317
" />
<path d="M286.1570 185.5317
L285.9712 185.5936
" />
<path d="M285.9712 185.5936
L285.6617 185.5936
" />
</g><text x="200.0022" y="193.8572"
textLength="7.0071" font-size="2.0000" lengthAdjust="spacingAndGlyphs"
text-anchor="start" opacity="0" stroke-opacity="0">Date: </text>
<g class="stroked-text"><desc>Date: </desc>
<path d="M200.4580 193.7933
L200.4580 192.2933
" />
<path d="M200.4580 192.2933
L200.8152 192.2933
" />
<path d="M200.8152 192.2933
L201.0295 192.3648
" />
<path d="M201.0295 192.3648
L201.1723 192.5076
" />
<path d="M201.1723 192.5076
L201.2437 192.6505
" />
<path d="M201.2437 192.6505
L201.3152 192.9362
" />
<path d="M201.3152 192.9362
L201.3152 193.1505
" />
<path d="M201.3152 193.1505
L201.2437 193.4362
" />
<path d="M201.2437 193.4362
L201.1723 193.5790
" />
<path d="M201.1723 193.5790
L201.0295 193.7219
" />
<path d="M201.0295 193.7219
L200.8152 193.7933
" />
<path d="M200.8152 193.7933
L200.4580 193.7933
" />
<path d="M202.6009 193.7933
L202.6009 193.0076
" />
<path d="M202.6009 193.0076
L202.5295 192.8648
" />
<path d="M202.5295 192.8648
L202.3866 192.7933
" />
<path d="M202.3866 192.7933
L202.1009 192.7933
" />
<path d="M202.1009 192.7933
L201.9580 192.8648
" />
<path d="M202.6009 193.7219
L202.4580 193.7933
" />
<path d="M202.4580 193.7933
L202.1009 193.7933
" />
<path d="M202.1009 193.7933
L201.9580 193.7219
" />
<path d="M201.9580 193.7219
L201.8866 193.5790
" />
<path d="M201.8866 193.5790
L201.8866 193.4362
" />
<path d="M201.8866 193.4362
L201.9580 193.2933
" />
<path d="M201.9580 193.2933
L202.1009 193.2219
" />
<path d="M202.1009 193.2219
L202.4580 193.2219
" />
<path d="M202.4580 193.2219
L202.6009 193.1505
" />
<path d="M203.1009 192.7933
L203.6723 192.7933
" />
<path d="M203.3152 192.2933
L203.3152 193.5790
" />
<path d="M203.3152 193.5790
L203.3866 193.7219
" />
<path d="M203.3866 193.7219
L203.5295 193.7933
" />
<path d="M203.5295 193.7933
L203.6723 193.7933
" />
<path d="M204.7437 193.7219
L204.6009 193.7933
" />
<path d="M204.6009 193.7933
L204.3152 193.7933
" />
<path d="M204.3152 193.7933
L204.1723 193.7219
" />
<path d="M204.1723 193.7219
L204.1009 193.5790
" />
<path d="M204.1009 193.5790
L204.1009 193.0076
" />
<path d="M204.1009 193.0076
L204.1723 192.8648
" />
<path d="M204.1723 192.8648
L204.3152 192.7933
" />
<path d="M204.3152 192.7933
L204.6009 192.7933
" />
<path d="M204.6009 192.7933
L204.7437 192.8648
" />
<path d="M204.7437 192.8648
L204.8152 193.0076
" />
<path d="M204.8152 193.0076
L204.8152 193.1505
" />
<path d="M204.8152 193.1505
L204.1009 193.2933
" />
<path d="M205.4580 193.6505
L205.5295 193.7219
" />
<path d="M205.5295 193.7219
L205.4580 193.7933
" />
<path d="M205.4580 193.7933
L205.3866 193.7219
" />
<path d="M205.3866 193.7219
L205.4580 193.6505
" />
<path d="M205.4580 193.6505
L205.4580 193.7933
" />
<path d="M205.4580 192.8648
L205.5295 192.9362
" />
<path d="M205.5295 192.9362
L205.4580 193.0076
" />
<path d="M205.4580 193.0076
L205.3866 192.9362
" />
<path d="M205.3866 192.9362
L205.4580 192.8648
" />
<path d="M205.4580 192.8648
L205.4580 193.0076
" />
</g><path d="M177.0022 194.5072
L285.0022 194.5072
" />
<text x="178.0022" y="196.6572"
textLength="22.2929" font-size="2.0000" lengthAdjust="spacingAndGlyphs"
text-anchor="start" opacity="0" stroke-opacity="0">KiCad E.D.A. 10.0.3</text>
<g class="stroked-text"><desc>KiCad E.D.A. 10.0.3</desc>
<path d="M178.4580 196.5933
L178.4580 195.0933
" />
<path d="M179.3152 196.5933
L178.6723 195.7362
" />
<path d="M179.3152 195.0933
L178.4580 195.9505
" />
<path d="M179.9580 196.5933
L179.9580 195.5933
" />
<path d="M179.9580 195.0933
L179.8866 195.1648
" />
<path d="M179.8866 195.1648
L179.9580 195.2362
" />
<path d="M179.9580 195.2362
L180.0295 195.1648
" />
<path d="M180.0295 195.1648
L179.9580 195.0933
" />
<path d="M179.9580 195.0933
L179.9580 195.2362
" />
<path d="M181.5295 196.4505
L181.4580 196.5219
" />
<path d="M181.4580 196.5219
L181.2437 196.5933
" />
<path d="M181.2437 196.5933
L181.1009 196.5933
" />
<path d="M181.1009 196.5933
L180.8866 196.5219
" />
<path d="M180.8866 196.5219
L180.7437 196.3790
" />
<path d="M180.7437 196.3790
L180.6723 196.2362
" />
<path d="M180.6723 196.2362
L180.6009 195.9505
" />
<path d="M180.6009 195.9505
L180.6009 195.7362
" />
<path d="M180.6009 195.7362
L180.6723 195.4505
" />
<path d="M180.6723 195.4505
L180.7437 195.3076
" />
<path d="M180.7437 195.3076
L180.8866 195.1648
" />
<path d="M180.8866 195.1648
L181.1009 195.0933
" />
<path d="M181.1009 195.0933
L181.2437 195.0933
" />
<path d="M181.2437 195.0933
L181.4580 195.1648
" />
<path d="M181.4580 195.1648
L181.5295 195.2362
" />
<path d="M182.8152 196.5933
L182.8152 195.8076
" />
<path d="M182.8152 195.8076
L182.7437 195.6648
" />
<path d="M182.7437 195.6648
L182.6009 195.5933
" />
<path d="M182.6009 195.5933
L182.3152 195.5933
" />
<path d="M182.3152 195.5933
L182.1723 195.6648
" />
<path d="M182.8152 196.5219
L182.6723 196.5933
" />
<path d="M182.6723 196.5933
L182.3152 196.5933
" />
<path d="M182.3152 196.5933
L182.1723 196.5219
" />
<path d="M182.1723 196.5219
L182.1009 196.3790
" />
<path d="M182.1009 196.3790
L182.1009 196.2362
" />
<path d="M182.1009 196.2362
L182.1723 196.0933
" />
<path d="M182.1723 196.0933
L182.3152 196.0219
" />
<path d="M182.3152 196.0219
L182.6723 196.0219
" />
<path d="M182.6723 196.0219
L182.8152 195.9505
" />
<path d="M184.1723 196.5933
L184.1723 195.0933
" />
<path d="M184.1723 196.5219
L184.0295 196.5933
" />
<path d="M184.0295 196.5933
L183.7437 196.5933
" />
<path d="M183.7437 196.5933
L183.6009 196.5219
" />
<path d="M183.6009 196.5219
L183.5295 196.4505
" />
<path d="M183.5295 196.4505
L183.4580 196.3076
" />
<path d="M183.4580 196.3076
L183.4580 195.8790
" />
<path d="M183.4580 195.8790
L183.5295 195.7362
" />
<path d="M183.5295 195.7362
L183.6009 195.6648
" />
<path d="M183.6009 195.6648
L183.7437 195.5933
" />
<path d="M183.7437 195.5933
L184.0295 195.5933
" />
<path d="M184.0295 195.5933
L184.1723 195.6648
" />
<path d="M186.0295 195.8076
L186.5295 195.8076
" />
<path d="M186.7437 196.5933
L186.0295 196.5933
" />
<path d="M186.0295 196.5933
L186.0295 195.0933
" />
<path d="M186.0295 195.0933
L186.7437 195.0933
" />
<path d="M187.3866 196.4505
L187.4580 196.5219
" />
<path d="M187.4580 196.5219
L187.3866 196.5933
" />
<path d="M187.3866 196.5933
L187.3152 196.5219
" />
<path d="M187.3152 196.5219
L187.3866 196.4505
" />
<path d="M187.3866 196.4505
L187.3866 196.5933
" />
<path d="M188.1009 196.5933
L188.1009 195.0933
" />
<path d="M188.1009 195.0933
L188.4580 195.0933
" />
<path d="M188.4580 195.0933
L188.6723 195.1648
" />
<path d="M188.6723 195.1648
L188.8152 195.3076
" />
<path d="M188.8152 195.3076
L188.8866 195.4505
" />
<path d="M188.8866 195.4505
L188.9580 195.7362
" />
<path d="M188.9580 195.7362
L188.9580 195.9505
" />
<path d="M188.9580 195.9505
L188.8866 196.2362
" />
<path d="M188.8866 196.2362
L188.8152 196.3790
" />
<path d="M188.8152 196.3790
L188.6723 196.5219
" />
<path d="M188.6723 196.5219
L188.4580 196.5933
" />
<path d="M188.4580 196.5933
L188.1009 196.5933
" />
<path d="M189.6009 196.4505
L189.6723 196.5219
" />
<path d="M189.6723 196.5219
L189.6009 196.5933
" />
<path d="M189.6009 196.5933
L189.5295 196.5219
" />
<path d="M189.5295 196.5219
L189.6009 196.4505
" />
<path d="M189.6009 196.4505
L189.6009 196.5933
" />
<path d="M190.2437 196.1648
L190.9580 196.1648
" />
<path d="M190.1009 196.5933
L190.6009 195.0933
" />
<path d="M190.6009 195.0933
L191.1009 196.5933
" />
<path d="M191.6009 196.4505
L191.6723 196.5219
" />
<path d="M191.6723 196.5219
L191.6009 196.5933
" />
<path d="M191.6009 196.5933
L191.5295 196.5219
" />
<path d="M191.5295 196.5219
L191.6009 196.4505
" />
<path d="M191.6009 196.4505
L191.6009 196.5933
" />
<path d="M194.2437 196.5933
L193.3866 196.5933
" />
<path d="M193.8152 196.5933
L193.8152 195.0933
" />
<path d="M193.8152 195.0933
L193.6723 195.3076
" />
<path d="M193.6723 195.3076
L193.5295 195.4505
" />
<path d="M193.5295 195.4505
L193.3866 195.5219
" />
<path d="M195.1723 195.0933
L195.3152 195.0933
" />
<path d="M195.3152 195.0933
L195.4580 195.1648
" />
<path d="M195.4580 195.1648
L195.5295 195.2362
" />
<path d="M195.5295 195.2362
L195.6009 195.3790
" />
<path d="M195.6009 195.3790
L195.6723 195.6648
" />
<path d="M195.6723 195.6648
L195.6723 196.0219
" />
<path d="M195.6723 196.0219
L195.6009 196.3076
" />
<path d="M195.6009 196.3076
L195.5295 196.4505
" />
<path d="M195.5295 196.4505
L195.4580 196.5219
" />
<path d="M195.4580 196.5219
L195.3152 196.5933
" />
<path d="M195.3152 196.5933
L195.1723 196.5933
" />
<path d="M195.1723 196.5933
L195.0295 196.5219
" />
<path d="M195.0295 196.5219
L194.9580 196.4505
" />
<path d="M194.9580 196.4505
L194.8866 196.3076
" />
<path d="M194.8866 196.3076
L194.8152 196.0219
" />
<path d="M194.8152 196.0219
L194.8152 195.6648
" />
<path d="M194.8152 195.6648
L194.8866 195.3790
" />
<path d="M194.8866 195.3790
L194.9580 195.2362
" />
<path d="M194.9580 195.2362
L195.0295 195.1648
" />
<path d="M195.0295 195.1648
L195.1723 195.0933
" />
<path d="M196.3152 196.4505
L196.3866 196.5219
" />
<path d="M196.3866 196.5219
L196.3152 196.5933
" />
<path d="M196.3152 196.5933
L196.2437 196.5219
" />
<path d="M196.2437 196.5219
L196.3152 196.4505
" />
<path d="M196.3152 196.4505
L196.3152 196.5933
" />
<path d="M197.3152 195.0933
L197.4580 195.0933
" />
<path d="M197.4580 195.0933
L197.6009 195.1648
" />
<path d="M197.6009 195.1648
L197.6723 195.2362
" />
<path d="M197.6723 195.2362
L197.7437 195.3790
" />
<path d="M197.7437 195.3790
L197.8152 195.6648
" />
<path d="M197.8152 195.6648
L197.8152 196.0219
" />
<path d="M197.8152 196.0219
L197.7437 196.3076
" />
<path d="M197.7437 196.3076
L197.6723 196.4505
" />
<path d="M197.6723 196.4505
L197.6009 196.5219
" />
<path d="M197.6009 196.5219
L197.4580 196.5933
" />
<path d="M197.4580 196.5933
L197.3152 196.5933
" />
<path d="M197.3152 196.5933
L197.1723 196.5219
" />
<path d="M197.1723 196.5219
L197.1009 196.4505
" />
<path d="M197.1009 196.4505
L197.0295 196.3076
" />
<path d="M197.0295 196.3076
L196.9580 196.0219
" />
<path d="M196.9580 196.0219
L196.9580 195.6648
" />
<path d="M196.9580 195.6648
L197.0295 195.3790
" />
<path d="M197.0295 195.3790
L197.1009 195.2362
" />
<path d="M197.1009 195.2362
L197.1723 195.1648
" />
<path d="M197.1723 195.1648
L197.3152 195.0933
" />
<path d="M198.4580 196.4505
L198.5295 196.5219
" />
<path d="M198.5295 196.5219
L198.4580 196.5933
" />
<path d="M198.4580 196.5933
L198.3866 196.5219
" />
<path d="M198.3866 196.5219
L198.4580 196.4505
" />
<path d="M198.4580 196.4505
L198.4580 196.5933
" />
<path d="M199.0295 195.0933
L199.9580 195.0933
" />
<path d="M199.9580 195.0933
L199.4580 195.6648
" />
<path d="M199.4580 195.6648
L199.6723 195.6648
" />
<path d="M199.6723 195.6648
L199.8152 195.7362
" />
<path d="M199.8152 195.7362
L199.8866 195.8076
" />
<path d="M199.8866 195.8076
L199.9580 195.9505
" />
<path d="M199.9580 195.9505
L199.9580 196.3076
" />
<path d="M199.9580 196.3076
L199.8866 196.4505
" />
<path d="M199.8866 196.4505
L199.8152 196.5219
" />
<path d="M199.8152 196.5219
L199.6723 196.5933
" />
<path d="M199.6723 196.5933
L199.2437 196.5933
" />
<path d="M199.2437 196.5933
L199.1009 196.5219
" />
<path d="M199.1009 196.5219
L199.0295 196.4505
" />
</g><path d="M177.0022 191.5072
L285.0022 191.5072
" />
</g>
<g style="fill:none; 
stroke:#C872AB; stroke-width:0.3000; stroke-opacity:1; 
stroke-linecap:round; stroke-linejoin:round;">
<text x="263.0022" y="193.8572"
textLength="6.3857" font-size="2.0000" lengthAdjust="spacingAndGlyphs"
text-anchor="start" opacity="0" stroke-opacity="0">Rev: </text>
<g class="stroked-text"><desc>Rev: </desc>
<path d="M264.4139 193.7855
L263.9139 193.0712
" />
<path d="M263.5567 193.7855
L263.5567 192.2855
" />
<path d="M263.5567 192.2855
L264.1281 192.2855
" />
<path d="M264.1281 192.2855
L264.2710 192.3570
" />
<path d="M264.2710 192.3570
L264.3424 192.4284
" />
<path d="M264.3424 192.4284
L264.4139 192.5712
" />
<path d="M264.4139 192.5712
L264.4139 192.7855
" />
<path d="M264.4139 192.7855
L264.3424 192.9284
" />
<path d="M264.3424 192.9284
L264.2710 192.9998
" />
<path d="M264.2710 192.9998
L264.1281 193.0712
" />
<path d="M264.1281 193.0712
L263.5567 193.0712
" />
<path d="M265.6281 193.7141
L265.4853 193.7855
" />
<path d="M265.4853 193.7855
L265.1996 193.7855
" />
<path d="M265.1996 193.7855
L265.0567 193.7141
" />
<path d="M265.0567 193.7141
L264.9853 193.5712
" />
<path d="M264.9853 193.5712
L264.9853 192.9998
" />
<path d="M264.9853 192.9998
L265.0567 192.8570
" />
<path d="M265.0567 192.8570
L265.1996 192.7855
" />
<path d="M265.1996 192.7855
L265.4853 192.7855
" />
<path d="M265.4853 192.7855
L265.6281 192.8570
" />
<path d="M265.6281 192.8570
L265.6996 192.9998
" />
<path d="M265.6996 192.9998
L265.6996 193.1427
" />
<path d="M265.6996 193.1427
L264.9853 193.2855
" />
<path d="M266.1996 192.7855
L266.5567 193.7855
" />
<path d="M266.5567 193.7855
L266.9139 192.7855
" />
<path d="M267.4853 193.6427
L267.5567 193.7141
" />
<path d="M267.5567 193.7141
L267.4853 193.7855
" />
<path d="M267.4853 193.7855
L267.4139 193.7141
" />
<path d="M267.4139 193.7141
L267.4853 193.6427
" />
<path d="M267.4853 193.6427
L267.4853 193.7855
" />
<path d="M267.4853 192.8570
L267.5567 192.9284
" />
<path d="M267.5567 192.9284
L267.4853 192.9998
" />
<path d="M267.4853 192.9998
L267.4139 192.9284
" />
<path d="M267.4139 192.9284
L267.4853 192.8570
" />
<path d="M267.4853 192.8570
L267.4853 192.9998
" />
</g></g>
<g style="fill:none; 
stroke:#C872AB; stroke-width:0.1500; stroke-opacity:1; 
stroke-linecap:round; stroke-linejoin:round;">
<text x="178.0022" y="193.8572"
textLength="9.3643" font-size="2.0000" lengthAdjust="spacingAndGlyphs"
text-anchor="start" opacity="0" stroke-opacity="0">Size: A4</text>
<g class="stroked-text"><desc>Size: A4</desc>
<path d="M178.3866 193.7219
L178.6009 193.7933
" />
<path d="M178.6009 193.7933
L178.9580 193.7933
" />
<path d="M178.9580 193.7933
L179.1009 193.7219
" />
<path d="M179.1009 193.7219
L179.1723 193.6505
" />
<path d="M179.1723 193.6505
L179.2437 193.5076
" />
<path d="M179.2437 193.5076
L179.2437 193.3648
" />
<path d="M179.2437 193.3648
L179.1723 193.2219
" />
<path d="M179.1723 193.2219
L179.1009 193.1505
" />
<path d="M179.1009 193.1505
L178.9580 193.0790
" />
<path d="M178.9580 193.0790
L178.6723 193.0076
" />
<path d="M178.6723 193.0076
L178.5295 192.9362
" />
<path d="M178.5295 192.9362
L178.4580 192.8648
" />
<path d="M178.4580 192.8648
L178.3866 192.7219
" />
<path d="M178.3866 192.7219
L178.3866 192.5790
" />
<path d="M178.3866 192.5790
L178.4580 192.4362
" />
<path d="M178.4580 192.4362
L178.5295 192.3648
" />
<path d="M178.5295 192.3648
L178.6723 192.2933
" />
<path d="M178.6723 192.2933
L179.0295 192.2933
" />
<path d="M179.0295 192.2933
L179.2437 192.3648
" />
<path d="M179.8866 193.7933
L179.8866 192.7933
" />
<path d="M179.8866 192.2933
L179.8152 192.3648
" />
<path d="M179.8152 192.3648
L179.8866 192.4362
" />
<path d="M179.8866 192.4362
L179.9580 192.3648
" />
<path d="M179.9580 192.3648
L179.8866 192.2933
" />
<path d="M179.8866 192.2933
L179.8866 192.4362
" />
<path d="M180.4580 192.7933
L181.2437 192.7933
" />
<path d="M181.2437 192.7933
L180.4580 193.7933
" />
<path d="M180.4580 193.7933
L181.2437 193.7933
" />
<path d="M182.3866 193.7219
L182.2437 193.7933
" />
<path d="M182.2437 193.7933
L181.9580 193.7933
" />
<path d="M181.9580 193.7933
L181.8152 193.7219
" />
<path d="M181.8152 193.7219
L181.7437 193.5790
" />
<path d="M181.7437 193.5790
L181.7437 193.0076
" />
<path d="M181.7437 193.0076
L181.8152 192.8648
" />
<path d="M181.8152 192.8648
L181.9580 192.7933
" />
<path d="M181.9580 192.7933
L182.2437 192.7933
" />
<path d="M182.2437 192.7933
L182.3866 192.8648
" />
<path d="M182.3866 192.8648
L182.4580 193.0076
" />
<path d="M182.4580 193.0076
L182.4580 193.1505
" />
<path d="M182.4580 193.1505
L181.7437 193.2933
" />
<path d="M183.1009 193.6505
L183.1723 193.7219
" />
<path d="M183.1723 193.7219
L183.1009 193.7933
" />
<path d="M183.1009 193.7933
L183.0295 193.7219
" />
<path d="M183.0295 193.7219
L183.1009 193.6505
" />
<path d="M183.1009 193.6505
L183.1009 193.7933
" />
<path d="M183.1009 192.8648
L183.1723 192.9362
" />
<path d="M183.1723 192.9362
L183.1009 193.0076
" />
<path d="M183.1009 193.0076
L183.0295 192.9362
" />
<path d="M183.0295 192.9362
L183.1009 192.8648
" />
<path d="M183.1009 192.8648
L183.1009 193.0076
" />
<path d="M184.8866 193.3648
L185.6009 193.3648
" />
<path d="M184.7437 193.7933
L185.2437 192.2933
" />
<path d="M185.2437 192.2933
L185.7437 193.7933
" />
<path d="M186.8866 192.7933
L186.8866 193.7933
" />
<path d="M186.5295 192.2219
L186.1723 193.2933
" />
<path d="M186.1723 193.2933
L187.1009 193.2933
" />
</g><text x="263.0022" y="196.6572"
textLength="8.5071" font-size="2.0000" lengthAdjust="spacingAndGlyphs"
text-anchor="start" opacity="0" stroke-opacity="0">Id: 1/1</text>
<g class="stroked-text"><desc>Id: 1/1</desc>
<path d="M263.4580 196.5933
L263.4580 195.0933
" />
<path d="M264.8152 196.5933
L264.8152 195.0933
" />
<path d="M264.8152 196.5219
L264.6723 196.5933
" />
<path d="M264.6723 196.5933
L264.3866 196.5933
" />
<path d="M264.3866 196.5933
L264.2437 196.5219
" />
<path d="M264.2437 196.5219
L264.1723 196.4505
" />
<path d="M264.1723 196.4505
L264.1009 196.3076
" />
<path d="M264.1009 196.3076
L264.1009 195.8790
" />
<path d="M264.1009 195.8790
L264.1723 195.7362
" />
<path d="M264.1723 195.7362
L264.2437 195.6648
" />
<path d="M264.2437 195.6648
L264.3866 195.5933
" />
<path d="M264.3866 195.5933
L264.6723 195.5933
" />
<path d="M264.6723 195.5933
L264.8152 195.6648
" />
<path d="M265.5295 196.4505
L265.6009 196.5219
" />
<path d="M265.6009 196.5219
L265.5295 196.5933
" />
<path d="M265.5295 196.5933
L265.4580 196.5219
" />
<path d="M265.4580 196.5219
L265.5295 196.4505
" />
<path d="M265.5295 196.4505
L265.5295 196.5933
" />
<path d="M265.5295 195.6648
L265.6009 195.7362
" />
<path d="M265.6009 195.7362
L265.5295 195.8076
" />
<path d="M265.5295 195.8076
L265.4580 195.7362
" />
<path d="M265.4580 195.7362
L265.5295 195.6648
" />
<path d="M265.5295 195.6648
L265.5295 195.8076
" />
<path d="M268.1723 196.5933
L267.3152 196.5933
" />
<path d="M267.7437 196.5933
L267.7437 195.0933
" />
<path d="M267.7437 195.0933
L267.6009 195.3076
" />
<path d="M267.6009 195.3076
L267.4580 195.4505
" />
<path d="M267.4580 195.4505
L267.3152 195.5219
" />
<path d="M269.8866 195.0219
L268.6009 196.9505
" />
<path d="M271.1723 196.5933
L270.3152 196.5933
" />
<path d="M270.7437 196.5933
L270.7437 195.0933
" />
<path d="M270.7437 195.0933
L270.6009 195.3076
" />
<path d="M270.6009 195.3076
L270.4580 195.4505
" />
<path d="M270.4580 195.4505
L270.3152 195.5219
" />
</g><path d="M177.0022 187.5072
L285.0022 187.5072
" />
</g>
<g style="fill:none; 
stroke:#C872AB; stroke-width:0.4000; stroke-opacity:1; 
stroke-linecap:round; stroke-linejoin:round;">
<text x="178.0022" y="190.3072"
textLength="9.6571" font-size="2.6667" lengthAdjust="spacingAndGlyphs"
text-anchor="start" opacity="0" stroke-opacity="0">Title: </text>
<g class="stroked-text"><desc>Title: </desc>
<path d="M178.6939 188.2116
L179.8368 188.2116
" />
<path d="M179.0154 190.2116
L179.2654 188.2116
" />
<path d="M180.2535 190.2116
L180.4201 188.8783
" />
<path d="M180.5035 188.2116
L180.3963 188.3069
" />
<path d="M180.3963 188.3069
L180.4796 188.4021
" />
<path d="M180.4796 188.4021
L180.5868 188.3069
" />
<path d="M180.5868 188.3069
L180.5035 188.2116
" />
<path d="M180.5035 188.2116
L180.4796 188.4021
" />
<path d="M181.0868 188.8783
L181.8487 188.8783
" />
<path d="M181.4558 188.2116
L181.2415 189.9259
" />
<path d="M181.2415 189.9259
L181.3130 190.1164
" />
<path d="M181.3130 190.1164
L181.4915 190.2116
" />
<path d="M181.4915 190.2116
L181.6820 190.2116
" />
<path d="M182.6344 190.2116
L182.4558 190.1164
" />
<path d="M182.4558 190.1164
L182.3844 189.9259
" />
<path d="M182.3844 189.9259
L182.5987 188.2116
" />
<path d="M184.1701 190.1164
L183.9677 190.2116
" />
<path d="M183.9677 190.2116
L183.5868 190.2116
" />
<path d="M183.5868 190.2116
L183.4082 190.1164
" />
<path d="M183.4082 190.1164
L183.3368 189.9259
" />
<path d="M183.3368 189.9259
L183.4320 189.1640
" />
<path d="M183.4320 189.1640
L183.5511 188.9735
" />
<path d="M183.5511 188.9735
L183.7535 188.8783
" />
<path d="M183.7535 188.8783
L184.1344 188.8783
" />
<path d="M184.1344 188.8783
L184.3130 188.9735
" />
<path d="M184.3130 188.9735
L184.3844 189.1640
" />
<path d="M184.3844 189.1640
L184.3606 189.3545
" />
<path d="M184.3606 189.3545
L183.3844 189.5450
" />
<path d="M185.1344 190.0212
L185.2177 190.1164
" />
<path d="M185.2177 190.1164
L185.1106 190.2116
" />
<path d="M185.1106 190.2116
L185.0273 190.1164
" />
<path d="M185.0273 190.1164
L185.1344 190.0212
" />
<path d="M185.1344 190.0212
L185.1106 190.2116
" />
<path d="M185.2654 188.9735
L185.3487 189.0688
" />
<path d="M185.3487 189.0688
L185.2415 189.1640
" />
<path d="M185.2415 189.1640
L185.1582 189.0688
" />
<path d="M185.1582 189.0688
L185.2654 188.9735
" />
<path d="M185.2654 188.9735
L185.2415 189.1640
" />
</g></g>
<g style="fill:none; 
stroke:#C872AB; stroke-width:0.1500; stroke-opacity:1; 
stroke-linecap:round; stroke-linejoin:round;">
<text x="178.0022" y="186.4572"
textLength="45.9357" font-size="2.0000" lengthAdjust="spacingAndGlyphs"
text-anchor="start" opacity="0" stroke-opacity="0">File: usb_c_traffic_light_board.kicad_pcb</text>
<g class="stroked-text"><desc>File: usb_c_traffic_light_board.kicad_pcb</desc>
<path d="M178.9580 185.6076
L178.4580 185.6076
" />
<path d="M178.4580 186.3933
L178.4580 184.8933
" />
<path d="M178.4580 184.8933
L179.1723 184.8933
" />
<path d="M179.7437 186.3933
L179.7437 185.3933
" />
<path d="M179.7437 184.8933
L179.6723 184.9648
" />
<path d="M179.6723 184.9648
L179.7437 185.0362
" />
<path d="M179.7437 185.0362
L179.8152 184.9648
" />
<path d="M179.8152 184.9648
L179.7437 184.8933
" />
<path d="M179.7437 184.8933
L179.7437 185.0362
" />
<path d="M180.6723 186.3933
L180.5295 186.3219
" />
<path d="M180.5295 186.3219
L180.4580 186.1790
" />
<path d="M180.4580 186.1790
L180.4580 184.8933
" />
<path d="M181.8152 186.3219
L181.6723 186.3933
" />
<path d="M181.6723 186.3933
L181.3866 186.3933
" />
<path d="M181.3866 186.3933
L181.2437 186.3219
" />
<path d="M181.2437 186.3219
L181.1723 186.1790
" />
<path d="M181.1723 186.1790
L181.1723 185.6076
" />
<path d="M181.1723 185.6076
L181.2437 185.4648
" />
<path d="M181.2437 185.4648
L181.3866 185.3933
" />
<path d="M181.3866 185.3933
L181.6723 185.3933
" />
<path d="M181.6723 185.3933
L181.8152 185.4648
" />
<path d="M181.8152 185.4648
L181.8866 185.6076
" />
<path d="M181.8866 185.6076
L181.8866 185.7505
" />
<path d="M181.8866 185.7505
L181.1723 185.8933
" />
<path d="M182.5295 186.2505
L182.6009 186.3219
" />
<path d="M182.6009 186.3219
L182.5295 186.3933
" />
<path d="M182.5295 186.3933
L182.4580 186.3219
" />
<path d="M182.4580 186.3219
L182.5295 186.2505
" />
<path d="M182.5295 186.2505
L182.5295 186.3933
" />
<path d="M182.5295 185.4648
L182.6009 185.5362
" />
<path d="M182.6009 185.5362
L182.5295 185.6076
" />
<path d="M182.5295 185.6076
L182.4580 185.5362
" />
<path d="M182.4580 185.5362
L182.5295 185.4648
" />
<path d="M182.5295 185.4648
L182.5295 185.6076
" />
<path d="M185.0295 185.3933
L185.0295 186.3933
" />
<path d="M184.3866 185.3933
L184.3866 186.1790
" />
<path d="M184.3866 186.1790
L184.4580 186.3219
" />
<path d="M184.4580 186.3219
L184.6009 186.3933
" />
<path d="M184.6009 186.3933
L184.8152 186.3933
" />
<path d="M184.8152 186.3933
L184.9580 186.3219
" />
<path d="M184.9580 186.3219
L185.0295 186.2505
" />
<path d="M185.6723 186.3219
L185.8152 186.3933
" />
<path d="M185.8152 186.3933
L186.1009 186.3933
" />
<path d="M186.1009 186.3933
L186.2437 186.3219
" />
<path d="M186.2437 186.3219
L186.3152 186.1790
" />
<path d="M186.3152 186.1790
L186.3152 186.1076
" />
<path d="M186.3152 186.1076
L186.2437 185.9648
" />
<path d="M186.2437 185.9648
L186.1009 185.8933
" />
<path d="M186.1009 185.8933
L185.8866 185.8933
" />
<path d="M185.8866 185.8933
L185.7437 185.8219
" />
<path d="M185.7437 185.8219
L185.6723 185.6790
" />
<path d="M185.6723 185.6790
L185.6723 185.6076
" />
<path d="M185.6723 185.6076
L185.7437 185.4648
" />
<path d="M185.7437 185.4648
L185.8866 185.3933
" />
<path d="M185.8866 185.3933
L186.1009 185.3933
" />
<path d="M186.1009 185.3933
L186.2437 185.4648
" />
<path d="M186.9580 186.3933
L186.9580 184.8933
" />
<path d="M186.9580 185.4648
L187.1009 185.3933
" />
<path d="M187.1009 185.3933
L187.3866 185.3933
" />
<path d="M187.3866 185.3933
L187.5295 185.4648
" />
<path d="M187.5295 185.4648
L187.6009 185.5362
" />
<path d="M187.6009 185.5362
L187.6723 185.6790
" />
<path d="M187.6723 185.6790
L187.6723 186.1076
" />
<path d="M187.6723 186.1076
L187.6009 186.2505
" />
<path d="M187.6009 186.2505
L187.5295 186.3219
" />
<path d="M187.5295 186.3219
L187.3866 186.3933
" />
<path d="M187.3866 186.3933
L187.1009 186.3933
" />
<path d="M187.1009 186.3933
L186.9580 186.3219
" />
<path d="M187.9580 186.5362
L189.1009 186.5362
" />
<path d="M190.1009 186.3219
L189.9580 186.3933
" />
<path d="M189.9580 186.3933
L189.6723 186.3933
" />
<path d="M189.6723 186.3933
L189.5295 186.3219
" />
<path d="M189.5295 186.3219
L189.4580 186.2505
" />
<path d="M189.4580 186.2505
L189.3866 186.1076
" />
<path d="M189.3866 186.1076
L189.3866 185.6790
" />
<path d="M189.3866 185.6790
L189.4580 185.5362
" />
<path d="M189.4580 185.5362
L189.5295 185.4648
" />
<path d="M189.5295 185.4648
L189.6723 185.3933
" />
<path d="M189.6723 185.3933
L189.9580 185.3933
" />
<path d="M189.9580 185.3933
L190.1009 185.4648
" />
<path d="M190.3866 186.5362
L191.5295 186.5362
" />
<path d="M191.6723 185.3933
L192.2437 185.3933
" />
<path d="M191.8866 184.8933
L191.8866 186.1790
" />
<path d="M191.8866 186.1790
L191.9580 186.3219
" />
<path d="M191.9580 186.3219
L192.1009 186.3933
" />
<path d="M192.1009 186.3933
L192.2437 186.3933
" />
<path d="M192.7437 186.3933
L192.7437 185.3933
" />
<path d="M192.7437 185.6790
L192.8152 185.5362
" />
<path d="M192.8152 185.5362
L192.8866 185.4648
" />
<path d="M192.8866 185.4648
L193.0295 185.3933
" />
<path d="M193.0295 185.3933
L193.1723 185.3933
" />
<path d="M194.3152 186.3933
L194.3152 185.6076
" />
<path d="M194.3152 185.6076
L194.2437 185.4648
" />
<path d="M194.2437 185.4648
L194.1009 185.3933
" />
<path d="M194.1009 185.3933
L193.8152 185.3933
" />
<path d="M193.8152 185.3933
L193.6723 185.4648
" />
<path d="M194.3152 186.3219
L194.1723 186.3933
" />
<path d="M194.1723 186.3933
L193.8152 186.3933
" />
<path d="M193.8152 186.3933
L193.6723 186.3219
" />
<path d="M193.6723 186.3219
L193.6009 186.1790
" />
<path d="M193.6009 186.1790
L193.6009 186.0362
" />
<path d="M193.6009 186.0362
L193.6723 185.8933
" />
<path d="M193.6723 185.8933
L193.8152 185.8219
" />
<path d="M193.8152 185.8219
L194.1723 185.8219
" />
<path d="M194.1723 185.8219
L194.3152 185.7505
" />
<path d="M194.8152 185.3933
L195.3866 185.3933
" />
<path d="M195.0295 186.3933
L195.0295 185.1076
" />
<path d="M195.0295 185.1076
L195.1009 184.9648
" />
<path d="M195.1009 184.9648
L195.2437 184.8933
" />
<path d="M195.2437 184.8933
L195.3866 184.8933
" />
<path d="M195.6723 185.3933
L196.2437 185.3933
" />
<path d="M195.8866 186.3933
L195.8866 185.1076
" />
<path d="M195.8866 185.1076
L195.9580 184.9648
" />
<path d="M195.9580 184.9648
L196.1009 184.8933
" />
<path d="M196.1009 184.8933
L196.2437 184.8933
" />
<path d="M196.7437 186.3933
L196.7437 185.3933
" />
<path d="M196.7437 184.8933
L196.6723 184.9648
" />
<path d="M196.6723 184.9648
L196.7437 185.0362
" />
<path d="M196.7437 185.0362
L196.8152 184.9648
" />
<path d="M196.8152 184.9648
L196.7437 184.8933
" />
<path d="M196.7437 184.8933
L196.7437 185.0362
" />
<path d="M198.1009 186.3219
L197.9580 186.3933
" />
<path d="M197.9580 186.3933
L197.6723 186.3933
" />
<path d="M197.6723 186.3933
L197.5295 186.3219
" />
<path d="M197.5295 186.3219
L197.4580 186.2505
" />
<path d="M197.4580 186.2505
L197.3866 186.1076
" />
<path d="M197.3866 186.1076
L197.3866 185.6790
" />
<path d="M197.3866 185.6790
L197.4580 185.5362
" />
<path d="M197.4580 185.5362
L197.5295 185.4648
" />
<path d="M197.5295 185.4648
L197.6723 185.3933
" />
<path d="M197.6723 185.3933
L197.9580 185.3933
" />
<path d="M197.9580 185.3933
L198.1009 185.4648
" />
<path d="M198.3866 186.5362
L199.5295 186.5362
" />
<path d="M200.1009 186.3933
L199.9580 186.3219
" />
<path d="M199.9580 186.3219
L199.8866 186.1790
" />
<path d="M199.8866 186.1790
L199.8866 184.8933
" />
<path d="M200.6723 186.3933
L200.6723 185.3933
" />
<path d="M200.6723 184.8933
L200.6009 184.9648
" />
<path d="M200.6009 184.9648
L200.6723 185.0362
" />
<path d="M200.6723 185.0362
L200.7437 184.9648
" />
<path d="M200.7437 184.9648
L200.6723 184.8933
" />
<path d="M200.6723 184.8933
L200.6723 185.0362
" />
<path d="M202.0295 185.3933
L202.0295 186.6076
" />
<path d="M202.0295 186.6076
L201.9580 186.7505
" />
<path d="M201.9580 186.7505
L201.8866 186.8219
" />
<path d="M201.8866 186.8219
L201.7437 186.8933
" />
<path d="M201.7437 186.8933
L201.5295 186.8933
" />
<path d="M201.5295 186.8933
L201.3866 186.8219
" />
<path d="M202.0295 186.3219
L201.8866 186.3933
" />
<path d="M201.8866 186.3933
L201.6009 186.3933
" />
<path d="M201.6009 186.3933
L201.4580 186.3219
" />
<path d="M201.4580 186.3219
L201.3866 186.2505
" />
<path d="M201.3866 186.2505
L201.3152 186.1076
" />
<path d="M201.3152 186.1076
L201.3152 185.6790
" />
<path d="M201.3152 185.6790
L201.3866 185.5362
" />
<path d="M201.3866 185.5362
L201.4580 185.4648
" />
<path d="M201.4580 185.4648
L201.6009 185.3933
" />
<path d="M201.6009 185.3933
L201.8866 185.3933
" />
<path d="M201.8866 185.3933
L202.0295 185.4648
" />
<path d="M202.7437 186.3933
L202.7437 184.8933
" />
<path d="M203.3866 186.3933
L203.3866 185.6076
" />
<path d="M203.3866 185.6076
L203.3152 185.4648
" />
<path d="M203.3152 185.4648
L203.1723 185.3933
" />
<path d="M203.1723 185.3933
L202.9580 185.3933
" />
<path d="M202.9580 185.3933
L202.8152 185.4648
" />
<path d="M202.8152 185.4648
L202.7437 185.5362
" />
<path d="M203.8866 185.3933
L204.4580 185.3933
" />
<path d="M204.1009 184.8933
L204.1009 186.1790
" />
<path d="M204.1009 186.1790
L204.1723 186.3219
" />
<path d="M204.1723 186.3219
L204.3152 186.3933
" />
<path d="M204.3152 186.3933
L204.4580 186.3933
" />
<path d="M204.6009 186.5362
L205.7437 186.5362
" />
<path d="M206.1009 186.3933
L206.1009 184.8933
" />
<path d="M206.1009 185.4648
L206.2437 185.3933
" />
<path d="M206.2437 185.3933
L206.5295 185.3933
" />
<path d="M206.5295 185.3933
L206.6723 185.4648
" />
<path d="M206.6723 185.4648
L206.7437 185.5362
" />
<path d="M206.7437 185.5362
L206.8152 185.6790
" />
<path d="M206.8152 185.6790
L206.8152 186.1076
" />
<path d="M206.8152 186.1076
L206.7437 186.2505
" />
<path d="M206.7437 186.2505
L206.6723 186.3219
" />
<path d="M206.6723 186.3219
L206.5295 186.3933
" />
<path d="M206.5295 186.3933
L206.2437 186.3933
" />
<path d="M206.2437 186.3933
L206.1009 186.3219
" />
<path d="M207.6723 186.3933
L207.5295 186.3219
" />
<path d="M207.5295 186.3219
L207.4580 186.2505
" />
<path d="M207.4580 186.2505
L207.3866 186.1076
" />
<path d="M207.3866 186.1076
L207.3866 185.6790
" />
<path d="M207.3866 185.6790
L207.4580 185.5362
" />
<path d="M207.4580 185.5362
L207.5295 185.4648
" />
<path d="M207.5295 185.4648
L207.6723 185.3933
" />
<path d="M207.6723 185.3933
L207.8866 185.3933
" />
<path d="M207.8866 185.3933
L208.0295 185.4648
" />
<path d="M208.0295 185.4648
L208.1009 185.5362
" />
<path d="M208.1009 185.5362
L208.1723 185.6790
" />
<path d="M208.1723 185.6790
L208.1723 186.1076
" />
<path d="M208.1723 186.1076
L208.1009 186.2505
" />
<path d="M208.1009 186.2505
L208.0295 186.3219
" />
<path d="M208.0295 186.3219
L207.8866 186.3933
" />
<path d="M207.8866 186.3933
L207.6723 186.3933
" />
<path d="M209.4580 186.3933
L209.4580 185.6076
" />
<path d="M209.4580 185.6076
L209.3866 185.4648
" />
<path d="M209.3866 185.4648
L209.2437 185.3933
" />
<path d="M209.2437 185.3933
L208.9580 185.3933
" />
<path d="M208.9580 185.3933
L208.8152 185.4648
" />
<path d="M209.4580 186.3219
L209.3152 186.3933
" />
<path d="M209.3152 186.3933
L208.9580 186.3933
" />
<path d="M208.9580 186.3933
L208.8152 186.3219
" />
<path d="M208.8152 186.3219
L208.7437 186.1790
" />
<path d="M208.7437 186.1790
L208.7437 186.0362
" />
<path d="M208.7437 186.0362
L208.8152 185.8933
" />
<path d="M208.8152 185.8933
L208.9580 185.8219
" />
<path d="M208.9580 185.8219
L209.3152 185.8219
" />
<path d="M209.3152 185.8219
L209.4580 185.7505
" />
<path d="M210.1723 186.3933
L210.1723 185.3933
" />
<path d="M210.1723 185.6790
L210.2437 185.5362
" />
<path d="M210.2437 185.5362
L210.3152 185.4648
" />
<path d="M210.3152 185.4648
L210.4580 185.3933
" />
<path d="M210.4580 185.3933
L210.6009 185.3933
" />
<path d="M211.7437 186.3933
L211.7437 184.8933
" />
<path d="M211.7437 186.3219
L211.6009 186.3933
" />
<path d="M211.6009 186.3933
L211.3152 186.3933
" />
<path d="M211.3152 186.3933
L211.1723 186.3219
" />
<path d="M211.1723 186.3219
L211.1009 186.2505
" />
<path d="M211.1009 186.2505
L211.0295 186.1076
" />
<path d="M211.0295 186.1076
L211.0295 185.6790
" />
<path d="M211.0295 185.6790
L211.1009 185.5362
" />
<path d="M211.1009 185.5362
L211.1723 185.4648
" />
<path d="M211.1723 185.4648
L211.3152 185.3933
" />
<path d="M211.3152 185.3933
L211.6009 185.3933
" />
<path d="M211.6009 185.3933
L211.7437 185.4648
" />
<path d="M212.4580 186.2505
L212.5295 186.3219
" />
<path d="M212.5295 186.3219
L212.4580 186.3933
" />
<path d="M212.4580 186.3933
L212.3866 186.3219
" />
<path d="M212.3866 186.3219
L212.4580 186.2505
" />
<path d="M212.4580 186.2505
L212.4580 186.3933
" />
<path d="M213.1723 186.3933
L213.1723 184.8933
" />
<path d="M213.3152 185.8219
L213.7437 186.3933
" />
<path d="M213.7437 185.3933
L213.1723 185.9648
" />
<path d="M214.3866 186.3933
L214.3866 185.3933
" />
<path d="M214.3866 184.8933
L214.3152 184.9648
" />
<path d="M214.3152 184.9648
L214.3866 185.0362
" />
<path d="M214.3866 185.0362
L214.4580 184.9648
" />
<path d="M214.4580 184.9648
L214.3866 184.8933
" />
<path d="M214.3866 184.8933
L214.3866 185.0362
" />
<path d="M215.7437 186.3219
L215.6009 186.3933
" />
<path d="M215.6009 186.3933
L215.3152 186.3933
" />
<path d="M215.3152 186.3933
L215.1723 186.3219
" />
<path d="M215.1723 186.3219
L215.1009 186.2505
" />
<path d="M215.1009 186.2505
L215.0295 186.1076
" />
<path d="M215.0295 186.1076
L215.0295 185.6790
" />
<path d="M215.0295 185.6790
L215.1009 185.5362
" />
<path d="M215.1009 185.5362
L215.1723 185.4648
" />
<path d="M215.1723 185.4648
L215.3152 185.3933
" />
<path d="M215.3152 185.3933
L215.6009 185.3933
" />
<path d="M215.6009 185.3933
L215.7437 185.4648
" />
<path d="M217.0295 186.3933
L217.0295 185.6076
" />
<path d="M217.0295 185.6076
L216.9580 185.4648
" />
<path d="M216.9580 185.4648
L216.8152 185.3933
" />
<path d="M216.8152 185.3933
L216.5295 185.3933
" />
<path d="M216.5295 185.3933
L216.3866 185.4648
" />
<path d="M217.0295 186.3219
L216.8866 186.3933
" />
<path d="M216.8866 186.3933
L216.5295 186.3933
" />
<path d="M216.5295 186.3933
L216.3866 186.3219
" />
<path d="M216.3866 186.3219
L216.3152 186.1790
" />
<path d="M216.3152 186.1790
L216.3152 186.0362
" />
<path d="M216.3152 186.0362
L216.3866 185.8933
" />
<path d="M216.3866 185.8933
L216.5295 185.8219
" />
<path d="M216.5295 185.8219
L216.8866 185.8219
" />
<path d="M216.8866 185.8219
L217.0295 185.7505
" />
<path d="M218.3866 186.3933
L218.3866 184.8933
" />
<path d="M218.3866 186.3219
L218.2437 186.3933
" />
<path d="M218.2437 186.3933
L217.9580 186.3933
" />
<path d="M217.9580 186.3933
L217.8152 186.3219
" />
<path d="M217.8152 186.3219
L217.7437 186.2505
" />
<path d="M217.7437 186.2505
L217.6723 186.1076
" />
<path d="M217.6723 186.1076
L217.6723 185.6790
" />
<path d="M217.6723 185.6790
L217.7437 185.5362
" />
<path d="M217.7437 185.5362
L217.8152 185.4648
" />
<path d="M217.8152 185.4648
L217.9580 185.3933
" />
<path d="M217.9580 185.3933
L218.2437 185.3933
" />
<path d="M218.2437 185.3933
L218.3866 185.4648
" />
<path d="M218.7437 186.5362
L219.8866 186.5362
" />
<path d="M220.2437 185.3933
L220.2437 186.8933
" />
<path d="M220.2437 185.4648
L220.3866 185.3933
" />
<path d="M220.3866 185.3933
L220.6723 185.3933
" />
<path d="M220.6723 185.3933
L220.8152 185.4648
" />
<path d="M220.8152 185.4648
L220.8866 185.5362
" />
<path d="M220.8866 185.5362
L220.9580 185.6790
" />
<path d="M220.9580 185.6790
L220.9580 186.1076
" />
<path d="M220.9580 186.1076
L220.8866 186.2505
" />
<path d="M220.8866 186.2505
L220.8152 186.3219
" />
<path d="M220.8152 186.3219
L220.6723 186.3933
" />
<path d="M220.6723 186.3933
L220.3866 186.3933
" />
<path d="M220.3866 186.3933
L220.2437 186.3219
" />
<path d="M222.2437 186.3219
L222.1009 186.3933
" />
<path d="M222.1009 186.3933
L221.8152 186.3933
" />
<path d="M221.8152 186.3933
L221.6723 186.3219
" />
<path d="M221.6723 186.3219
L221.6009 186.2505
" />
<path d="M221.6009 186.2505
L221.5295 186.1076
" />
<path d="M221.5295 186.1076
L221.5295 185.6790
" />
<path d="M221.5295 185.6790
L221.6009 185.5362
" />
<path d="M221.6009 185.5362
L221.6723 185.4648
" />
<path d="M221.6723 185.4648
L221.8152 185.3933
" />
<path d="M221.8152 185.3933
L222.1009 185.3933
" />
<path d="M222.1009 185.3933
L222.2437 185.4648
" />
<path d="M222.8866 186.3933
L222.8866 184.8933
" />
<path d="M222.8866 185.4648
L223.0295 185.3933
" />
<path d="M223.0295 185.3933
L223.3152 185.3933
" />
<path d="M223.3152 185.3933
L223.4580 185.4648
" />
<path d="M223.4580 185.4648
L223.5295 185.5362
" />
<path d="M223.5295 185.5362
L223.6009 185.6790
" />
<path d="M223.6009 185.6790
L223.6009 186.1076
" />
<path d="M223.6009 186.1076
L223.5295 186.2505
" />
<path d="M223.5295 186.2505
L223.4580 186.3219
" />
<path d="M223.4580 186.3219
L223.3152 186.3933
" />
<path d="M223.3152 186.3933
L223.0295 186.3933
" />
<path d="M223.0295 186.3933
L222.8866 186.3219
" />
</g><path d="M177.0022 181.5072
L285.0022 181.5072
" />
<text x="178.0022" y="183.7572"
textLength="8.2214" font-size="2.0000" lengthAdjust="spacingAndGlyphs"
text-anchor="start" opacity="0" stroke-opacity="0">Sheet: </text>
<g class="stroked-text"><desc>Sheet: </desc>
<path d="M178.3866 183.6219
L178.6009 183.6933
" />
<path d="M178.6009 183.6933
L178.9580 183.6933
" />
<path d="M178.9580 183.6933
L179.1009 183.6219
" />
<path d="M179.1009 183.6219
L179.1723 183.5505
" />
<path d="M179.1723 183.5505
L179.2437 183.4076
" />
<path d="M179.2437 183.4076
L179.2437 183.2648
" />
<path d="M179.2437 183.2648
L179.1723 183.1219
" />
<path d="M179.1723 183.1219
L179.1009 183.0505
" />
<path d="M179.1009 183.0505
L178.9580 182.9790
" />
<path d="M178.9580 182.9790
L178.6723 182.9076
" />
<path d="M178.6723 182.9076
L178.5295 182.8362
" />
<path d="M178.5295 182.8362
L178.4580 182.7648
" />
<path d="M178.4580 182.7648
L178.3866 182.6219
" />
<path d="M178.3866 182.6219
L178.3866 182.4790
" />
<path d="M178.3866 182.4790
L178.4580 182.3362
" />
<path d="M178.4580 182.3362
L178.5295 182.2648
" />
<path d="M178.5295 182.2648
L178.6723 182.1933
" />
<path d="M178.6723 182.1933
L179.0295 182.1933
" />
<path d="M179.0295 182.1933
L179.2437 182.2648
" />
<path d="M179.8866 183.6933
L179.8866 182.1933
" />
<path d="M180.5295 183.6933
L180.5295 182.9076
" />
<path d="M180.5295 182.9076
L180.4580 182.7648
" />
<path d="M180.4580 182.7648
L180.3152 182.6933
" />
<path d="M180.3152 182.6933
L180.1009 182.6933
" />
<path d="M180.1009 182.6933
L179.9580 182.7648
" />
<path d="M179.9580 182.7648
L179.8866 182.8362
" />
<path d="M181.8152 183.6219
L181.6723 183.6933
" />
<path d="M181.6723 183.6933
L181.3866 183.6933
" />
<path d="M181.3866 183.6933
L181.2437 183.6219
" />
<path d="M181.2437 183.6219
L181.1723 183.4790
" />
<path d="M181.1723 183.4790
L181.1723 182.9076
" />
<path d="M181.1723 182.9076
L181.2437 182.7648
" />
<path d="M181.2437 182.7648
L181.3866 182.6933
" />
<path d="M181.3866 182.6933
L181.6723 182.6933
" />
<path d="M181.6723 182.6933
L181.8152 182.7648
" />
<path d="M181.8152 182.7648
L181.8866 182.9076
" />
<path d="M181.8866 182.9076
L181.8866 183.0505
" />
<path d="M181.8866 183.0505
L181.1723 183.1933
" />
<path d="M183.1009 183.6219
L182.9580 183.6933
" />
<path d="M182.9580 183.6933
L182.6723 183.6933
" />
<path d="M182.6723 183.6933
L182.5295 183.6219
" />
<path d="M182.5295 183.6219
L182.4580 183.4790
" />
<path d="M182.4580 183.4790
L182.4580 182.9076
" />
<path d="M182.4580 182.9076
L182.5295 182.7648
" />
<path d="M182.5295 182.7648
L182.6723 182.6933
" />
<path d="M182.6723 182.6933
L182.9580 182.6933
" />
<path d="M182.9580 182.6933
L183.1009 182.7648
" />
<path d="M183.1009 182.7648
L183.1723 182.9076
" />
<path d="M183.1723 182.9076
L183.1723 183.0505
" />
<path d="M183.1723 183.0505
L182.4580 183.1933
" />
<path d="M183.6009 182.6933
L184.1723 182.6933
" />
<path d="M183.8152 182.1933
L183.8152 183.4790
" />
<path d="M183.8152 183.4790
L183.8866 183.6219
" />
<path d="M183.8866 183.6219
L184.0295 183.6933
" />
<path d="M184.0295 183.6933
L184.1723 183.6933
" />
<path d="M184.6723 183.5505
L184.7437 183.6219
" />
<path d="M184.7437 183.6219
L184.6723 183.6933
" />
<path d="M184.6723 183.6933
L184.6009 183.6219
" />
<path d="M184.6009 183.6219
L184.6723 183.5505
" />
<path d="M184.6723 183.5505
L184.6723 183.6933
" />
<path d="M184.6723 182.7648
L184.7437 182.8362
" />
<path d="M184.7437 182.8362
L184.6723 182.9076
" />
<path d="M184.6723 182.9076
L184.6009 182.8362
" />
<path d="M184.6009 182.8362
L184.6723 182.7648
" />
<path d="M184.6723 182.7648
L184.6723 182.9076
" />
</g></g>
<g style="fill:none; 
stroke:#C872AB; stroke-width:0.3000; stroke-opacity:1; 
stroke-linecap:round; stroke-linejoin:round;">
<text x="178.0022" y="180.7572"
textLength="0.9000" font-size="2.0000" lengthAdjust="spacingAndGlyphs"
text-anchor="start" opacity="0" stroke-opacity="0"></text>
<g class="stroked-text"><desc></desc>
</g></g>
<g style="fill:none; 
stroke:#C872AB; stroke-width:0.1500; stroke-opacity:1; 
stroke-linecap:round; stroke-linejoin:round;">
<text x="178.0022" y="177.7572"
textLength="0.4500" font-size="2.0000" lengthAdjust="spacingAndGlyphs"
text-anchor="start" opacity="0" stroke-opacity="0"></text>
<g class="stroked-text"><desc></desc>
</g><text x="178.0022" y="174.7572"
textLength="0.4500" font-size="2.0000" lengthAdjust="spacingAndGlyphs"
text-anchor="start" opacity="0" stroke-opacity="0"></text>
<g class="stroked-text"><desc></desc>
</g><text x="178.0022" y="171.7572"
textLength="0.4500" font-size="2.0000" lengthAdjust="spacingAndGlyphs"
text-anchor="start" opacity="0" stroke-opacity="0"></text>
<g class="stroked-text"><desc></desc>
</g><text x="178.0022" y="168.7572"
textLength="0.4500" font-size="2.0000" lengthAdjust="spacingAndGlyphs"
text-anchor="start" opacity="0" stroke-opacity="0"></text>
<g class="stroked-text"><desc></desc>
</g><path d="M197.0022 191.5072
L197.0022 194.5072
" />
<path d="M261.0022 191.5072
L261.0022 198.0072
" />
</g>
<g style="fill:none; 
stroke:#F2EDA1; stroke-width:0.1000; stroke-opacity:1; 
stroke-linecap:round; stroke-linejoin:round;">
<text x="143.5000" y="79.5000"
textLength="1.5876" font-size="1.0667" lengthAdjust="spacingAndGlyphs"
text-anchor="middle" opacity="0" stroke-opacity="0">A3</text>
<g class="stroked-text"><desc>A3</desc>
<path d="M142.9286 79.2363
L143.3095 79.2363
" />
<path d="M142.8524 79.4649
L143.1190 78.6649
" />
<path d="M143.1190 78.6649
L143.3857 79.4649
" />
<path d="M143.5762 78.6649
L144.0714 78.6649
" />
<path d="M144.0714 78.6649
L143.8048 78.9697
" />
<path d="M143.8048 78.9697
L143.9190 78.9697
" />
<path d="M143.9190 78.9697
L143.9952 79.0078
" />
<path d="M143.9952 79.0078
L144.0333 79.0458
" />
<path d="M144.0333 79.0458
L144.0714 79.1220
" />
<path d="M144.0714 79.1220
L144.0714 79.3125
" />
<path d="M144.0714 79.3125
L144.0333 79.3887
" />
<path d="M144.0333 79.3887
L143.9952 79.4268
" />
<path d="M143.9952 79.4268
L143.9190 79.4649
" />
<path d="M143.9190 79.4649
L143.6905 79.4649
" />
<path d="M143.6905 79.4649
L143.6143 79.4268
" />
<path d="M143.6143 79.4268
L143.5762 79.3887
" />
</g><text x="149.5000" y="109.9000"
textLength="4.8638" font-size="1.0667" lengthAdjust="spacingAndGlyphs"
text-anchor="middle" opacity="0" stroke-opacity="0">CH552G</text>
<g class="stroked-text"><desc>CH552G</desc>
<path d="M147.7857 109.7887
L147.7476 109.8268
" />
<path d="M147.7476 109.8268
L147.6333 109.8649
" />
<path d="M147.6333 109.8649
L147.5571 109.8649
" />
<path d="M147.5571 109.8649
L147.4429 109.8268
" />
<path d="M147.4429 109.8268
L147.3667 109.7506
" />
<path d="M147.3667 109.7506
L147.3286 109.6744
" />
<path d="M147.3286 109.6744
L147.2905 109.5220
" />
<path d="M147.2905 109.5220
L147.2905 109.4078
" />
<path d="M147.2905 109.4078
L147.3286 109.2554
" />
<path d="M147.3286 109.2554
L147.3667 109.1792
" />
<path d="M147.3667 109.1792
L147.4429 109.1030
" />
<path d="M147.4429 109.1030
L147.5571 109.0649
" />
<path d="M147.5571 109.0649
L147.6333 109.0649
" />
<path d="M147.6333 109.0649
L147.7476 109.1030
" />
<path d="M147.7476 109.1030
L147.7857 109.1411
" />
<path d="M148.1286 109.8649
L148.1286 109.0649
" />
<path d="M148.1286 109.4458
L148.5857 109.4458
" />
<path d="M148.5857 109.8649
L148.5857 109.0649
" />
<path d="M149.3476 109.0649
L148.9667 109.0649
" />
<path d="M148.9667 109.0649
L148.9286 109.4458
" />
<path d="M148.9286 109.4458
L148.9667 109.4078
" />
<path d="M148.9667 109.4078
L149.0429 109.3697
" />
<path d="M149.0429 109.3697
L149.2333 109.3697
" />
<path d="M149.2333 109.3697
L149.3095 109.4078
" />
<path d="M149.3095 109.4078
L149.3476 109.4458
" />
<path d="M149.3476 109.4458
L149.3857 109.5220
" />
<path d="M149.3857 109.5220
L149.3857 109.7125
" />
<path d="M149.3857 109.7125
L149.3476 109.7887
" />
<path d="M149.3476 109.7887
L149.3095 109.8268
" />
<path d="M149.3095 109.8268
L149.2333 109.8649
" />
<path d="M149.2333 109.8649
L149.0429 109.8649
" />
<path d="M149.0429 109.8649
L148.9667 109.8268
" />
<path d="M148.9667 109.8268
L148.9286 109.7887
" />
<path d="M150.1095 109.0649
L149.7286 109.0649
" />
<path d="M149.7286 109.0649
L149.6905 109.4458
" />
<path d="M149.6905 109.4458
L149.7286 109.4078
" />
<path d="M149.7286 109.4078
L149.8048 109.3697
" />
<path d="M149.8048 109.3697
L149.9952 109.3697
" />
<path d="M149.9952 109.3697
L150.0714 109.4078
" />
<path d="M150.0714 109.4078
L150.1095 109.4458
" />
<path d="M150.1095 109.4458
L150.1476 109.5220
" />
<path d="M150.1476 109.5220
L150.1476 109.7125
" />
<path d="M150.1476 109.7125
L150.1095 109.7887
" />
<path d="M150.1095 109.7887
L150.0714 109.8268
" />
<path d="M150.0714 109.8268
L149.9952 109.8649
" />
<path d="M149.9952 109.8649
L149.8048 109.8649
" />
<path d="M149.8048 109.8649
L149.7286 109.8268
" />
<path d="M149.7286 109.8268
L149.6905 109.7887
" />
<path d="M150.4524 109.1411
L150.4905 109.1030
" />
<path d="M150.4905 109.1030
L150.5667 109.0649
" />
<path d="M150.5667 109.0649
L150.7571 109.0649
" />
<path d="M150.7571 109.0649
L150.8333 109.1030
" />
<path d="M150.8333 109.1030
L150.8714 109.1411
" />
<path d="M150.8714 109.1411
L150.9095 109.2173
" />
<path d="M150.9095 109.2173
L150.9095 109.2935
" />
<path d="M150.9095 109.2935
L150.8714 109.4078
" />
<path d="M150.8714 109.4078
L150.4143 109.8649
" />
<path d="M150.4143 109.8649
L150.9095 109.8649
" />
<path d="M151.6714 109.1030
L151.5952 109.0649
" />
<path d="M151.5952 109.0649
L151.4810 109.0649
" />
<path d="M151.4810 109.0649
L151.3667 109.1030
" />
<path d="M151.3667 109.1030
L151.2905 109.1792
" />
<path d="M151.2905 109.1792
L151.2524 109.2554
" />
<path d="M151.2524 109.2554
L151.2143 109.4078
" />
<path d="M151.2143 109.4078
L151.2143 109.5220
" />
<path d="M151.2143 109.5220
L151.2524 109.6744
" />
<path d="M151.2524 109.6744
L151.2905 109.7506
" />
<path d="M151.2905 109.7506
L151.3667 109.8268
" />
<path d="M151.3667 109.8268
L151.4810 109.8649
" />
<path d="M151.4810 109.8649
L151.5571 109.8649
" />
<path d="M151.5571 109.8649
L151.6714 109.8268
" />
<path d="M151.6714 109.8268
L151.7095 109.7887
" />
<path d="M151.7095 109.7887
L151.7095 109.5220
" />
<path d="M151.7095 109.5220
L151.5571 109.5220
" />
</g></g>
<g style="fill:none; 
stroke:#D0D2CD; stroke-width:0.1000; stroke-opacity:1; 
stroke-linecap:round; stroke-linejoin:round;">
<path d="M141.5000 81.0000
L143.5000 76.5000
" />
<path d="M141.5000 85.0000
L141.5000 81.0000
" />
<path d="M141.5000 88.0000
L141.6516 87.6426
" />
<path d="M141.5000 99.0000
L141.5000 88.0000
" />
<path d="M141.5000 102.0000
L141.6516 101.6426
" />
<path d="M141.5000 107.0000
L141.5000 102.0000
" />
<path d="M141.5000 110.0000
L141.6516 109.6426
" />
<path d="M141.5000 121.0000
L141.5000 110.0000
" />
<path d="M141.5000 124.0000
L141.6516 123.6426
" />
<path d="M141.5000 129.0000
L141.5000 124.0000
" />
<path d="M141.6516 85.3574
L141.5000 85.0000
" />
<path d="M141.6516 87.6426
L141.7613 87.2701
" />
<path d="M141.6516 99.3574
L141.5000 99.0000
" />
<path d="M141.6516 101.6426
L141.7613 101.2701
" />
<path d="M141.6516 107.3574
L141.5000 107.0000
" />
<path d="M141.6516 109.6426
L141.7613 109.2701
" />
<path d="M141.6516 121.3574
L141.5000 121.0000
" />
<path d="M141.6516 123.6426
L141.7613 123.2701
" />
<path d="M141.7613 85.7299
L141.6516 85.3574
" />
<path d="M141.7613 87.2701
L141.8278 86.8876
" />
<path d="M141.7613 99.7299
L141.6516 99.3574
" />
<path d="M141.7613 101.2701
L141.8278 100.8876
" />
<path d="M141.7613 107.7299
L141.6516 107.3574
" />
<path d="M141.7613 109.2701
L141.8278 108.8876
" />
<path d="M141.7613 121.7299
L141.6516 121.3574
" />
<path d="M141.7613 123.2701
L141.8278 122.8876
" />
<path d="M141.8278 86.1124
L141.7613 85.7299
" />
<path d="M141.8278 86.8876
L141.8500 86.5000
" />
<path d="M141.8278 100.1124
L141.7613 99.7299
" />
<path d="M141.8278 100.8876
L141.8500 100.5000
" />
<path d="M141.8278 108.1124
L141.7613 107.7299
" />
<path d="M141.8278 108.8876
L141.8500 108.5000
" />
<path d="M141.8278 122.1124
L141.7613 121.7299
" />
<path d="M141.8278 122.8876
L141.8500 122.5000
" />
<path d="M141.8500 86.5000
L141.8278 86.1124
" />
<path d="M141.8500 100.5000
L141.8278 100.1124
" />
<path d="M141.8500 108.5000
L141.8278 108.1124
" />
<path d="M141.8500 122.5000
L141.8278 122.1124
" />
<path d="M143.5000 76.5000
L153.5000 76.5000
" />
<path d="M143.5000 133.5000
L141.5000 129.0000
" />
<path d="M153.5000 76.5000
L155.5000 81.0000
" />
<path d="M153.5000 133.5000
L143.5000 133.5000
" />
<path d="M155.1500 86.5000
L155.1722 86.8876
" />
<path d="M155.1500 100.5000
L155.1722 100.8876
" />
<path d="M155.1500 108.5000
L155.1722 108.8876
" />
<path d="M155.1500 122.5000
L155.1722 122.8876
" />
<path d="M155.1722 86.1124
L155.1500 86.5000
" />
<path d="M155.1722 86.8876
L155.2387 87.2701
" />
<path d="M155.1722 100.1124
L155.1500 100.5000
" />
<path d="M155.1722 100.8876
L155.2387 101.2701
" />
<path d="M155.1722 108.1124
L155.1500 108.5000
" />
<path d="M155.1722 108.8876
L155.2387 109.2701
" />
<path d="M155.1722 122.1124
L155.1500 122.5000
" />
<path d="M155.1722 122.8876
L155.2387 123.2701
" />
<path d="M155.2387 85.7299
L155.1722 86.1124
" />
<path d="M155.2387 87.2701
L155.3484 87.6426
" />
<path d="M155.2387 99.7299
L155.1722 100.1124
" />
<path d="M155.2387 101.2701
L155.3484 101.6426
" />
<path d="M155.2387 107.7299
L155.1722 108.1124
" />
<path d="M155.2387 109.2701
L155.3484 109.6426
" />
<path d="M155.2387 121.7299
L155.1722 122.1124
" />
<path d="M155.2387 123.2701
L155.3484 123.6426
" />
<path d="M155.3484 85.3574
L155.2387 85.7299
" />
<path d="M155.3484 87.6426
L155.5000 88.0000
" />
<path d="M155.3484 99.3574
L155.2387 99.7299
" />
<path d="M155.3484 101.6426
L155.5000 102.0000
" />
<path d="M155.3484 107.3574
L155.2387 107.7299
" />
<path d="M155.3484 109.6426
L155.5000 110.0000
" />
<path d="M155.3484 121.3574
L155.2387 121.7299
" />
<path d="M155.3484 123.6426
L155.5000 124.0000
" />
<path d="M155.5000 81.0000
L155.5000 85.0000
" />
<path d="M155.5000 85.0000
L155.3484 85.3574
" />
<path d="M155.5000 88.0000
L155.5000 99.0000
" />
<path d="M155.5000 99.0000
L155.3484 99.3574
" />
<path d="M155.5000 102.0000
L155.5000 107.0000
" />
<path d="M155.5000 107.0000
L155.3484 107.3574
" />
<path d="M155.5000 110.0000
L155.5000 121.0000
" />
<path d="M155.5000 121.0000
L155.3484 121.3574
" />
<path d="M155.5000 124.0000
L155.5000 129.0000
" />
<path d="M155.5000 129.0000
L153.5000 133.5000
" />
</g>
<g style="fill:#000000; fill-opacity:1.0000; stroke:none;">
<circle cx="152.3000" cy="79.5000" r="1.0000" /> 
<circle cx="144.9000" cy="110.5000" r="1.0000" /> 
<circle cx="143.9050" cy="96.8100" r="0.2750" /> 
</g>
<g style="fill:none; 
stroke:#000000; stroke-width:0.2500; stroke-opacity:1; 
stroke-linecap:round; stroke-linejoin:round;">
<path d="M143.9050 99.0400
L143.9050 100.5400
" />
</g>
<g style="fill:#000000; fill-opacity:1.0000; stroke:none;">
<circle cx="153.0950" cy="96.8100" r="0.2750" /> 
</g>
<g style="fill:none; 
stroke:#000000; stroke-width:0.2500; stroke-opacity:1; 
stroke-linecap:round; stroke-linejoin:round;">
<path d="M153.0950 99.0400
L153.0950 100.5400
" />
</g> 
</svg>
